<?xml version="1.0" encoding="UTF-8"?>
<svg version="1.1" xmlns="http://www.w3.org/2000/svg" width="1254" height="1254">
<path d="M0 0 C413.82 0 827.64 0 1254 0 C1254 413.82 1254 827.64 1254 1254 C840.18 1254 426.36 1254 0 1254 C0 840.18 0 426.36 0 0 Z " fill="#011025" transform="translate(0,0)"/>
<path d="M0 0 C35.31 0 70.62 0 107 0 C118.875 23.8125 118.875 23.8125 122.55419922 31.19848633 C128.12042307 42.35497013 133.76887755 53.45640089 139.60986328 64.47143555 C142.11400778 69.19978159 144.5625059 73.95576757 147 78.71875 C147.41275177 79.52523483 147.82550354 80.33171967 148.25076294 81.16264343 C149.91843698 84.42370291 151.58418287 87.6857456 153.25 90.94775391 C158.22802979 100.6918583 163.251285 110.40876491 168.36123657 120.08439636 C172.07410389 127.12131826 175.70962896 134.196397 179.33395386 141.27920532 C185.03789909 152.4197312 190.83743378 163.48882805 196.8918457 174.4440918 C200.53594243 181.06668818 203.93323934 187.78998607 207.26538086 194.57397461 C210.75780771 201.63722253 214.53158757 208.52805155 218.42211914 215.37939453 C220.74491788 219.51251573 222.70004278 223.40583302 224 228 C222.29107412 227.54388099 220.58288771 227.08499109 218.875 226.625 C217.92367187 226.36976563 216.97234375 226.11453125 215.9921875 225.8515625 C214.00977629 225.28737759 212.04192502 224.66905206 210.09375 223.99609375 C206.63068219 222.88109086 203.19418409 222.1402981 199.625 221.4375 C198.37976563 221.18871094 197.13453125 220.93992187 195.8515625 220.68359375 C187.08640926 219.12791239 178.57778812 218.81373301 169.6940918 218.81469727 C167.46708525 218.81252881 165.24058999 218.79437775 163.01367188 218.77539062 C153.55891616 218.73857416 144.31022696 219.22079253 135 221 C134.67 221.33 134.34 221.66 134 222 C132.39868185 222.22920221 130.79356233 222.43182327 129.1875 222.625 C118.09190639 224.36286406 107.35471785 228.74754914 97 233 C91.1646195 222.08219133 85.51188986 211.08478455 80 200 C74.92127253 189.79100423 69.71805395 179.66007872 64.37158203 169.58886719 C61.52361746 164.21332138 58.69640874 158.82702107 55.875 153.4375 C55.29355225 152.33510986 54.71210449 151.23271973 54.11303711 150.09692383 C53.57815674 149.0736499 53.04327637 148.05037598 52.4921875 146.99609375 C52.01120605 146.08013428 51.53022461 145.1641748 51.03466797 144.22045898 C50 142 50 142 50 140 C47.09330115 142.52652968 45.67885904 145.31122436 43.99609375 148.75 C43.4252002 149.90661133 42.85430664 151.06322266 42.26611328 152.25488281 C41.81851654 153.17170837 41.81851654 153.17170837 41.36187744 154.10705566 C39.80193721 157.30150838 38.22247666 160.48628812 36.64453125 163.671875 C36.33143005 164.30510681 36.01832886 164.93833862 35.69573975 165.59075928 C33.08714918 170.8549405 30.38527586 176.06411043 27.625 181.25 C24.01659535 188.04182104 20.51614105 194.8758256 17.10116577 201.76693726 C15.16346646 205.67390937 13.21513508 209.5754752 11.26318359 213.4753418 C8.51830556 218.9622842 5.77600622 224.45049972 3.03759766 229.94067383 C-0.24975264 236.53133498 -3.53884199 243.12112543 -6.82922935 249.71027088 C-8.79770183 253.65242598 -10.76541852 257.59495463 -12.73144531 261.53833008 C-14.66459328 265.41566927 -16.59982272 269.29196357 -18.53636551 273.16760826 C-19.26008898 274.61686374 -19.98312495 276.06646281 -20.70536423 277.51645851 C-24.6821116 285.49915064 -28.73569233 293.43312863 -32.90869141 301.31518555 C-37.57917281 310.14145023 -42.08199238 319.04440085 -46.52987671 327.98458862 C-47.85878998 330.65553704 -49.19044972 333.32510192 -50.52270508 335.99438477 C-53.350772 341.66177691 -56.17564857 347.33075552 -59 353 C-62.28090293 359.585668 -65.56322583 366.17062087 -68.84896851 372.75387573 C-70.14099982 375.34427171 -71.43055882 377.93588733 -72.7199707 380.52758789 C-76.66325892 388.43831819 -80.66585625 396.3089027 -84.80859375 404.1171875 C-90.42457408 414.71250148 -95.77566313 425.43708866 -101.12261963 436.17007446 C-102.9220488 439.78193763 -104.72408463 443.3924897 -106.52685547 447.00268555 C-110.35365583 454.66725103 -114.17702957 462.33352366 -118 470 C-122.13156918 478.2853315 -126.26379586 486.57033162 -130.39997292 494.85336399 C-132.46409869 498.98728026 -134.52508171 503.1227538 -136.58544922 507.25854492 C-141.88910776 517.88951096 -147.23403065 528.48987733 -152.82468414 538.97342682 C-155.04191801 543.13582092 -157.14565128 547.32215547 -159.13671875 551.59765625 C-159.56919922 552.51998047 -160.00167969 553.44230469 -160.44726562 554.39257812 C-161.30157195 556.2316911 -162.13918568 558.07861985 -162.96289062 559.93164062 C-163.39150391 560.83205078 -163.82011719 561.73246094 -164.26171875 562.66015625 C-164.62225342 563.45043213 -164.98278809 564.24070801 -165.35424805 565.05493164 C-167.82421249 567.97411377 -170.30348964 568.19141006 -174 569 C-175.04008461 569.23604195 -175.04008461 569.23604195 -176.10118103 569.47685242 C-178.44098283 570.0017122 -180.78567248 570.4973182 -183.1328125 570.98828125 C-184.91512917 571.36592562 -186.69743678 571.74361273 -188.47973633 572.12133789 C-189.4018692 572.31583527 -190.32400208 572.51033264 -191.27407837 572.71072388 C-196.06570021 573.72214544 -200.85525144 574.74318081 -205.64453125 575.765625 C-206.51824371 575.95083206 -207.39195618 576.13603912 -208.29214478 576.32685852 C-216.04065906 577.97966976 -223.743035 579.80834551 -231.4375 581.6953125 C-240.16570634 583.78644527 -248.96354499 585.58275516 -257.74053955 587.45559692 C-268.94283949 589.85074062 -280.08007783 592.39900941 -291.17114258 595.27319336 C-292.49988403 595.6174939 -292.49988403 595.6174939 -293.85546875 595.96875 C-294.61496826 596.16919922 -295.37446777 596.36964844 -296.15698242 596.57617188 C-298 597 -298 597 -300 597 C-298.63051669 592.57069493 -296.89246024 588.5510444 -294.8046875 584.4140625 C-294.49355011 583.79461761 -294.18241272 583.17517273 -293.86184692 582.53695679 C-292.87000694 580.56437594 -291.87266624 578.59463942 -290.875 576.625 C-290.22879047 575.34263742 -289.58295448 574.06008654 -288.9375 572.77734375 C-287.66089478 570.24091557 -286.38185415 567.70573402 -285.10148621 565.17120361 C-283.49397286 561.98501902 -281.89856396 558.79304106 -280.30868244 555.598032 C-277.03974257 549.03399939 -273.72836178 542.49311801 -270.3762207 535.97119141 C-258.66586735 513.18320147 -247.11559296 490.31921399 -235.66796875 467.3984375 C-235.13680568 466.33504827 -235.13680568 466.33504827 -234.59491205 465.25017643 C-229.12223868 454.29354832 -223.65446014 443.33447961 -218.1875 432.375 C-213.38068104 422.73905604 -208.57310097 413.10349467 -203.76164228 403.46986639 C-202.03224222 400.00697112 -200.30366912 396.54366887 -198.57723045 393.07929611 C-192.30373315 380.49083975 -186.0208471 367.91366494 -179.42467022 355.49005699 C-175.63190933 348.34001211 -171.99900719 341.11458082 -168.39610291 333.86737061 C-167.23524048 331.53245829 -166.07158583 329.19895393 -164.90734863 326.86572266 C-162.43591826 321.91163342 -159.96768921 316.95595359 -157.5 312 C-154.24211613 305.45706859 -150.98272479 298.91489544 -147.71875 292.375 C-147.3254248 291.58682892 -146.93209961 290.79865784 -146.52685547 289.98660278 C-142.00068188 280.92287447 -137.42738389 271.89400349 -132.65686035 262.95581055 C-128.92154285 255.92711167 -125.36510853 248.80969825 -121.8125 241.6875 C-121.49560715 241.05227417 -121.17871429 240.41704834 -120.85221863 239.76257324 C-118.56528954 235.17646943 -116.28224958 230.58843392 -114 226 C-111.39841432 220.7695449 -108.79525816 215.5398809 -106.1875 210.3125 C-105.87068771 209.67735474 -105.55387543 209.04220947 -105.22746277 208.38781738 C-101.18317998 200.28667238 -97.05654366 192.23724378 -92.8013916 184.24487305 C-89.1000318 177.26076185 -85.55893444 170.19789587 -82.03125 163.125 C-81.72566162 162.51238312 -81.42007324 161.89976624 -81.10522461 161.26858521 C-78.90062181 156.84714629 -76.69991074 152.42377491 -74.5 148 C-71.9921733 142.95704048 -69.48275949 137.91488064 -66.96875 132.875 C-66.51163635 131.95849167 -66.51163635 131.95849167 -66.04528809 131.02346802 C-61.99081991 122.90142047 -57.84988394 114.83420756 -53.58850098 106.8190918 C-48.54337273 97.30506478 -43.78752445 87.64540441 -39 78 C-33.28965022 66.49538347 -27.53503468 55.02645673 -21.52182007 43.67666626 C-17.78833671 36.62509225 -14.18356721 29.51645265 -10.625 22.375 C-10.03589844 21.20066406 -9.44679688 20.02632813 -8.83984375 18.81640625 C-8.26621094 17.66785156 -7.69257813 16.51929688 -7.1015625 15.3359375 C-6.59963379 14.33095215 -6.09770508 13.3259668 -5.58056641 12.29052734 C-3.63242974 8.23476799 -1.82737129 4.11158541 0 0 Z " fill="#FDFDFD" transform="translate(469,272)"/>
<path d="M0 0 C145.86 0 291.72 0 442 0 C432.91891892 18.16216216 432.91891892 18.16216216 428.51171875 26.33203125 C426.01390673 31.00022674 423.63620942 35.72331018 421.28125 40.46484375 C416.99841428 49.07492277 412.51654477 57.57328253 408 66.0625 C407.23680817 67.50056031 406.47378711 68.93871125 405.7109375 70.37695312 C400.82087754 79.59189576 395.90921505 88.79522178 391 98 C356.68 98 322.36 98 287 98 C287 255.41 287 412.82 287 575 C264.29079809 570.45815962 264.29079809 570.45815962 255.375 568.125 C247.08324526 566.00814241 238.77782298 563.9794265 230.4375 562.0625 C229.38876709 561.82136475 228.34003418 561.58022949 227.25952148 561.33178711 C221.73782955 560.06830356 216.21249375 558.82177542 210.6839447 557.58869934 C208.51769472 557.10550937 206.35172335 556.62108624 204.18579102 556.13647461 C201.38776495 555.51044613 198.5886502 554.88962503 195.78881836 554.27172852 C194.52690674 553.98998779 193.26499512 553.70824707 191.96484375 553.41796875 C190.8368335 553.16813232 189.70882324 552.9182959 188.54663086 552.66088867 C186 552 186 552 185 551 C184.90123381 548.59137385 184.86821236 546.21142874 184.87695217 543.80228329 C184.87579833 543.03629616 184.87464448 542.27030904 184.87345567 541.48111019 C184.87078182 538.88142353 184.87531744 536.28179724 184.87974548 533.68211365 C184.87930994 531.81271588 184.87843534 529.94331817 184.87715632 528.07392079 C184.87490807 522.91125948 184.87893711 517.74861871 184.88393438 512.58596003 C184.888234 507.02832514 184.8867928 501.4706915 184.8860321 495.91305542 C184.88550656 486.27553976 184.88865655 476.63803085 184.89426994 467.00051689 C184.90238081 453.06611479 184.90499974 439.13171597 184.90625793 425.19731177 C184.90844911 402.59223252 184.9151024 379.98715716 184.92456055 357.38208008 C184.93374023 335.41723652 184.94082617 313.45239392 184.94506836 291.48754883 C184.94519989 290.81087303 184.94533141 290.13419722 184.94546692 289.4370161 C184.94678541 282.64175556 184.94806123 275.84649501 184.94930578 269.05123446 C184.95975249 212.03415308 184.97823303 155.01707841 185 98 C140.78 98 96.56 98 51 98 C45.39 87.11 39.78 76.22 34 65 C29.53681583 56.80019071 29.53681583 56.80019071 25.04296875 48.6171875 C20.64708687 40.57841522 16.49674499 32.40813638 12.33740234 24.24511719 C8.86049756 17.45782061 5.22935218 10.8538501 1.27856445 4.33251953 C0 2 0 2 0 0 Z " fill="#01935C" transform="translate(629,272)"/>
<path d="M0 0 C413.82 0 827.64 0 1254 0 C1254 413.82 1254 827.64 1254 1254 C840.18 1254 426.36 1254 0 1254 C0 840.18 0 426.36 0 0 Z M207.375 11.25 C205.53276855 11.70451538 205.53276855 11.70451538 203.65332031 12.16821289 C186.39587817 16.52989731 170.05661518 22.33779211 154 30 C153.31067383 30.32613281 152.62134766 30.65226562 151.91113281 30.98828125 C136.65438374 38.25133297 122.51807293 46.87098657 109 57 C108.42926758 57.42506836 107.85853516 57.85013672 107.27050781 58.28808594 C97.57100859 65.55860735 88.72082296 73.59203167 80 82 C79.13246094 82.82628906 78.26492187 83.65257813 77.37109375 84.50390625 C71.75824939 89.96056712 66.81805557 95.83629168 62 102 C61.55285645 102.56541504 61.10571289 103.13083008 60.64501953 103.71337891 C37.337052 133.31041697 21.42420123 166.61231284 12 203 C11.80422363 203.73718262 11.60844727 204.47436523 11.40673828 205.23388672 C5.21899227 228.88782934 4.54426001 253.24021264 4.61459734 277.55399241 C4.62234796 281.41666201 4.61237334 285.27929836 4.60486734 289.14196295 C4.59412862 295.88281327 4.59430081 302.62359126 4.60200882 309.36444473 C4.61343996 319.38891679 4.60751205 329.41332876 4.5983839 339.43780051 C4.58264854 357.34977103 4.58393103 375.26170929 4.59262064 393.17368281 C4.60018712 408.84875236 4.6021282 424.52381014 4.5985527 440.19888115 C4.59832355 441.2413301 4.59809439 442.28377905 4.59785829 443.35781737 C4.59692418 447.59015179 4.59596897 451.8224862 4.594979 456.0548206 C4.58581592 495.70248517 4.5941004 535.35012929 4.61026969 574.9977907 C4.62450601 610.17309864 4.62323013 645.34837399 4.60888672 680.52368164 C4.59280101 720.10342087 4.58646489 759.68314204 4.59572351 799.26288408 C4.59668557 803.48690092 4.5976241 807.71091777 4.5985527 811.93493462 C4.59878994 812.97488787 4.59902717 814.01484113 4.59927159 815.08630812 C4.6026749 830.74693136 4.59871023 846.40754149 4.59111404 862.06816292 C4.58251448 879.88551673 4.58472711 897.70283345 4.60095628 915.52018268 C4.60972632 925.47514349 4.61039667 935.43002383 4.59901775 945.38498245 C4.59224064 952.05291454 4.59656643 958.72078275 4.60953206 965.38870545 C4.61659829 969.17536393 4.61925797 972.96186378 4.60831411 976.74851669 C4.42206352 1046.47701485 24.61185791 1113.40846174 73 1165 C74.23578542 1166.41089671 75.46554841 1167.82710526 76.6875 1169.25 C82.32806712 1175.70197121 88.35792197 1181.24120146 95.05859375 1186.59375 C97.36151842 1188.47768307 99.57497841 1190.40266937 101.7890625 1192.38671875 C105.95183631 1196.04454216 110.34882416 1199.2135671 114.9375 1202.3125 C115.76668945 1202.87372559 116.59587891 1203.43495117 117.45019531 1204.01318359 C138.18429524 1217.9136467 160.27809034 1229.13333767 184 1237 C184.67595215 1237.22880859 185.3519043 1237.45761719 186.04833984 1237.69335938 C195.15132181 1240.73288628 204.4031918 1242.82422975 213.8125 1244.6875 C215.32179077 1244.99131592 215.32179077 1244.99131592 216.86157227 1245.30126953 C236.41011188 1248.99851679 255.91919111 1249.2933081 275.75394131 1249.25073375 C279.62325247 1249.24468865 283.49255078 1249.25041348 287.361862 1249.25455457 C294.12496325 1249.26020708 300.88803079 1249.25852137 307.65113068 1249.2518692 C317.70832409 1249.24200449 327.76549309 1249.243696 337.8226894 1249.2476195 C354.74950124 1249.25387975 371.67629911 1249.25073998 388.60310936 1249.24202538 C405.36380327 1249.23339835 422.12449091 1249.22850551 438.88518715 1249.22869301 C439.9294234 1249.22870065 440.97365965 1249.2287083 442.04953943 1249.22871618 C446.2887742 1249.22875709 450.52800898 1249.2288227 454.76724375 1249.22892199 C494.50272214 1249.22982727 534.23819099 1249.21989524 573.97366607 1249.20449232 C609.25515051 1249.19086632 644.53662818 1249.18463121 679.81811523 1249.18530273 C682.08407719 1249.18534315 684.35003914 1249.18538351 686.61600109 1249.18542381 C687.73626537 1249.18544416 688.85652964 1249.18546452 690.01074132 1249.18548548 C695.6503376 1249.18558628 701.28993387 1249.18567686 706.92953014 1249.18575573 C708.04220585 1249.18577244 709.15488155 1249.18578916 710.3012747 1249.18580638 C739.80917971 1249.18617176 769.31708388 1249.18163072 798.82498819 1249.17542917 C800.3999662 1249.17509876 800.3999662 1249.17509876 802.00676196 1249.17476168 C806.22870132 1249.17387348 810.45064068 1249.17298507 814.67258004 1249.17207072 C829.34358371 1249.16891461 844.0145867 1249.16740196 858.68559069 1249.16695923 C877.59209735 1249.16636148 896.49859842 1249.16235394 915.40510269 1249.15252777 C925.39744341 1249.14742372 935.38977594 1249.14499975 945.3821179 1249.14652396 C952.06372296 1249.14726086 958.74532009 1249.14433632 965.42692261 1249.13848015 C969.22885846 1249.13524504 973.03077721 1249.13352593 976.83271386 1249.13624074 C1005.66050458 1249.18494406 1005.66050458 1249.18494406 1034.25 1245.8125 C1036.1208728 1245.48149292 1036.1208728 1245.48149292 1038.02954102 1245.14379883 C1048.93361452 1243.14080979 1059.4805087 1240.48764858 1070 1237 C1070.88703613 1236.70754395 1071.77407227 1236.41508789 1072.68798828 1236.11376953 C1119.38483483 1220.4708642 1162.87366313 1191.31545121 1193 1152 C1193.77085938 1151.04609375 1194.54171875 1150.0921875 1195.3359375 1149.109375 C1220.85762982 1117.06636698 1236.86664678 1078.82161258 1244.8125 1038.8125 C1245.00755127 1037.84127197 1245.20260254 1036.87004395 1245.40356445 1035.86938477 C1249.08712307 1016.0704603 1249.29525219 996.17347382 1249.25693511 976.10125601 C1249.2517979 972.22839496 1249.25840642 968.35554924 1249.26342177 964.48269045 C1249.27060186 957.71485176 1249.27045289 950.94704505 1249.26532745 944.17920494 C1249.25772642 934.11487204 1249.26164858 924.05056585 1249.26774407 913.9862331 C1249.2782492 896.00633532 1249.27737335 878.02645179 1249.27158624 860.04655267 C1249.26654722 844.31291047 1249.26524542 828.57927349 1249.26763153 812.84563065 C1249.2677843 811.80036704 1249.26793707 810.75510343 1249.26809447 809.67816516 C1249.26871719 805.43469723 1249.26935399 801.1912293 1249.270014 796.94776138 C1249.27612621 757.17538128 1249.2705941 717.40301025 1249.2598202 677.63063155 C1249.25032824 642.32210889 1249.25118009 607.01360066 1249.26074219 571.70507812 C1249.27145894 532.00056697 1249.27569406 492.29606382 1249.26951766 452.59155142 C1249.26887626 448.35661356 1249.26825058 444.12167569 1249.26763153 439.88673782 C1249.26747338 438.84405045 1249.26731522 437.80136309 1249.26715227 436.72707913 C1249.26488056 421.00482195 1249.26753182 405.28257056 1249.27259064 389.56031418 C1249.27831562 371.67894232 1249.27686562 353.79758689 1249.26602915 335.91621707 C1249.26016913 325.91761655 1249.25975507 315.91905164 1249.2673215 305.92045206 C1249.27182329 299.23215627 1249.26898453 292.5438889 1249.26031196 285.8555973 C1249.25557903 282.05148344 1249.25387586 278.24744006 1249.26112393 274.44332854 C1249.28809257 259.17794587 1249.10343841 244.14044086 1247 229 C1246.84570534 227.84766794 1246.69141068 226.69533587 1246.53244042 225.50808465 C1239.65428533 175.65104364 1217.29679906 128.01484377 1182.96875 91.125 C1180.35051525 88.29896884 1177.88070524 85.35375143 1175.41015625 82.3984375 C1174.09431517 80.76528324 1174.09431517 80.76528324 1172 81 C1172 80.34 1172 79.68 1172 79 C1170.51953208 77.46323484 1170.51953208 77.46323484 1168.5625 75.875 C1165.59651387 73.36013414 1162.68429333 70.80934095 1159.8125 68.1875 C1121.83031707 34.49048643 1072.30474825 12.83342759 1022 7 C1021.22769416 6.90937341 1020.45538833 6.81874681 1019.65967929 6.72537396 C1003.59055023 4.89866043 987.59174322 4.70935025 971.43773743 4.73686353 C967.63180876 4.74109287 963.82589819 4.73359901 960.01997417 4.72771102 C953.37084994 4.7190063 946.72175652 4.71761632 940.07262802 4.72121429 C930.18419158 4.72655081 920.29578466 4.72039647 910.40735143 4.71213136 C891.71271709 4.69693387 873.01809635 4.69518197 854.32345713 4.69765439 C839.87964234 4.69949105 825.43583198 4.69771963 810.99201775 4.69342995 C808.91273664 4.69282753 806.83345553 4.69222633 804.75417442 4.69162634 C801.62040074 4.69071903 798.48662707 4.68981036 795.35285339 4.68889399 C766.23534252 4.68047062 737.11783331 4.67612444 708.00032139 4.68030071 C706.35560194 4.68053528 706.35560194 4.68053528 704.67765584 4.68077458 C699.1209951 4.68158029 693.56433436 4.68242606 688.00767363 4.68328788 C686.90421923 4.68345897 685.80076483 4.68363006 684.66387243 4.68380633 C682.43242129 4.68415299 680.20097015 4.68450152 677.96951901 4.68485192 C643.26490692 4.69020652 608.56032025 4.68228358 573.85571289 4.66381836 C534.81066546 4.64306777 495.76563377 4.63238158 456.72058052 4.63639385 C452.55116173 4.63678915 448.38174294 4.63715071 444.21232414 4.63749123 C442.67254844 4.63762732 442.67254844 4.63762732 441.10166615 4.63776617 C425.65488893 4.63892857 410.20812768 4.6323111 394.76135445 4.62167931 C377.17642084 4.60958774 359.59152227 4.60811359 342.00658811 4.62046947 C332.18600864 4.62706237 322.36551312 4.62555027 312.5449405 4.61188096 C305.96002798 4.60356198 299.37517754 4.60642922 292.79026995 4.61785623 C289.05503747 4.62404002 285.31996722 4.62590689 281.58474488 4.61399289 C256.89759678 4.54064526 231.41204171 5.03088674 207.375 11.25 Z " fill="#000000" transform="translate(0,0)"/>
<path d="M0 0 C1.25425781 0.39703125 2.50851562 0.7940625 3.80078125 1.203125 C37.1546398 12.3861113 66.00023141 38.88417097 82 70 C83.46426588 72.95467937 84.74762393 75.95032087 86 79 C86.69222656 80.54300781 86.69222656 80.54300781 87.3984375 82.1171875 C101.80105148 115.52832755 102.10560344 154.88192169 88.91113281 188.74316406 C78.36527858 214.86478156 63.3984569 238.17846149 48.05639648 261.70996094 C43.94873756 268.02990164 39.99497254 274.44145185 36.04199219 280.85888672 C32.1229904 287.21144363 28.14283705 293.52204391 24.125 299.8125 C19.16567835 307.57792673 14.25178347 315.36996447 9.375 323.1875 C-2.28620579 341.87580706 -14.10024944 360.46265322 -26 379 C-26.55171875 379.86061035 -27.1034375 380.7212207 -27.671875 381.60791016 C-32.95967162 389.85173197 -38.27586403 398.0487258 -44 406 C-46.67507214 402.74108999 -49.09652997 399.44065504 -51.36328125 395.88671875 C-51.99508301 394.89841064 -52.62688477 393.91010254 -53.27783203 392.8918457 C-54.28499268 391.30569458 -54.28499268 391.30569458 -55.3125 389.6875 C-56.36993408 388.02883911 -56.36993408 388.02883911 -57.44873047 386.33666992 C-62.84562596 377.8624102 -68.17733321 369.34773243 -73.48901367 360.81982422 C-77.66134172 354.12498693 -81.8785236 347.46051741 -86.125 340.8125 C-90.63984311 333.74235919 -95.09839585 326.64118072 -99.5 319.5 C-106.2238448 308.5962753 -113.09673533 297.79078731 -120 287 C-120.63309082 286.00983887 -121.26618164 285.01967773 -121.91845703 283.99951172 C-127.97542362 274.52710993 -134.03502315 265.05641315 -140.11328125 255.59765625 C-170.65378976 208.04442952 -170.65378976 208.04442952 -176.11328125 193.34375 C-176.8145299 191.49022935 -177.61342315 189.67367968 -178.4453125 187.875 C-180.44277545 183.24053826 -181.48090428 178.41452976 -182.5625 173.5 C-182.77865967 172.52313232 -182.99481934 171.54626465 -183.2175293 170.53979492 C-191.69574854 131.36713265 -185.18205315 92.19375461 -163.52539062 58.27539062 C-149.07295475 36.71701957 -129.901598 20.00743506 -107 8 C-105.989375 7.46761719 -104.97875 6.93523438 -103.9375 6.38671875 C-71.65509587 -9.54860063 -34.04377861 -11.03305589 0 0 Z " fill="#01905A" transform="translate(674,527)"/>
<path d="M0 0 C1.02609375 0.38542969 2.0521875 0.77085937 3.109375 1.16796875 C6.12614471 2.35094063 9.06145062 3.63510002 12 5 C13.35351562 5.62648438 13.35351562 5.62648438 14.734375 6.265625 C36.83498202 17.3798031 52.12081076 38.52727901 60.22265625 61.4609375 C67.93916585 85.63380271 64.57176117 110.85647766 53.3359375 133.328125 C49.5381357 140.09133369 45.11271263 146.17478128 40 152 C39.34644531 152.74894531 38.69289063 153.49789062 38.01953125 154.26953125 C22.61080688 170.77681383 0.85449846 180.42187586 -21.53515625 181.3125 C-50.01462954 182.00608173 -73.65074658 175.8070269 -95 156 C-114.27359503 136.63946648 -122.48714098 112.57341394 -122.50195312 85.56347656 C-122.04642635 60.10229046 -110.40941027 39.01518059 -93.3125 20.8125 C-69.75280251 -1.82833254 -31.0322767 -12.73650929 0 0 Z " fill="#011125" transform="translate(659,575)"/>
<path d="M0 0 C2.72169903 -0.27755687 4.74809716 -0.33483747 7.39892578 0.36083984 C10.41901241 3.11610324 12.19382111 6.42693604 14.14892578 9.98583984 C15.33926656 12.00209425 16.53070596 14.01770039 17.72314453 16.03271484 C18.62492432 17.59795898 18.62492432 17.59795898 19.54492188 19.19482422 C22.53617734 24.30288332 25.75514526 29.26107657 28.96142578 34.23583984 C30.61140688 36.82155473 32.25741472 39.40969822 33.89941406 42.00048828 C34.89668377 43.57027068 35.90025047 45.13607085 36.91015625 46.69775391 C37.36922363 47.41415039 37.82829102 48.13054688 38.30126953 48.86865234 C38.70724365 49.49658691 39.11321777 50.12452148 39.53149414 50.77148438 C40.39892578 52.36083984 40.39892578 52.36083984 40.39892578 54.36083984 C39.11655029 54.38065918 37.8341748 54.40047852 36.51293945 54.42089844 C4.64887295 54.88229745 4.64887295 54.88229745 -27.14794922 56.83349609 C-33.23438068 57.35776348 -39.32567258 57.69058696 -45.42553711 58.01098633 C-75.16963119 59.57619331 -104.79497225 62.36181836 -134.24072266 66.86523438 C-139.04833639 67.57429104 -143.86674852 68.19000715 -148.68652344 68.81005859 C-171.07149756 71.69434852 -193.30141853 75.34305413 -215.40332031 79.91552734 C-219.02366204 80.64908692 -222.65589605 81.31658366 -226.28857422 81.98583984 C-235.5312572 82.92961799 -235.5312572 82.92961799 -243.60107422 86.36083984 C-245.11489197 86.66847685 -246.63808755 86.93008042 -248.16357422 87.17333984 C-252.83768805 87.9827119 -257.40645649 89.01990368 -262.00341797 90.18896484 C-263.42383397 90.54839434 -264.84432774 90.90751662 -266.26489258 91.26635742 C-267.34503128 91.53979477 -267.34503128 91.53979477 -268.44699097 91.8187561 C-271.82797034 92.6695932 -275.21462889 93.49692819 -278.60107422 94.32568359 C-296.95413882 98.8062841 -296.95413882 98.8062841 -315.04638672 104.22412109 C-319.11755958 105.52600165 -323.22311736 106.63129409 -327.35107422 107.73583984 C-334.87222406 109.76630478 -342.20053908 112.21450264 -349.52587891 114.86230469 C-354.46287558 116.64334721 -359.41779593 118.24454706 -364.46069336 119.70117188 C-366.76605625 120.3713864 -366.76605625 120.3713864 -369.53857422 121.61083984 C-371.60107422 122.36083984 -371.60107422 122.36083984 -374.60107422 121.36083984 C-357.64485581 108.77162148 -340.13618867 97.47474933 -321.60107422 87.36083984 C-320.65973633 86.84312012 -319.71839844 86.32540039 -318.74853516 85.79199219 C-315.59810697 84.05960485 -312.44397732 82.33414745 -309.28857422 80.61083984 C-308.29833252 80.06758057 -307.30809082 79.52432129 -306.2878418 78.96459961 C-297.60248502 74.24894601 -288.69264639 70.22403185 -279.60107422 66.36083984 C-277.47181064 65.43588073 -275.34295167 64.50999 -273.21435547 63.58349609 C-271.39946159 62.79779787 -269.58456044 62.01211606 -267.76928711 61.22729492 C-265.93375657 60.43208349 -264.10040869 59.63184016 -262.26708984 58.83154297 C-255.67588757 55.98639407 -249.10421291 53.40220737 -242.25390625 51.24853516 C-239.48290749 50.32129869 -236.83865037 49.22178859 -234.16357422 48.04833984 C-221.01419831 42.46200367 -207.22147816 38.37269687 -193.43579102 34.6809082 C-190.23798826 33.81630116 -187.05247561 32.91897508 -183.87329102 31.98828125 C-171.46929412 28.35772829 -159.00992619 25.18538818 -146.41357422 22.29833984 C-145.48550964 22.08395264 -144.55744507 21.86956543 -143.60125732 21.64868164 C-125.25638908 17.4144335 -106.89258836 13.51084515 -88.24902344 10.82568359 C-85.6347784 10.49678667 -85.6347784 10.49678667 -83.60107422 9.36083984 C-82.13135279 9.11189558 -80.65383786 8.90812736 -79.17407227 8.72827148 C-77.79574471 8.55788109 -77.79574471 8.55788109 -76.38957214 8.38404846 C-75.39073502 8.26424118 -74.39189789 8.1444339 -73.36279297 8.02099609 C-72.33104446 7.89397812 -71.29929596 7.76696014 -70.23628235 7.63609314 C-66.92079628 7.22835269 -63.60474014 6.8255106 -60.28857422 6.42333984 C-55.9588368 5.89589968 -51.62942272 5.36590048 -47.30029297 4.83349609 C-45.73809273 4.64207031 -45.73809273 4.64207031 -44.14433289 4.44677734 C-38.81072676 3.78597138 -33.50021332 3.06640539 -28.19482422 2.20849609 C-22.9325952 1.36413576 -17.7362511 0.94171292 -12.41357422 0.73583984 C-11.60210938 0.69716797 -10.79064453 0.65849609 -9.95458984 0.61865234 C-8.32562217 0.54619628 -6.69567233 0.49304402 -5.06542969 0.45996094 C-2.57092255 0.39973439 -2.57092255 0.39973439 0 0 Z " fill="#FBFBFB" transform="translate(544.60107421875,843.63916015625)"/>
<path d="M0 0 C3.77375232 0.28545326 7.51460076 0.88658349 11.26171875 1.41015625 C19.68696887 2.55673872 28.13740784 3.37793723 36.60046387 4.18847656 C57.98506085 6.24691934 79.16138392 8.50612802 100.19628906 12.97509766 C104.54104215 13.89054446 108.89582145 14.7557115 113.25 15.625 C114.09481934 15.79507568 114.93963867 15.96515137 115.81005859 16.14038086 C120.03180603 16.98699694 124.25376907 17.78391964 128.5 18.5 C133.99904275 19.47646554 139.3515951 20.95710401 144.734375 22.4296875 C148.68459596 23.50826617 152.65096266 24.51328887 156.625 25.5 C157.29208984 25.66628906 157.95917969 25.83257813 158.64648438 26.00390625 C161.93402348 26.82182823 165.22353743 27.63018052 168.515625 28.4296875 C183.47498592 32.09382246 198.2974236 36.22754793 212.87109375 41.21875 C216.52054209 42.4614459 220.20015333 43.59598218 223.88427734 44.73095703 C230.96487093 46.91718226 237.87762618 49.20192339 244.65625 52.2265625 C247.30037621 53.3373681 249.94296934 54.31479482 252.64453125 55.2734375 C259.50305608 57.74702272 266.19004917 60.59508345 272.875 63.5 C273.52712463 63.78312042 274.17924927 64.06624084 274.85113525 64.35794067 C307.15515166 78.4251222 337.07530602 95.82976375 365.8125 116.1875 C366.65578857 116.78449707 366.65578857 116.78449707 367.51611328 117.39355469 C370.11357811 119.26229313 372.51697124 121.14235669 374.6875 123.5 C370.14228334 122.87831383 366.11487654 121.70605151 361.8125 120.125 C360.08386719 119.49464844 360.08386719 119.49464844 358.3203125 118.8515625 C355.86272107 117.93723279 353.41097175 117.00706989 350.96484375 116.0625 C341.06388249 112.34963953 330.80595284 109.55036681 320.6875 106.5 C319.5226709 106.14631348 318.3578418 105.79262695 317.15771484 105.42822266 C284.97791629 95.69529509 252.35828694 87.54602411 219.37304688 81.04858398 C218.23480972 80.82433243 218.23480972 80.82433243 217.07357788 80.59555054 C215.60771009 80.30675851 214.14174991 80.01843494 212.6756897 79.73062134 C208.48505813 78.89636362 204.34675519 77.94298995 200.2109375 76.87109375 C195.1020295 75.55235578 190.04294736 74.71933728 184.8125 74.0625 C177.57802531 73.09526171 170.41830812 71.93420919 163.25 70.5625 C150.53590666 68.15275341 137.72009891 66.5435135 124.88696289 64.91723633 C122.60653792 64.61985012 120.32896992 64.30020006 118.05371094 63.96557617 C115.46567594 63.60762848 112.96048801 63.33780764 110.35546875 63.21875 C109.62005859 63.18136719 108.88464844 63.14398437 108.12695312 63.10546875 C106.60616226 63.03424351 105.08532733 62.96395408 103.56445312 62.89453125 C97.89508929 62.60379464 97.89508929 62.60379464 95.6875 61.5 C93.26475148 61.23642004 90.85926212 61.02535634 88.4296875 60.8515625 C87.67609955 60.79450134 86.9225116 60.73744019 86.14608765 60.6786499 C83.61856801 60.48909312 81.09060899 60.30651881 78.5625 60.125 C77.68315796 60.06096985 76.80381592 59.9969397 75.89782715 59.93096924 C70.15754277 59.51344956 64.41649402 59.10771839 58.67492676 58.70825195 C55.71641945 58.50201596 52.75811044 58.29308925 49.79980469 58.08398438 C21.09850432 56.06884869 -7.54328149 54.88790439 -36.3125 54.5 C-34.9643016 50.86222387 -33.3264723 47.70839942 -31.2578125 44.4296875 C-30.64848877 43.45950684 -30.03916504 42.48932617 -29.41137695 41.48974609 C-28.75999756 40.46187988 -28.10861816 39.43401367 -27.4375 38.375 C-26.77000732 37.31490723 -26.10251465 36.25481445 -25.41479492 35.16259766 C-24.04608915 32.99006433 -22.67556137 30.81867781 -21.30322266 28.6484375 C-19.46232656 25.73695896 -17.62655299 22.82233699 -15.79296875 19.90625 C-10.22992517 11.06847149 -10.22992517 11.06847149 -8.51293945 8.38769531 C-7.73040064 7.15715025 -6.96246782 5.91715644 -6.21166992 4.66699219 C-3.6730876 0.55442832 -3.6730876 0.55442832 0 0 Z " fill="#FBFBFB" transform="translate(710.3125,842.5)"/>
<path d="M0 0 C12.62029835 9.36961544 21.15350222 23.74432556 23.453125 39.2890625 C24.89607843 56.55431393 20.75133642 70.33422944 10.28125 84.15625 C0.81353179 95.20192124 -11.63692589 102.9789257 -26.29003906 104.59082031 C-36.44824841 105.21204323 -47.03421183 105.28502815 -56.546875 101.2890625 C-57.36671875 100.96035156 -58.1865625 100.63164063 -59.03125 100.29296875 C-74.14910007 93.50871616 -82.99523856 82.03507608 -89.546875 67.2890625 C-89.89105469 66.52207031 -90.23523438 65.75507812 -90.58984375 64.96484375 C-95.67982216 51.27208493 -93.15492591 35.35553644 -87.546875 22.2890625 C-80.08820945 7.33387015 -66.92862915 -3.65579309 -51.234375 -9.2109375 C-33.84234343 -13.89340754 -14.81931046 -9.95530365 0 0 Z " fill="#FCFCFC" transform="translate(664.546875,616.7109375)"/>
<path d="M0 0 C3.08549803 1.39190245 5.37046979 3.04434111 7.875 5.3125 C10.36775127 7.55317529 12.87803753 9.72487111 15.5 11.8125 C16.325 12.534375 17.15 13.25625 18 14 C18 14.66 18 15.32 18 16 C18.54011719 16.20496094 19.08023437 16.40992187 19.63671875 16.62109375 C22.94215322 18.54971915 25.2778702 21.24682213 27.8125 24.0625 C28.34004883 24.64088623 28.86759766 25.21927246 29.41113281 25.81518555 C33.51727746 30.36001548 37.37506265 35.06038467 41 40 C40.505 40.99 40.505 40.99 40 42 C39.30519531 41.16082031 38.61039063 40.32164063 37.89453125 39.45703125 C30.9744845 31.22935998 23.66736884 23.47457435 16.0625 15.875 C15.16313721 14.97499268 14.26377441 14.07498535 13.3371582 13.14770508 C8.01548389 7.86966146 8.01548389 7.86966146 2.37109375 2.9453125 C1.58863281 2.30335937 0.80617188 1.66140625 0 1 C0 0.67 0 0.34 0 0 Z " fill="#09192B" transform="translate(1154,65)"/>
<path d="M0 0 C-0.33 0.66 -0.66 1.32 -1 2 C-15.46238447 4.57649202 -31.35255764 3.09239047 -46 3 C-46 2.67 -46 2.34 -46 2 C-30.6315942 0.63649821 -15.43104801 -0.31349759 0 0 Z " fill="#31353F" transform="translate(510,901)"/>
<path d="M0 0 C0.66 0.33 1.32 0.66 2 1 C0.16776668 2.68870838 -1.66547797 4.37628011 -3.5 6.0625 C-4.04954346 6.56765137 -4.59908691 7.07280273 -5.1652832 7.59326172 C-8.13574311 10.31614704 -11.12898321 13.00075537 -14.1875 15.625 C-20.8431905 21.41075585 -26.92297371 27.71673463 -32.58984375 34.46875 C-34 36 -34 36 -36 37 C-34.39636334 33.15491666 -31.81297153 30.37199319 -29 27.375 C-28.51015625 26.84865967 -28.0203125 26.32231934 -27.515625 25.7800293 C-20.16003996 17.91851082 -12.68833524 10.52481212 -4.25 3.8125 C-1.97339104 2.04477317 -1.97339104 2.04477317 0 0 Z " fill="#09192D" transform="translate(102,62)"/>
<path d="M0 0 C0.99 0 1.98 0 3 0 C1.76490746 4.0853061 0.23899954 7.38315459 -2 11 C-2.96468926 13.06947862 -3.91732332 15.14181859 -4.83984375 17.23046875 C-6.26123948 19.39845618 -7.63076564 20.03548914 -10 21 C-8.27502493 16.3970402 -6.0904129 12.06744176 -3.875 7.6875 C-3.50246094 6.94693359 -3.12992187 6.20636719 -2.74609375 5.44335938 C-1.83255194 3.62798783 -0.91652513 1.81386718 0 0 Z " fill="#1B2232" transform="translate(502,441)"/>
<path d="M0 0 C0 0.33 0 0.66 0 1 C-3.63 1.66 -7.26 2.32 -11 3 C-11 3.33 -11 3.66 -11 4 C-13.60275329 4.3893647 -16.20606349 4.76193662 -18.8125 5.125 C-19.55048828 5.23714844 -20.28847656 5.34929688 -21.04882812 5.46484375 C-26.66015625 6.2265625 -26.66015625 6.2265625 -30 4 C-26.50221037 3.32137828 -23.00147657 2.65931111 -19.5 2 C-18.51773437 1.80921875 -17.53546875 1.6184375 -16.5234375 1.421875 C-10.90985321 0.37400593 -5.7096591 -0.21751082 0 0 Z " fill="#2D303B" transform="translate(385,914)"/>
<path d="M0 0 C12.01355766 0.50750019 24.01266665 1.03855859 36 2 C36 2.33 36 2.66 36 3 C33.54203147 3.19436491 31.08390706 3.3807742 28.625 3.5625 C27.92632813 3.61857422 27.22765625 3.67464844 26.5078125 3.73242188 C21.2265625 4.11328125 21.2265625 4.11328125 19 3 C16.7927077 2.92907158 14.58332548 2.91584975 12.375 2.9375 C10.59222656 2.95103516 10.59222656 2.95103516 8.7734375 2.96484375 C7.40058594 2.98224609 7.40058594 2.98224609 6 3 C6 2.34 6 1.68 6 1 C4.02 1 2.04 1 0 1 C0 0.67 0 0.34 0 0 Z " fill="#5A5E68" transform="translate(770,901)"/>
<path d="M0 0 C0 0.99 0 1.98 0 3 C-1.93697967 3.33634376 -3.87460486 3.66897165 -5.8125 4 C-7.43091797 4.2784375 -7.43091797 4.2784375 -9.08203125 4.5625 C-12 5 -12 5 -15 5 C-15 5.66 -15 6.32 -15 7 C-17.64 7.33 -20.28 7.66 -23 8 C-16.67888675 3.7859245 -7.70381355 0 0 0 Z " fill="#232632" transform="translate(196,958)"/>
<path d="M0 0 C-0.99 0.33 -1.98 0.66 -3 1 C-2.67 1.66 -2.34 2.32 -2 3 C-10.03571429 5.27678571 -10.03571429 5.27678571 -14 4 C-14 3.34 -14 2.68 -14 2 C-12.42085985 1.46658816 -10.83645613 0.94874237 -9.25 0.4375 C-8.36828125 0.14746094 -7.4865625 -0.14257812 -6.578125 -0.44140625 C-3.92165684 -1.01697435 -2.52968894 -0.89248371 0 0 Z " fill="#262E3C" transform="translate(297,931)"/>
<path d="M0 0 C13.86 0.495 13.86 0.495 28 1 C28 1.33 28 1.66 28 2 C17.11 2.495 17.11 2.495 6 3 C6 2.67 6 2.34 6 2 C3.03 1.505 3.03 1.505 0 1 C0 0.67 0 0.34 0 0 Z " fill="#474B57" transform="translate(738,899)"/>
<path d="M0 0 C3.11198065 1.49836105 6.0534615 3.19933758 9 5 C5.69564916 6.12377697 3.9493138 5.89554742 0.75 4.5625 C0.04359375 4.27503906 -0.6628125 3.98757813 -1.390625 3.69140625 C-1.92171875 3.46324219 -2.4528125 3.23507812 -3 3 C-2.01 2.01 -1.02 1.02 0 0 Z " fill="#CCCACE" transform="translate(1076,960)"/>
<path d="M0 0 C0.66 0 1.32 0 2 0 C2.66 1.98 3.32 3.96 4 6 C3.34 6.66 2.68 7.32 2 8 C1.67 7.01 1.34 6.02 1 5 C0.01 5 -0.98 5 -2 5 C-1.34 3.35 -0.68 1.7 0 0 Z " fill="#262E3B" transform="translate(517,412)"/>
<path d="M0 0 C0 0.99 0 1.98 0 3 C-2.97 2.67 -5.94 2.34 -9 2 C-9 1.34 -9 0.68 -9 0 C-5.93109813 -1.53445094 -3.29905734 -0.54984289 0 0 Z " fill="#1B2332" transform="translate(855,862)"/>
<path d="M0 0 C0.66 0.33 1.32 0.66 2 1 C0.94958421 3.86477034 0.29875437 4.83913226 -2.4375 6.3125 C-5 7 -5 7 -8 6 C-5.36 4.02 -2.72 2.04 0 0 Z " fill="#D0D0D4" transform="translate(178,959)"/>
<path d="M0 0 C0 0.99 0 1.98 0 3 C-2.8125 3.625 -2.8125 3.625 -6 4 C-6.99 3.34 -7.98 2.68 -9 2 C-5.62902617 0.50178941 -3.79557881 0 0 0 Z " fill="#1B212E" transform="translate(206,955)"/>
<path d="M0 0 C-0.99 1.485 -0.99 1.485 -2 3 C-6.455 2.01 -6.455 2.01 -11 1 C-6.8204355 -1.78637633 -4.85331323 -0.79562512 0 0 Z " fill="#2C3546" transform="translate(886,870)"/>
<path d="M0 0 C3.55780196 0.60990891 6.6828589 1.5783681 10 3 C10 3.66 10 4.32 10 5 C6.44219804 4.39009109 3.3171411 3.4216319 0 2 C0 1.34 0 0.68 0 0 Z " fill="#2C2E3D" transform="translate(971,900)"/>
<path d="M0 0 C5.15171623 -0.09038099 9.91913204 0.15318867 15 1 C15 1.33 15 1.66 15 2 C10.545 2.495 10.545 2.495 6 3 C6 2.34 6 1.68 6 1 C4.02 1 2.04 1 0 1 C0 0.67 0 0.34 0 0 Z " fill="#333842" transform="translate(770,901)"/>
<path d="M0 0 C1.125 1.75 1.125 1.75 2 4 C1.125 6.25 1.125 6.25 0 8 C-0.99 8 -1.98 8 -3 8 C-1.125 2.25 -1.125 2.25 0 0 Z " fill="#1F2737" transform="translate(338,766)"/>
<path d="M0 0 C-1.32 0.33 -2.64 0.66 -4 1 C-4 1.66 -4 2.32 -4 3 C-7 4 -7 4 -9.1875 3.0625 C-9.785625 2.711875 -10.38375 2.36125 -11 2 C-9.54494642 1.47007308 -8.08581873 0.9513211 -6.625 0.4375 C-5.81289063 0.14746094 -5.00078125 -0.14257812 -4.1640625 -0.44140625 C-2 -1 -2 -1 0 0 Z " fill="#3B3F48" transform="translate(652,718)"/>
<path d="M0 0 C0 0.33 0 0.66 0 1 C-1.65 1 -3.3 1 -5 1 C-5 1.66 -5 2.32 -5 3 C-7.31 2.67 -9.62 2.34 -12 2 C-8.09971775 -0.60018816 -4.52565431 -0.15085514 0 0 Z " fill="#464851" transform="translate(405,911)"/>
</svg>
