<?xml version="1.0" encoding="UTF-8"?>
<svg version="1.1" xmlns="http://www.w3.org/2000/svg" viewBox="0 0 1254 1254" width="100%" height="100%">
<path d="M0 0 C413.82 0 827.64 0 1254 0 C1254 413.82 1254 827.64 1254 1254 C840.18 1254 426.36 1254 0 1254 C0 840.18 0 426.36 0 0 Z " fill="#FDFCFC" transform="translate(0,0)"/>
<path d="M0 0 C154.11 0 308.22 0 467 0 C466.28027525 3.59862376 465.84416348 5.6872984 464.31689453 8.78271484 C463.97165237 9.48980591 463.62641022 10.19689697 463.27070618 10.92541504 C462.89520126 11.67963745 462.51969635 12.43385986 462.1328125 13.2109375 C461.74244308 14.00689331 461.35207367 14.80284912 460.94987488 15.6229248 C459.68008274 18.2095262 458.40247417 20.79218535 457.125 23.375 C455.805095 26.06004049 454.48726394 28.74609271 453.16944885 31.43215942 C452.30070122 33.20241503 451.43126868 34.97233468 450.56114197 36.74191284 C447.43561753 43.0995459 444.35226599 49.4758735 441.3125 55.875 C438.23167561 62.35128095 435.12546001 68.81458208 431.9921875 75.265625 C431.63797226 75.99504303 431.28375702 76.72446106 430.91880798 77.47598267 C429.16632471 81.08373503 427.41205507 84.69060664 425.65551758 88.29638672 C425.0033873 89.6376804 424.35128646 90.9789884 423.69921875 92.3203125 C423.13033936 93.48836426 422.56145996 94.65641602 421.9753418 95.85986328 C419.26176816 101.54726678 416.64073295 107.27841194 414 113 C377.7 113 341.4 113 304 113 C304.01160156 124.97410156 304.02320313 136.94820312 304.03515625 149.28515625 C304.04106845 157.46907581 304.04671148 165.65299365 304.05078125 173.83691406 C304.05131248 174.90128016 304.05184372 175.96564626 304.05239105 177.06226587 C304.05627968 185.06234373 304.05953505 193.06242175 304.0625 201.0625 C304.0629343 202.19894518 304.06336861 203.33539036 304.06381607 204.50627327 C304.09570737 290.40292431 303.88398103 376.2978084 303.50902146 479.30044526 C303.49997093 481.7578919 303.49093366 484.21533859 303.48189783 486.67278528 C303.32820242 528.4485509 303.16771883 570.22428828 303 612 C300.64423572 611.53700634 298.28893376 611.0718405 295.93383789 610.60546875 C294.94793545 610.41204895 294.94793545 610.41204895 293.94211578 610.21472168 C288.25878727 609.0864307 282.64123487 607.73190079 277.03076172 606.28515625 C271.05559411 604.75400097 265.0710574 603.26029167 259.08723831 601.76339722 C256.32249786 601.07170458 253.55791879 600.37936815 250.79334068 599.68702698 C249.3738082 599.33154187 247.95426387 598.97610406 246.53470802 598.62071228 C242.93874918 597.72043874 239.34290978 596.81969311 235.74731445 595.91796875 C231.53108997 594.86066584 227.3144745 593.80493208 223.09765625 592.75 C222.42232471 592.58091125 221.74699318 592.41182251 221.05119705 592.23760986 C212.08166639 589.99334856 203.10215692 587.81174526 194.07983398 585.7890625 C191 585 191 585 186 583 C186 427.9 186 272.8 186 113 C143.1 113 100.2 113 56 113 C50.16084237 101.9056005 44.34901112 90.84074124 38.77734375 79.6171875 C38.14083463 78.3397317 37.50407335 77.06240152 36.86708069 75.78518677 C34.88821542 71.81628679 32.91257967 67.84578491 30.9375 63.875 C28.32417689 58.62111664 25.70919421 53.36806891 23.08984375 48.1171875 C22.77647379 47.48882303 22.46310383 46.86045856 22.14023781 46.21305275 C18.12836431 38.17504496 14.06597074 30.16902244 9.79624939 22.26425171 C7.36675826 17.76112065 5.12172875 13.18787884 2.9375 8.5625 C2.48994102 7.61608139 2.48994102 7.61608139 2.03334045 6.65054321 C0 2.2493757 0 2.2493757 0 0 Z " fill="#02A35F" transform="translate(626,249)"/>
<path d="M0 0 C1.4587374 0.00138269 1.4587374 0.00138269 2.94694424 0.00279331 C4.05898724 0.00141865 5.17103024 0.00004398 6.31677151 -0.00137234 C7.54747372 0.00222294 8.77817593 0.00581821 10.04617214 0.00952244 C11.33378948 0.00937641 12.62140682 0.00923038 13.94804287 0.00907993 C17.48920685 0.00879197 21.03033724 0.01468847 24.57149339 0.02165389 C28.26840913 0.02788766 31.96532556 0.02849125 35.66224575 0.0296793 C42.66749824 0.03279255 49.6727352 0.04100584 56.67798084 0.05102879 C64.65124801 0.06219013 72.6245159 0.06770043 80.59778893 0.07272422 C97.00368814 0.08318846 113.40957172 0.10078778 129.81545925 0.12304783 C132.4043153 5.56520533 134.9922926 11.00777958 137.5795126 16.45071507 C138.45682375 18.2960809 139.3343606 20.14133946 140.21214199 21.98648167 C147.18791955 36.6505159 154.05282249 51.35940878 160.81545925 66.12304783 C169.26887451 84.55173088 177.88302619 102.90007913 186.5547781 121.22668552 C190.340269 129.22858754 194.11042794 137.23767772 197.87795925 145.24804783 C198.53966074 146.65478657 199.20136321 148.06152486 199.86306667 149.46826267 C200.85430678 151.57563314 201.84551887 153.68301676 202.83665371 155.79043674 C205.50883837 161.47202453 208.18308008 167.15264222 210.85792446 172.83297825 C212.52314594 176.36950786 214.18774842 179.90632607 215.85085964 183.44384861 C216.50702776 184.83951942 217.16319638 186.23518999 217.8193655 187.63086033 C218.30603443 188.66607319 218.30603443 188.66607319 218.80253506 189.72219944 C220.88572529 194.15161562 222.97505926 198.57808682 225.06800747 203.00290012 C226.48128759 205.99225424 227.89154625 208.98302775 229.30126858 211.97406101 C229.97317073 213.39776654 230.64643276 214.82083114 231.321105 216.24322605 C232.24980233 218.2015389 233.17379141 220.16200614 234.09670925 222.12304783 C234.62329128 223.23679783 235.14987331 224.35054783 235.69241238 225.49804783 C236.81545925 228.12304783 236.81545925 228.12304783 236.81545925 230.12304783 C236.26760769 229.95289158 235.71975613 229.78273533 235.155303 229.60742283 C229.97809441 228.02479646 224.77996409 226.51537833 219.56545925 225.06054783 C218.425928 224.73957127 217.28639675 224.4185947 216.11233425 224.08789158 C204.91983036 221.37561482 193.66553638 220.74929052 182.19045925 220.81054783 C181.49468777 220.81203831 180.79891628 220.81352879 180.08206081 220.81506443 C168.45055484 220.85964743 157.2071125 221.68498182 145.81545925 224.12304783 C144.79838894 224.33187595 144.79838894 224.33187595 143.76077175 224.54492283 C134.33487803 226.52546081 125.32916066 229.55138056 116.2881155 232.83691502 C115.47471706 233.13243259 114.66131863 233.42795017 113.82327175 233.73242283 C113.0976907 234.00022556 112.37210964 234.2680283 111.62454128 234.54394627 C109.81545925 235.12304783 109.81545925 235.12304783 107.81545925 235.12304783 C104.96457089 230.43944553 102.79960748 225.78146065 100.81545925 220.67382908 C98.53424327 214.85494612 95.99855893 209.37805627 92.81545925 203.99414158 C91.2143375 200.99829268 90.04706893 197.84478335 88.8193655 194.68164158 C86.93672383 189.88346924 85.02102756 185.08209632 82.31545925 180.68554783 C80.44684904 177.49333872 79.19160894 174.17804228 77.8506155 170.73632908 C76.59277979 167.56088724 75.21724764 164.45011045 73.811553 161.33789158 C73.14532239 159.85650821 72.49171255 158.36938649 71.8506155 156.87695408 C69.79951688 152.12400666 67.47989406 147.63549172 64.91702175 143.13867283 C63.67643761 140.8686678 62.72308305 138.54337796 61.81545925 136.12304783 C61.48545925 135.79304783 61.15545925 135.46304783 60.81545925 135.12304783 C60.38475124 136.13987644 59.95404324 137.15670506 59.51028347 138.20434666 C57.9778358 141.77858219 56.3547714 145.3035269 54.69827175 148.82226658 C54.40525677 149.44575993 54.11224178 150.06925327 53.81034756 150.71164036 C53.18202538 152.04847367 52.5532131 153.38507671 51.92394924 154.72146702 C50.22733929 158.32532198 48.53524109 161.93129477 46.842803 165.53711033 C46.49959515 166.26815479 46.15638729 166.99919926 45.8027792 167.75239658 C35.54035379 189.6193519 25.44853034 211.56628433 15.33233547 233.50114536 C12.62160011 239.37790765 9.90687456 245.25281541 7.19045925 251.12695408 C5.6693381 254.41718569 4.14852322 257.70755868 2.62795925 260.99804783 C2.25299313 261.80943211 1.878027 262.62081638 1.49169827 263.45678806 C-3.65422148 274.59603406 -8.74997419 285.7568539 -13.80954075 296.93554783 C-19.55744562 309.63446543 -25.45144388 322.26012676 -31.40451145 334.86401463 C-39.7362698 352.50562441 -47.86673905 370.23865655 -55.98629856 387.97876072 C-59.90962015 396.54208436 -63.87492975 405.08559966 -67.84738255 413.62622166 C-71.14212753 420.71351352 -74.42490664 427.8061757 -77.6962595 434.90429783 C-78.08761585 435.7532613 -78.47897221 436.60222477 -78.88218784 437.47691441 C-80.80727007 441.65336524 -82.73123419 445.83032581 -84.65353489 450.00805759 C-88.76690713 458.93845296 -92.92446312 467.84548127 -97.1660471 476.71583652 C-99.27771492 481.14620377 -101.26374761 485.60688925 -103.18454075 490.12304783 C-103.96473496 491.8054989 -104.75561768 493.48305508 -105.55954075 495.15429783 C-105.9875095 496.04761814 -106.41547825 496.94093845 -106.85641575 497.86132908 C-107.74183242 499.70247491 -108.62724908 501.54362075 -109.51266575 503.38476658 C-111.84690439 508.25713819 -114.08342813 513.14432445 -116.18454075 518.12304783 C-119.64443216 526.10889822 -123.42417068 533.93438937 -127.20602512 541.77148533 C-127.67459934 542.74601658 -128.14317356 543.72054783 -128.625947 544.72461033 C-129.04561741 545.59424412 -129.46528782 546.46387791 -129.89767551 547.35986423 C-131.11067702 549.96444611 -132.2412299 552.59614152 -133.36506748 555.24008274 C-134.86032672 558.67585186 -136.48132303 562.05217124 -138.09079075 565.43554783 C-138.45676365 566.2080991 -138.82273655 566.98065037 -139.19979954 567.77661228 C-140.75123908 571.05152432 -142.30567112 574.32501335 -143.85983372 577.59863377 C-145.0003622 580.00211223 -146.13935706 582.40631334 -147.27829075 584.81054783 C-147.62524998 585.5399155 -147.97220921 586.26928318 -148.32968235 587.02075291 C-149.89804221 590.33184104 -151.41658172 593.64544286 -152.8224802 597.02905369 C-154.2915646 600.36615828 -154.982018 601.47557008 -158.18454075 603.12304783 C-160.80255058 603.87390561 -163.33933382 604.50527267 -165.99704075 605.06054783 C-167.54560522 605.40516581 -169.09377755 605.75155021 -170.641572 606.09961033 C-171.41323704 606.27137791 -172.18490208 606.44314548 -172.9799509 606.62011814 C-180.6200314 608.36303794 -188.15992231 610.54438287 -195.6962595 612.68554783 C-208.18282889 616.22710142 -220.69874581 619.53782969 -233.30246067 622.63794041 C-240.11904118 624.32488393 -246.85933863 626.13937939 -253.57028294 628.20288181 C-261.84344127 630.70099902 -270.25899396 632.67663569 -278.65524387 634.71289158 C-279.81475559 634.99648533 -280.97426731 635.28007908 -282.16891575 635.57226658 C-283.20757786 635.82323093 -284.24623997 636.07419529 -285.31637669 636.33276463 C-288.18428399 637.05792383 -288.18428399 637.05792383 -290.81051731 638.21997166 C-293.18454075 639.12304783 -293.18454075 639.12304783 -297.18454075 639.12304783 C-294.85365466 631.37531378 -291.52051502 624.36315012 -287.93454075 617.12304783 C-286.65694135 614.51631971 -285.38616928 611.90631569 -284.1181345 609.29492283 C-283.79153339 608.62233433 -283.46493229 607.94974583 -283.12843418 607.25677586 C-279.62777279 600.01802693 -276.30321949 592.70217279 -272.99704075 585.37304783 C-267.37599341 572.925064 -261.68510102 560.51176819 -255.93454075 548.12304783 C-255.53636143 547.26499546 -255.13818211 546.40694309 -254.72793674 545.52288914 C-252.69551629 541.14348625 -250.66223135 536.76448558 -248.6283884 532.38574314 C-244.62160847 523.75867442 -240.62168084 515.12842844 -236.62204075 506.49804783 C-236.22958164 505.65125462 -235.83712254 504.8044614 -235.43277073 503.93200779 C-223.45480038 478.08587729 -211.51786673 452.22093308 -199.63275242 426.33197117 C-193.76862963 413.55852325 -187.88084387 400.79612281 -181.98492527 388.03732395 C-176.95900938 377.15949769 -171.96174011 366.26910078 -166.99118137 355.3658762 C-161.42340203 343.15473931 -155.81040733 330.96602293 -150.12204075 318.81054783 C-149.66880939 317.83989887 -149.66880939 317.83989887 -149.20642185 316.84964085 C-145.50769303 308.9336009 -141.69589976 301.08823345 -137.71603489 293.31005955 C-136.17877145 290.11104201 -134.90076343 286.89338945 -133.68454075 283.56054783 C-131.59148205 277.882349 -128.93884839 272.73159811 -125.9306345 267.48632908 C-124.1345992 264.02685169 -122.73359436 260.5404714 -121.31662083 256.91479588 C-119.17972568 251.64513964 -116.72256611 246.52056768 -114.30954075 241.37304783 C-113.73400744 240.1398505 -113.15873724 238.90653035 -112.58371067 237.67309666 C-111.08282539 234.45534295 -109.5788221 231.23905809 -108.07376194 228.02325535 C-105.54540459 222.62032108 -103.02133766 217.21538 -100.49704075 211.81054783 C-100.21220829 211.2009119 -99.92737583 210.59127598 -99.63391209 209.96316624 C-93.78997727 197.45289834 -88.00365655 184.91627457 -82.22238255 172.37695408 C-76.59916512 160.18145993 -70.95883258 147.99398408 -65.30954075 135.81054783 C-59.80298167 123.93435198 -54.30221294 112.05561497 -48.82199192 100.16723728 C-44.52277617 90.84546923 -40.20329422 81.53313475 -35.88449192 72.22042942 C-27.50540553 54.1539197 -27.50540553 54.1539197 -19.18454075 36.06054783 C-18.56107761 34.69893528 -18.56107761 34.69893528 -17.92501926 33.30981541 C-15.64961469 28.33583239 -13.3810197 23.35877386 -11.11422825 18.38086033 C-10.6037595 17.26203465 -10.09329075 16.14320896 -9.56735325 14.99047947 C-8.58363797 12.83430173 -7.60177942 10.67727563 -6.62204075 8.51928806 C-6.18633762 7.56481785 -5.7506345 6.61034763 -5.30172825 5.62695408 C-4.91613743 4.77947605 -4.53054661 3.93199802 -4.13327122 3.05883884 C-2.70891686 0.15258417 -2.70891686 0.15258417 0 0 Z " fill="#021936" transform="translate(437.1845407485962,247.87695217132568)"/>
<path d="M0 0 C1.53720703 0.82951172 1.53720703 0.82951172 3.10546875 1.67578125 C39.93425569 22.06053914 66.46174143 56.22516752 78.6953125 96.27636719 C79.9942851 100.80838392 81.12442861 105.36661595 82 110 C82.17587646 110.91499268 82.35175293 111.82998535 82.53295898 112.77270508 C84.09779495 121.75885738 84.35953967 130.5991596 84.3125 139.6875 C84.31034485 140.43800629 84.3081897 141.18851257 84.30596924 141.96176147 C84.25415304 153.21351324 83.82253526 164.06359705 81 175 C80.78005371 175.86431641 80.56010742 176.72863281 80.33349609 177.61914062 C77.87110012 187.09878708 75.13822987 196.11157865 71 205 C70.39260169 206.39443012 69.78803773 207.79010153 69.1875 209.1875 C64.21493642 220.30831081 58.49688154 230.78538638 52.13085938 241.15283203 C50.35844649 244.04792613 48.6175366 246.96187358 46.875 249.875 C44.13321237 254.45160074 41.38302813 259.02300885 38.625 263.58984375 C31.40844995 275.55623755 24.30034484 287.57567509 17.36279297 299.70629883 C13.43022482 306.57192127 9.39785954 313.37038979 5.31640625 320.14794922 C3.03985375 323.92917334 0.78064595 327.72050882 -1.47265625 331.515625 C-2.02898743 332.45261734 -2.02898743 332.45261734 -2.59655762 333.40853882 C-3.75216037 335.35552143 -4.90734471 337.30275188 -6.0625 339.25 C-6.89516062 340.65300765 -7.72784336 342.05600218 -8.56054688 343.45898438 C-13.71069793 352.13715067 -18.85631829 360.81799778 -24 369.5 C-29.56377489 378.89107601 -35.13020478 388.28056992 -40.70141602 397.66723633 C-41.50688111 399.02442035 -42.31222563 400.38167593 -43.11743164 401.73901367 C-45.74114154 406.16161615 -48.36813987 410.58224238 -51 415 C-51.3918045 415.65767365 -51.78360901 416.31534729 -52.18728638 416.99295044 C-60.6042625 431.10803236 -60.6042625 431.10803236 -65.0625 437.9375 C-65.45115234 438.53755859 -65.83980469 439.13761719 -66.24023438 439.75585938 C-67.15791253 441.17202937 -68.07856951 442.58626859 -69 444 C-73.14029476 440.38330224 -75.5747512 436.00283709 -78.3125 431.3125 C-79.38769314 429.49459781 -80.46322959 427.67689865 -81.5390625 425.859375 C-82.10399414 424.90095703 -82.66892578 423.94253906 -83.25097656 422.95507812 C-85.59092438 419.00159846 -87.96397954 415.06845872 -90.33618164 411.13427734 C-96.79214464 400.4222997 -103.14233227 389.65244549 -109.4468689 378.85110474 C-115.04722621 369.26277553 -120.76499508 359.7522822 -126.55288696 350.27618408 C-132.86705916 339.93337693 -139.02683888 329.50534254 -145.1171875 319.02929688 C-148.98731097 312.38443991 -152.95115227 305.8102285 -156.99731445 299.27124023 C-160.07603838 294.24237007 -163.04420533 289.15029282 -166.01113892 284.05490112 C-171.8813656 273.97731798 -177.8051887 263.93406587 -183.8125 253.9375 C-184.42706055 252.91269531 -185.04162109 251.88789062 -185.67480469 250.83203125 C-188.5064716 246.1171316 -191.35489086 241.41451957 -194.25 236.73828125 C-218.19353682 197.88366413 -230.59356328 153.44607089 -220 108 C-219.75854248 106.9171875 -219.75854248 106.9171875 -219.51220703 105.8125 C-211.89540439 72.56490037 -192.74979194 40.44717832 -166 19 C-164.55173828 17.83017578 -164.55173828 17.83017578 -163.07421875 16.63671875 C-147.36091466 4.13749959 -129.57296966 -6.30620619 -109.98046875 -11.24609375 C-106.99829087 -11.952688 -106.99829087 -11.952688 -104.16796875 -12.99609375 C-71.14733274 -23.46009308 -29.58759046 -17.09732736 0 0 Z " fill="#03A360" transform="translate(687,513)"/>
<path d="M0 0 C1.19302734 -0.01224609 2.38605469 -0.02449219 3.61523438 -0.03710938 C9.60298989 -0.04709451 14.74454847 0.12972029 20.4375 2.1875 C21.58347656 2.52007813 22.72945312 2.85265625 23.91015625 3.1953125 C48.51459612 10.85240695 68.02409166 27.59761731 80.4375 50.1875 C82.30146221 54.12407691 83.88962358 58.11897108 85.4375 62.1875 C85.994375 63.3425 86.55125 64.4975 87.125 65.6875 C94.34523178 84.94145142 92.44837847 110.15863382 85.4375 129.1875 C85.20756348 129.83203125 84.97762695 130.4765625 84.74072266 131.140625 C76.01974932 155.03843728 57.99413735 172.73948662 35.28515625 183.46484375 C30.43826949 185.67690203 25.50364318 187.54222521 20.4375 189.1875 C19.6021875 189.54585937 18.766875 189.90421875 17.90625 190.2734375 C12.64517191 191.65980267 7.4794936 191.48357077 2.0625 191.4375 C0.89654297 191.42855713 -0.26941406 191.41961426 -1.47070312 191.41040039 C-28.17905358 191.05302992 -50.28337769 183.38475773 -69.46484375 164.46484375 C-88.57271836 144.72540234 -97.25383611 120.2467435 -97.03808594 93.04711914 C-96.25673562 66.35885403 -84.11560993 41.65766463 -64.75 23.375 C-45.7343575 7.14065974 -24.84304867 0.01346507 0 0 Z " fill="#FBFCFC" transform="translate(620.5625,557.8125)"/>
<path d="M0 0 C2.71484375 0.05859375 2.71484375 0.05859375 5.3125 1.0625 C8.86763501 5.1313491 11.27571372 9.67397128 13.83300781 14.41259766 C16.66337667 19.48204049 19.83271578 24.34577837 22.9375 29.25 C24.22414319 31.30766472 25.50933818 33.36623582 26.79296875 35.42578125 C28.87344496 38.75998451 30.95823221 42.09133197 33.05078125 45.41796875 C33.78406867 46.59101177 34.51716456 47.76417456 35.25 48.9375 C35.85714844 49.90429688 36.46429687 50.87109375 37.08984375 51.8671875 C38.3125 54.0625 38.3125 54.0625 38.3125 56.0625 C30.94633096 56.97777362 23.60842268 57.40697407 16.1953125 57.74609375 C13.62238908 57.87030292 11.04947263 57.99465659 8.4765625 58.11914062 C4.47082495 58.31036642 0.4649641 58.49872421 -3.54101562 58.68481445 C-17.3540855 59.33048482 -31.09464703 60.04726984 -44.83398438 61.63647461 C-49.72075583 62.17673159 -54.58848431 62.45592179 -59.5 62.625 C-61.13163876 62.68543107 -62.76315971 62.74914679 -64.39453125 62.81640625 C-65.0800708 62.84033447 -65.76561035 62.8642627 -66.47192383 62.88891602 C-68.79482844 63.03737681 -68.79482844 63.03737681 -71.49072266 63.53955078 C-75.03810038 64.11985345 -78.54400875 64.41226145 -82.12890625 64.67578125 C-83.60062711 64.78795399 -85.07230518 64.9006892 -86.54394531 65.01391602 C-87.31146118 65.07249786 -88.07897705 65.13107971 -88.86975098 65.19143677 C-104.78651786 66.41892732 -120.50050661 68.23131672 -136.29321289 70.58056641 C-140.01702228 71.10928681 -143.74700782 71.57348245 -147.48046875 72.02734375 C-155.76354317 73.03965375 -164.0045592 74.28325194 -172.25 75.5625 C-175.02185332 75.99143481 -177.79396486 76.4186325 -180.56640625 76.84375 C-181.2409787 76.94735336 -181.91555115 77.05095673 -182.61056519 77.15769958 C-188.48829746 78.05129254 -194.37754251 78.82796507 -200.27612305 79.57250977 C-205.12074197 80.26836249 -209.88564808 81.28127635 -214.67578125 82.27734375 C-219.13750356 83.17817185 -223.62660156 83.87262811 -228.125 84.5625 C-239.74416153 86.35518398 -251.23042187 88.36365969 -262.6171875 91.32421875 C-265.99970869 92.13757308 -269.38770342 92.76368453 -272.8125 93.375 C-314.98517409 101.05939181 -357.52459037 112.76901352 -397.796875 127.40869141 C-398.8075 127.77140137 -399.818125 128.13411133 -400.859375 128.5078125 C-402.1911377 128.99531982 -402.1911377 128.99531982 -403.54980469 129.49267578 C-405.6875 130.0625 -405.6875 130.0625 -407.6875 129.0625 C-388.55332889 114.23015659 -366.87435974 102.83680786 -345.5 91.625 C-344.53143066 91.11638428 -343.56286133 90.60776855 -342.56494141 90.08374023 C-337.67242111 87.53749321 -332.78093869 85.18712682 -327.6875 83.0625 C-325.9809801 82.29107135 -324.27677656 81.51450912 -322.57421875 80.734375 C-303.57577858 72.07194087 -284.33934152 64.12094948 -264.6875 57.0625 C-263.40552734 56.60133789 -263.40552734 56.60133789 -262.09765625 56.13085938 C-256.31087897 54.0589945 -250.50548444 52.0449004 -244.6875 50.0625 C-243.72279785 49.73362793 -242.7580957 49.40475586 -241.76416016 49.06591797 C-222.33400668 42.46506564 -202.87370413 36.78089386 -182.99609375 31.6875 C-178.36012893 30.49882587 -173.73959466 29.26861709 -169.125 28 C-154.11824893 23.98897898 -138.96435724 20.4038524 -123.60791016 18.03491211 C-119.58334475 17.40773744 -115.68339486 16.61753713 -111.75 15.5625 C-104.4957374 13.65813336 -97.12284867 12.6360001 -89.71630859 11.52783203 C-86.3444794 11.00979991 -82.97915796 10.45772013 -79.61328125 9.90234375 C-64.94368305 7.5049197 -50.27667291 5.43676409 -35.5 3.8125 C-34.74945343 3.72968781 -33.99890686 3.64687561 -33.22561646 3.56155396 C-24.99196962 2.6602895 -16.76236661 1.86432136 -8.49560547 1.32348633 C-5.61521853 1.05578213 -2.84097735 0.53485841 0 0 Z " fill="#041A37" transform="translate(524.6875,856.9375)"/>
<path d="M0 0 C1.68029444 0.17768631 3.35616807 0.39917123 5.02734375 0.6484375 C7.29656094 0.84736571 9.56612574 1.04234986 11.8359375 1.234375 C14.37942313 1.49234951 16.92237957 1.75558326 19.46484375 2.0234375 C20.81931078 2.16373589 22.17380324 2.30378906 23.52832031 2.44360352 C26.18244819 2.71849661 28.83614512 2.99685048 31.48974609 3.27685547 C34.35179297 3.57747903 37.21436776 3.86867821 40.078125 4.15234375 C82.27079875 8.42998611 124.85412083 16.99604617 165.77832031 28.05664062 C168.72028592 28.83077487 171.68078351 29.49817241 174.65234375 30.1484375 C187.53259696 33.05031273 200.21431087 36.9230077 212.70556641 41.18237305 C217.4730722 42.80654306 222.25693512 44.36606568 227.05859375 45.88671875 C228.92149048 46.47779419 228.92149048 46.47779419 230.82202148 47.08081055 C233.27860955 47.85839317 235.73640363 48.632179 238.19555664 49.40161133 C244.0157439 51.24887923 249.63478761 53.2171425 255.17407227 55.79101562 C257.47786436 56.85687228 259.82266202 57.73911297 262.21484375 58.5859375 C263.13265625 58.91464844 264.05046875 59.24335937 264.99609375 59.58203125 C267.18155078 60.35088404 269.36934945 61.11309213 271.55859375 61.87109375 C277.31944421 63.88369856 282.91163193 65.89143971 288.30859375 68.75 C291.13630981 70.2281243 294.08812294 71.41087084 297.02734375 72.6484375 C300.03214709 73.97099367 303.02899091 75.3113342 306.02734375 76.6484375 C306.58856934 76.88933105 307.14979492 77.13022461 307.72802734 77.37841797 C336.48732354 89.86955046 364.05364739 105.12249675 390.02734375 122.6484375 C391.77664839 123.81614654 393.52652696 124.98299695 395.27734375 126.1484375 C396.52734375 126.98177083 397.77734375 127.81510417 399.02734375 128.6484375 C395.36159493 129.87035377 394.3525826 129.29433971 390.78515625 127.98828125 C389.72981689 127.60978027 388.67447754 127.2312793 387.5871582 126.84130859 C386.45366943 126.42703613 385.32018066 126.01276367 384.15234375 125.5859375 C375.10198207 122.36207717 366.06184596 119.38016911 356.80224609 116.82250977 C350.25305517 115.01261761 343.76566671 113.03989079 337.27734375 111.0234375 C329.36077467 108.57906016 321.45872855 106.46463576 313.37182617 104.67114258 C309.13503819 103.70121455 304.97553886 102.52124297 300.80078125 101.31640625 C290.77772329 98.48192427 280.6477912 96.26061371 270.46484375 94.0859375 C266.98387492 93.33694198 263.50361289 92.58470345 260.0234375 91.83203125 C259.17361298 91.64924622 258.32378845 91.46646118 257.44821167 91.27813721 C252.78143002 90.26874825 248.13374896 89.20415434 243.49476624 88.07420349 C233.90754848 85.74318847 224.26874442 84.06810451 214.52734375 82.5234375 C211.41219 82.02432093 208.29766684 81.52143874 205.18359375 81.015625 C204.45046463 80.89705643 203.71733551 80.77848785 202.96199036 80.65632629 C198.57324648 79.93592562 194.25212083 79.07156539 189.92529297 78.05078125 C185.95183417 77.20845296 181.90030799 76.90416959 177.86132812 76.52539062 C173.40690221 76.05761269 169.13318894 75.2428839 164.76733398 74.23754883 C156.70272465 72.49285958 148.60969034 71.48241359 140.41796875 70.5625 C138.8255436 70.37891396 137.23316811 70.19489674 135.64083862 70.01048279 C131.39915253 69.52179989 127.15638771 69.04327323 122.91312408 68.56850052 C120.25831317 68.27130712 117.6037214 67.972214 114.94915771 67.67282104 C72.11223319 62.85089511 29.30233119 58.59372384 -13.80419922 57.19165039 C-14.7713385 57.15997269 -15.73847778 57.12829498 -16.73492432 57.09565735 C-18.51503093 57.03934306 -20.29526404 56.98682351 -22.07562256 56.93913269 C-27.10223704 56.78711275 -31.99134732 56.3462917 -36.97265625 55.6484375 C-35.22648083 50.58350762 -32.42948704 46.20108296 -29.66015625 41.6484375 C-28.8719751 40.34459106 -28.8719751 40.34459106 -28.06787109 39.0144043 C-24.10738931 32.4784985 -20.11101781 25.96448574 -16.09765625 19.4609375 C-15.57518311 18.61337891 -15.05270996 17.76582031 -14.5144043 16.89257812 C-13.50688476 15.2672052 -12.48837713 13.6485824 -11.45800781 12.03759766 C-10.44192627 10.40324954 -9.48212403 8.73292569 -8.57324219 7.03662109 C-4.62724103 0.08976063 -4.62724103 0.08976063 0 0 Z " fill="#041B38" transform="translate(711.97265625,857.3515625)"/>
<path d="M0 0 C0.33 0 0.66 0 1 0 C1 66.66 1 133.32 1 202 C-66.32 202 -133.64 202 -203 202 C-203 201.67 -203 201.34 -203 201 C-201.89785156 200.82984375 -200.79570313 200.6596875 -199.66015625 200.484375 C-156.95341868 193.73795523 -117.47791696 177.72128016 -84 150 C-83.15566406 149.34 -82.31132813 148.68 -81.44140625 148 C-69.97572127 138.94726759 -59.84043474 128.61996007 -51 117 C-49.66836119 115.3736111 -48.33499137 113.74863815 -47 112.125 C-21.17509834 79.71826543 -6.10047419 40.6797474 0 0 Z " fill="#010101" transform="translate(1253,1052)"/>
<path d="M0 0 C0.33 0 0.66 0 1 0 C1.12004395 0.68288086 1.24008789 1.36576172 1.36376953 2.06933594 C7.6609496 37.43543661 18.62309683 73.23590311 41 102 C42.17142086 103.67231802 43.34246025 105.34492743 44.50463867 107.02368164 C57.35307375 125.47898135 72.88697008 141.68062426 91 155 C91.65339355 155.48710449 92.30678711 155.97420898 92.97998047 156.47607422 C103.50087366 164.28707839 114.40069218 170.91930559 126 177 C127.08023438 177.57492187 128.16046875 178.14984375 129.2734375 178.7421875 C152.53922447 190.78051695 178.11836329 197.65662748 204 201 C204 201.33 204 201.66 204 202 C136.68 202 69.36 202 0 202 C0 135.34 0 68.68 0 0 Z " fill="#000000" transform="translate(0,1052)"/>
<path d="M0 0 C67.32 0 134.64 0 204 0 C204 0.33 204 0.66 204 1 C202.93265625 1.15855469 201.8653125 1.31710938 200.765625 1.48046875 C158.31174255 8.024457 119.69195823 24.21944374 86 51 C85.16009521 51.66418945 85.16009521 51.66418945 84.30322266 52.34179688 C68.80947451 64.70704442 55.45833375 78.83853229 44 95 C43.54931152 95.63260742 43.09862305 96.26521484 42.63427734 96.91699219 C20.47449951 128.31895838 6.37861474 163.94830764 1 202 C0.67 202 0.34 202 0 202 C0 135.34 0 68.68 0 0 Z " fill="#000000" transform="translate(0,0)"/>
<path d="M0 0 C67.32 0 134.64 0 204 0 C204 66.66 204 133.32 204 202 C203.67 202 203.34 202 203 202 C202.88893921 201.18269409 202.88893921 201.18269409 202.77563477 200.34887695 C199.39646446 176.48240677 192.56158088 153.54065792 181.92675781 131.89013672 C181.16440756 130.33531174 180.43327225 128.76522045 179.7109375 127.19140625 C173.6419078 114.24559829 165.49727865 102.18085431 156.70874023 90.95068359 C153 86.18837296 153 86.18837296 153 84 C152.34 84 151.68 84 151 84 C149.55688477 82.32568359 149.55688477 82.32568359 147.87890625 80.0234375 C144.22072974 75.19059982 140.23657761 70.8898398 135.9375 66.625 C135.19435547 65.88677002 134.45121094 65.14854004 133.68554688 64.38793945 C127.17443994 58.01259661 120.35765313 52.35888961 113 47 C112.02643555 46.27586914 112.02643555 46.27586914 111.03320312 45.53710938 C100.51299969 37.72467994 89.64958612 30.99483283 78 25 C77.25024902 24.61215332 76.50049805 24.22430664 75.72802734 23.82470703 C51.98810741 11.6927788 26.49025321 4.02874909 0 1 C0 0.67 0 0.34 0 0 Z " fill="#000000" transform="translate(1050,0)"/>
<path d="M0 0 C0.78246094 0.350625 1.56492187 0.70125 2.37109375 1.0625 C16.10855053 7.91932418 25.94980958 20.48125844 30.9765625 34.77734375 C35.25718211 49.6795008 33.31240737 63.10649825 27 77 C24.96012221 80.64166103 22.67211456 83.80333639 20 87 C19.57589844 87.60585938 19.15179687 88.21171875 18.71484375 88.8359375 C11.6602231 98.37154095 -1.50391207 105.17522414 -13 107 C-22.98956559 107.84057277 -33.73840259 108.31227816 -43 104 C-44.32837891 103.39671875 -44.32837891 103.39671875 -45.68359375 102.78125 C-59.70339444 95.78107213 -68.94429926 84.87089566 -74.33105469 70.19506836 C-79.22015449 55.52241592 -78.20864846 40.75250697 -71.421875 26.7421875 C-63.46731319 12.44547506 -51.8276338 1.89694747 -36 -3 C-24.61934235 -6.21727892 -10.58103243 -4.97161338 0 0 Z " fill="#021A37" transform="translate(640,602)"/>
<path d="M0 0 C0.99 0.66 1.98 1.32 3 2 C2.01 3.485 2.01 3.485 1 5 C1.99 5.33 2.98 5.66 4 6 C1.04575985 7.03296044 -1.91394073 8.04926955 -4.875 9.0625 C-5.71675781 9.35705078 -6.55851562 9.65160156 -7.42578125 9.95507812 C-8.23144531 10.22900391 -9.03710938 10.50292969 -9.8671875 10.78515625 C-10.61081543 11.04176025 -11.35444336 11.29836426 -12.12060547 11.56274414 C-14 12 -14 12 -16 11 C-14.27278316 9.72651788 -12.54313762 8.45632943 -10.8125 7.1875 C-9.84957031 6.47980469 -8.88664062 5.77210938 -7.89453125 5.04296875 C-5.3220667 3.22731563 -2.72279516 1.57792699 0 0 Z " fill="#122340" transform="translate(133,975)"/>
<path d="M0 0 C0.33 0 0.66 0 1 0 C1.68348235 5.3311623 -0.05062091 8.20458834 -2.6875 12.609375 C-4.67559118 16.23054108 -5.85028969 20.04611822 -7 24 C-7.66 24 -8.32 24 -9 24 C-9 24.66 -9 25.32 -9 26 C-9.66 26 -10.32 26 -11 26 C-9.28137532 20.31531835 -6.8358325 15.01576119 -4.375 9.625 C-3.95476562 8.69816406 -3.53453125 7.77132812 -3.1015625 6.81640625 C-2.07035118 4.54305401 -1.03643137 2.27097594 0 0 Z " fill="#202C47" transform="translate(164,833)"/>
<path d="M0 0 C3 2 3 2 3.71484375 4.3828125 C4.12413097 9.5745928 3.84079104 14.68023389 3.5625 19.875 C3.51029297 20.94492187 3.45808594 22.01484375 3.40429688 23.1171875 C3.27524601 25.74513239 3.14030848 28.37263613 3 31 C2.67 31 2.34 31 2 31 C1.97494385 30.30962646 1.9498877 29.61925293 1.92407227 28.90795898 C1.8073434 25.75098591 1.68496822 22.59425543 1.5625 19.4375 C1.52318359 18.35146484 1.48386719 17.26542969 1.44335938 16.14648438 C1.22798645 10.69589254 0.91840778 5.37924559 0 0 Z " fill="#64C798" transform="translate(709,632)"/>
<path d="M0 0 C2.95857409 -0.05379226 5.91617721 -0.09357093 8.875 -0.125 C9.71675781 -0.14175781 10.55851562 -0.15851562 11.42578125 -0.17578125 C12.23144531 -0.18222656 13.03710938 -0.18867187 13.8671875 -0.1953125 C14.98262939 -0.21102295 14.98262939 -0.21102295 16.12060547 -0.22705078 C18 -0 18 -0 20 2 C15.24863698 3.04529987 11.41479051 2.83067395 6.625 2.0625 C5.37976562 1.86785156 4.13453125 1.67320312 2.8515625 1.47265625 C1.91054687 1.31667969 0.96953125 1.16070312 0 1 C0 0.67 0 0.34 0 0 Z " fill="#0E0E0D" transform="translate(1050,0)"/>
<path d="M0 0 C2.31 0 4.62 0 7 0 C7 0.66 7 1.32 7 2 C7.70125 1.7525 8.4025 1.505 9.125 1.25 C13.14531402 0.90040748 14.88338362 2.60817813 18 5 C13.9255567 6.35814777 11.18531884 4.94745762 7.3125 3.5625 C6.61060547 3.31951172 5.90871094 3.07652344 5.18554688 2.82617188 C3.45421468 2.2255056 1.72671863 1.61380281 0 1 C0 0.67 0 0.34 0 0 Z " fill="#434961" transform="translate(1093,981)"/>
<path d="M0 0 C0.66 0 1.32 0 2 0 C-1.0551543 11.15889691 -1.0551543 11.15889691 -4 15 C-4.66 15 -5.32 15 -6 15 C-4.36041242 9.76727367 -2.61047965 4.84803364 0 0 Z " fill="#1B2944" transform="translate(398,327)"/>
<path d="M0 0 C0 0.66 0 1.32 0 2 C-1.56116819 2.33951619 -3.12401338 2.67132544 -4.6875 3 C-5.99267578 3.2784375 -5.99267578 3.2784375 -7.32421875 3.5625 C-9.93712964 3.98972047 -12.35813038 4.07616201 -15 4 C-15.33 3.34 -15.66 2.68 -16 2 C-10.61972975 0.80911014 -5.54708616 -0.2919519 0 0 Z " fill="#212D46" transform="translate(405,875)"/>
<path d="M0 0 C0.33 0.99 0.66 1.98 1 3 C-1.64 5.64 -4.28 8.28 -7 11 C-7.66 10.01 -8.32 9.02 -9 8 C-6.03 5.36 -3.06 2.72 0 0 Z " fill="#1B2C48" transform="translate(586,608)"/>
<path d="M0 0 C0.66 0.33 1.32 0.66 2 1 C-0.98232523 4.32643967 -3.86370087 6.29152862 -8 8 C-8.66 7.67 -9.32 7.34 -10 7 C-7.01767477 3.67356033 -4.13629913 1.70847138 0 0 Z " fill="#22304B" transform="translate(203,937)"/>
<path d="M0 0 C0.66 0.33 1.32 0.66 2 1 C1.731875 1.66 1.46375 2.32 1.1875 3 C-0.25705047 6.64939067 -1.62871178 10.32245433 -3 14 C-3.99 13.67 -4.98 13.34 -6 13 C-4.02 8.71 -2.04 4.42 0 0 Z " fill="#1A2742" transform="translate(175,810)"/>
<path d="M0 0 C1.41077611 4.36578013 -0.04115243 7.05686529 -2 11 C-2.556875 12.134375 -3.11375 13.26875 -3.6875 14.4375 C-4.120625 15.283125 -4.55375 16.12875 -5 17 C-5.66 17 -6.32 17 -7 17 C-5.24009216 11.08030998 -2.60305395 5.58365008 0 0 Z " fill="#202C48" transform="translate(384,357)"/>
<path d="M0 0 C0.33 0.66 0.66 1.32 1 2 C0.34 2 -0.32 2 -1 2 C-1 2.66 -1 3.32 -1 4 C-0.34 4.33 0.32 4.66 1 5 C-4.445 6.485 -4.445 6.485 -10 8 C-6.88983545 4.71211176 -3.98381075 2.16264012 0 0 Z " fill="#353D55" transform="translate(127,979)"/>
<path d="M0 0 C0.99 0 1.98 0 3 0 C1.78065514 4.03321763 0.44045073 7.54269479 -2 11 C-2.66 11 -3.32 11 -4 11 C-3.52269162 9.5410574 -3.04308958 8.08286504 -2.5625 6.625 C-2.29566406 5.81289063 -2.02882813 5.00078125 -1.75390625 4.1640625 C-1 2 -1 2 0 0 Z " fill="#1A2944" transform="translate(389,346)"/>
<path d="M0 0 C-1.5552912 0.70365602 -3.11964827 1.38729378 -4.6875 2.0625 C-5.55761719 2.44535156 -6.42773438 2.82820312 -7.32421875 3.22265625 C-10.32213864 4.0935848 -12.03280153 3.85006226 -15 3 C-10.19452297 0.30893287 -5.40072745 -1.66996178 0 0 Z " fill="#2D3951" transform="translate(354,887)"/>
<path d="M0 0 C0.66 0.33 1.32 0.66 2 1 C-0.31 3.64 -2.62 6.28 -5 9 C-5.99 8.67 -6.98 8.34 -8 8 C-5.36 5.36 -2.72 2.72 0 0 Z M-10 9 C-9.34 9.33 -8.68 9.66 -8 10 C-8.99 10 -9.98 10 -11 10 C-10.67 9.67 -10.34 9.34 -10 9 Z " fill="#1CAC68" transform="translate(523,530)"/>
<path d="M0 0 C0.99 0 1.98 0 3 0 C3 0.66 3 1.32 3 2 C3.99 2.33 4.98 2.66 6 3 C5.67 3.66 5.34 4.32 5 5 C2.67843403 5.40729228 0.3431213 5.74438677 -2 6 C-1.34 4.02 -0.68 2.04 0 0 Z " fill="#253551" transform="translate(142,881)"/>
<path d="M0 0 C1.0326802 2.78823655 1.04509293 3.8677274 0.0625 6.75 C-0.288125 7.4925 -0.63875 8.235 -1 9 C-1.66 9 -2.32 9 -3 9 C-3 9.66 -3 10.32 -3 11 C-3.66 11 -4.32 11 -5 11 C-3.77472971 6.94718288 -2.30119506 3.55639236 0 0 Z " fill="#152340" transform="translate(158,848)"/>
<path d="M0 0 C2.35694954 0.09031574 4.71153582 0.24688128 7.0625 0.4375 C8.35285156 0.53933594 9.64320313 0.64117188 10.97265625 0.74609375 C12.47119141 0.87177734 12.47119141 0.87177734 14 1 C14 1.33 14 1.66 14 2 C4.595 2.495 4.595 2.495 -5 3 C-3.68 2.34 -2.36 1.68 -1 1 C-0.67 0.67 -0.34 0.34 0 0 Z " fill="#676F82" transform="translate(473,916)"/>
<path d="M0 0 C0.66 0.99 1.32 1.98 2 3 C1.06810009 6.10633303 -0.19193628 8.28790442 -2 11 C-2.66 11 -3.32 11 -4 11 C-3.52269162 9.5410574 -3.04308958 8.08286504 -2.5625 6.625 C-2.29566406 5.81289063 -2.02882813 5.00078125 -1.75390625 4.1640625 C-1 2 -1 2 0 0 Z " fill="#26324B" transform="translate(291,558)"/>
<path d="M0 0 C0.66 0.33 1.32 0.66 2 1 C0.55049545 4.7910119 -1.15172566 8.3874638 -3 12 C-3.66 12 -4.32 12 -5 12 C-3.68938409 7.76570244 -2.05643741 3.92592596 0 0 Z " fill="#1E2A46" transform="translate(376,375)"/>
<path d="M0 0 C-6 4 -6 4 -8.6875 3.625 C-9.450625 3.41875 -10.21375 3.2125 -11 3 C-7.18178484 -0.02823961 -4.81391924 -1.49397494 0 0 Z " fill="#344158" transform="translate(289,906)"/>
<path d="M0 0 C0.99 0.66 1.98 1.32 3 2 C2.01 3.485 2.01 3.485 1 5 C1.99 5.33 2.98 5.66 4 6 C2.68 6 1.36 6 0 6 C0 5.01 0 4.02 0 3 C-1.65 3.33 -3.3 3.66 -5 4 C-3.35 2.68 -1.7 1.36 0 0 Z " fill="#1D2B45" transform="translate(133,975)"/>
<path d="M0 0 C2 3 2 3 1.625 5.1875 C1.41875 5.785625 1.2125 6.38375 1 7 C0.34 7 -0.32 7 -1 7 C-1 7.66 -1 8.32 -1 9 C-1.66 9 -2.32 9 -3 9 C-2.01 6.03 -1.02 3.06 0 0 Z " fill="#24314B" transform="translate(347,437)"/>
<path d="M0 0 C0.66 0.33 1.32 0.66 2 1 C0.80100302 4.0831351 -0.47700477 7.06279492 -2 10 C-2.66 10 -3.32 10 -4 10 C-2.8905928 6.51329166 -1.73662334 3.22515763 0 0 Z " fill="#1C2944" transform="translate(370,388)"/>
<path d="M0 0 C0.33 0 0.66 0 1 0 C1.05447047 1.41623216 1.09300508 2.83308191 1.125 4.25 C1.14820313 5.03890625 1.17140625 5.8278125 1.1953125 6.640625 C0.9828378 9.20731941 0.28654105 10.7916067 -1 13 C-1.33 10.69 -1.66 8.38 -2 6 C-1.34 6 -0.68 6 0 6 C0 4.02 0 2.04 0 0 Z " fill="#3AB77E" transform="translate(768,675)"/>
<path d="M0 0 C0.66 1.32 1.32 2.64 2 4 C0.75 6.75 0.75 6.75 -1 9 C-1.66 9 -2.32 9 -3 9 C-2.01 6.03 -1.02 3.06 0 0 Z " fill="#182843" transform="translate(187,783)"/>
<path d="M0 0 C0.66 0.33 1.32 0.66 2 1 C2 1.99 2 2.98 2 4 C1.34 4 0.68 4 0 4 C-0.33 5.32 -0.66 6.64 -1 8 C-1.66 8 -2.32 8 -3 8 C-1.125 2.25 -1.125 2.25 0 0 Z " fill="#1B2A46" transform="translate(191,775)"/>
<path d="M0 0 C0.6875 1.8125 0.6875 1.8125 1 4 C-0.4375 5.75 -0.4375 5.75 -2 7 C-2.99 6.67 -3.98 6.34 -5 6 C-3.35 4.02 -1.7 2.04 0 0 Z " fill="#20AE71" transform="translate(502,551)"/>
<path d="M0 0 C0.33 0 0.66 0 1 0 C1.125 5.75 1.125 5.75 0 8 C-0.99 8 -1.98 8 -3 8 C-1.125 2.25 -1.125 2.25 0 0 Z " fill="#2D3852" transform="translate(343,446)"/>
</svg>
