<?xml version="1.0" encoding="UTF-8"?>
<svg version="1.1" xmlns="http://www.w3.org/2000/svg" viewBox="110 60 825 825" width="500" height="500">
<path d="M0 0 C112.53 0 225.06 0 341 0 C340.1031478 4.48426099 339.01513916 7.33937377 336.99658203 11.36328125 C336.68914062 11.98020844 336.38169922 12.59713562 336.06494141 13.23275757 C335.05167479 15.2622878 334.02989989 17.28739958 333.0078125 19.3125 C332.29851362 20.72803753 331.58968895 22.14381277 330.88131714 23.55981445 C329.39701666 26.52381872 327.90881664 29.48581871 326.41748047 32.44628906 C324.50997966 36.23302989 322.60942039 40.02319858 320.71142769 43.81471252 C319.24790602 46.73758954 317.78212314 49.65932736 316.31551743 52.58065796 C315.6142735 53.97746547 314.91339499 55.3744565 314.21289444 56.77163696 C313.23140126 58.7277134 312.24722311 60.68241443 311.26220703 62.63671875 C310.70340851 63.74748779 310.14460999 64.85825684 309.56887817 66.00268555 C309.05114838 66.99179932 308.53341858 67.98091309 308 69 C307.65195753 69.87321899 307.30391506 70.74643799 306.94532585 71.64611816 C305 74 305 74 301.18452454 74.63923645 C299.55862574 74.67152471 297.93204187 74.67611937 296.3059082 74.65942383 C295.4178952 74.66990753 294.5298822 74.68039124 293.61495972 74.69119263 C290.67654811 74.72001938 287.73930935 74.71364222 284.80078125 74.70703125 C282.76481137 74.72014167 280.72885452 74.73544386 278.69291687 74.75285339 C273.33182957 74.79279297 267.97108182 74.80289962 262.60986328 74.80688477 C257.1401941 74.81619932 251.67072584 74.8536023 246.20117188 74.88867188 C235.46745737 74.95333896 224.73389224 74.98650425 214 75 C214.00037972 75.62356164 214.00075944 76.24712328 214.00115067 76.88958073 C214.02358509 113.94202932 214.04071492 150.9944769 214.05106533 188.04693091 C214.05231586 192.5073615 214.0536102 196.96779208 214.05493164 201.42822266 C214.05532511 202.76007021 214.05532511 202.76007021 214.05572652 204.11882377 C214.06006413 218.44860129 214.06794107 232.77837476 214.0771528 247.10814989 C214.08654262 261.83910718 214.09206684 276.57006237 214.09408849 291.30102253 C214.09545271 300.3725339 214.09974302 309.44403378 214.10791647 318.51554161 C214.11324984 324.75727382 214.1147895 330.9990002 214.11350138 337.24073452 C214.11286817 340.82843766 214.11375759 344.41612092 214.11920547 348.00382042 C214.14334398 364.69597948 213.87009369 381.32888066 213 398 C208.11234482 397.32246852 203.34017943 396.47402065 198.5234375 395.3984375 C197.0497833 395.07264516 195.57606624 394.74713711 194.10229492 394.421875 C193.33178802 394.25107422 192.56128113 394.08027344 191.76742554 393.90429688 C171.92188711 389.51369775 151.98999274 385.66897234 132 382 C132 381.01 132 380.02 132 379 C131.34 378.67 130.68 378.34 130 378 C130.16822266 377.15695312 130.33644531 376.31390625 130.50976562 375.4453125 C131.02561978 371.81994705 131.00216914 368.53200089 130.84375 364.875 C130.78905758 363.45127521 130.73496798 362.02752717 130.68139648 360.60375977 C130.65149628 359.85522736 130.62159607 359.10669495 130.59078979 358.33547974 C130.04855405 344.38698918 129.98945704 330.51355747 130.4375 316.5625 C130.48817521 314.95198746 130.53879384 313.34147314 130.58935547 311.73095703 C130.6141095 310.94267517 130.63886353 310.15439331 130.66436768 309.34222412 C130.7009549 308.17315521 130.7009549 308.17315521 130.73828125 306.98046875 C130.7625116 306.21091858 130.78674194 305.44136841 130.81170654 304.64849854 C131.3248113 287.82217022 131.09625321 271.0121404 130.57019043 254.19061279 C129.44254027 217.99304258 130.05340427 181.80382357 130.60827446 145.60094261 C130.8987944 126.58537222 131.11885498 107.57565582 130.96289062 88.55737305 C130.95866089 87.84524155 130.95443115 87.13311005 130.95007324 86.3993988 C130.93858164 84.56343342 130.92078994 82.72751024 130.90234375 80.89160156 C131 78 131 78 132 74 C100.65 74 69.3 74 37 74 C35.02 70.04 33.04 66.08 31 62 C29.68 61.34 28.36 60.68 27 60 C27.99 59.505 27.99 59.505 29 59 C27.88182488 56.85035318 26.75592552 54.70542434 25.625 52.5625 C25.30789063 51.95083984 24.99078125 51.33917969 24.6640625 50.70898438 C22.97695701 47.24761656 22.97695701 47.24761656 20 45 C19.658608 43.33496535 19.32712869 41.66789559 19 40 C18.10508653 37.88864725 17.14243488 35.80511723 16.125 33.75 C15.35542969 32.16445313 15.35542969 32.16445313 14.5703125 30.546875 C13.19647963 27.70906875 13.19647963 27.70906875 10 27 C10.33 26.34 10.66 25.68 11 25 C9.98125911 22.56484534 9.98125911 22.56484534 8.4375 19.84375 C7.88835937 18.82152344 7.33921875 17.79929688 6.7734375 16.74609375 C6.18820312 15.67488281 5.60296875 14.60367188 5 13.5 C3.84690026 11.38937031 2.70067493 9.2749653 1.5625 7.15625 C1.04816406 6.21587891 0.53382813 5.27550781 0.00390625 4.30664062 C-0.32738281 3.54544922 -0.65867187 2.78425781 -1 2 C-0.67 1.34 -0.34 0.68 0 0 Z " fill="#1B976F" transform="translate(503,235)"/>
<path d="M0 0 C2.59383957 -0.01682277 5.18762827 -0.0444402 7.78125 -0.08203125 C11.57567629 -0.13638927 15.36905728 -0.15857504 19.16381836 -0.17333984 C20.32612473 -0.19600922 21.48843109 -0.21867859 22.68595886 -0.24203491 C23.75590591 -0.23918488 24.82585297 -0.23633484 25.92822266 -0.23339844 C27.33759346 -0.24552872 27.33759346 -0.24552872 28.7754364 -0.25790405 C31.15209961 0.35009766 31.15209961 0.35009766 32.88272095 2.69816589 C33.51106339 4.01087212 33.51106339 4.01087212 34.15209961 5.35009766 C34.65829834 6.34485107 35.16449707 7.33960449 35.68603516 8.36450195 C38.68244947 14.55222303 38.68244947 14.55222303 39.93261719 17.15307617 C40.84296229 19.04458461 41.76002517 20.9327375 42.67749023 22.82080078 C43.25667596 24.02177517 43.8354662 25.22294038 44.41381836 26.42431641 C44.93935303 27.51317139 45.4648877 28.60202637 46.00634766 29.72387695 C47.15209961 32.35009766 47.15209961 32.35009766 47.15209961 34.35009766 C47.81209961 34.68009766 48.47209961 35.01009766 49.15209961 35.35009766 C50.04762268 36.98118591 50.04762268 36.98118591 50.96679688 39.11743164 C51.48922218 40.31094994 51.48922218 40.31094994 52.02220154 41.52857971 C52.39635696 42.39651657 52.77051239 43.26445343 53.15600586 44.15869141 C57.44050952 53.88562402 62.04551826 63.41394022 66.82666016 72.9050293 C68.09016459 75.41371943 69.34718738 77.92557594 70.60327148 80.43798828 C75.14793918 89.50724236 79.79486493 98.51570781 84.53929138 107.48197937 C88.18639596 114.38482115 91.7233716 121.33875608 95.20532227 128.32617188 C96.17802326 130.27709202 97.15515559 132.22575324 98.13256836 134.17431641 C98.76433621 135.4385107 99.39585686 136.70282858 100.02709961 137.96728516 C100.58139648 139.07700684 101.13569336 140.18672852 101.70678711 141.33007812 C102.97129189 143.97229504 104.10490302 146.61582162 105.15209961 149.35009766 C104.0093457 149.04265625 104.0093457 149.04265625 102.84350586 148.72900391 C88.36652208 144.95161363 70.05706915 142.43597121 55.76025391 148.33740234 C53.13388194 149.35717122 50.82146607 149.79642807 48.03881836 150.18603516 C41.90793651 151.23786683 36.60598055 153.41628561 30.96459961 155.97509766 C30.01262695 156.39533203 29.0606543 156.81556641 28.07983398 157.24853516 C25.7656582 158.27188927 23.45684591 159.30572439 21.15209961 160.35009766 C20.48090412 158.89384316 19.81528154 157.43501898 19.15209961 155.97509766 C18.78084961 155.16298828 18.40959961 154.35087891 18.02709961 153.51416016 C17.15209961 151.35009766 17.15209961 151.35009766 17.15209961 149.35009766 C15.83209961 149.02009766 14.51209961 148.69009766 13.15209961 148.35009766 C13.48209961 147.69009766 13.81209961 147.03009766 14.15209961 146.35009766 C13.75271194 144.25188551 13.75271194 144.25188551 13.15209961 142.35009766 C11.83209961 142.68009766 10.51209961 143.01009766 9.15209961 143.35009766 C9.81209961 142.36009766 10.47209961 141.37009766 11.15209961 140.35009766 C10.68906607 138.39538934 10.68906607 138.39538934 9.59741211 136.40869141 C9.2300293 135.66039062 8.86264648 134.91208984 8.48413086 134.14111328 C8.08581055 133.36445313 7.68749023 132.58779297 7.27709961 131.78759766 C6.50575608 130.24618344 5.73737712 128.70328104 4.97241211 127.15869141 C4.62452637 126.47605225 4.27664063 125.79341309 3.91821289 125.09008789 C3.15209961 123.35009766 3.15209961 123.35009766 3.15209961 121.35009766 C2.49209961 121.02009766 1.83209961 120.69009766 1.15209961 120.35009766 C0.0468594 118.19402025 -0.98490178 115.99985542 -1.97290039 113.78759766 C-2.51172852 112.59005859 -3.05055664 111.39251953 -3.60571289 110.15869141 C-4.01563477 109.23185547 -4.42555664 108.30501953 -4.84790039 107.35009766 C-12.42908058 123.66867026 -19.71999215 140.10344339 -26.90318298 156.59979248 C-30.49801136 164.85099616 -34.12388196 173.08853507 -37.74661255 181.32751465 C-63.25240111 239.3524312 -87.66752355 297.80946609 -111.28369141 356.62866211 C-111.75787506 357.8081543 -112.23205872 358.98764648 -112.72061157 360.20288086 C-113.60623217 362.40615801 -114.49050942 364.60997584 -115.37313843 366.81445312 C-116.51922238 369.66485927 -117.67755551 372.50957377 -118.84790039 375.35009766 C-119.20885803 376.22787872 -119.56981567 377.10565979 -119.94171143 378.01004028 C-120.28611267 378.82020599 -120.63051392 379.6303717 -120.98535156 380.46508789 C-121.28406662 381.17261703 -121.58278168 381.88014618 -121.89054871 382.6091156 C-123.57495152 385.67226901 -125.5899088 386.30103914 -128.84790039 387.35009766 C-132.53405 388.36970474 -136.24709527 389.23818661 -139.97290039 390.10009766 C-154.55446547 393.60574558 -168.94558615 397.73808031 -183.34790039 401.91259766 C-184.45715881 402.2336145 -185.56641724 402.55463135 -186.70928955 402.88537598 C-189.97483304 403.83123426 -193.23965032 404.77955111 -196.50415039 405.72900391 C-197.55005341 406.03264862 -198.59595642 406.33629333 -199.67355347 406.6491394 C-204.71321773 408.11858283 -209.74023193 409.61776581 -214.75024414 411.18554688 C-215.67107788 411.47123032 -216.59191162 411.75691376 -217.54064941 412.05125427 C-219.25771348 412.58637902 -220.97220583 413.12985624 -222.68347168 413.6832428 C-226.49988548 414.86956741 -229.02563102 415.56663314 -232.84790039 414.35009766 C-232.5449707 413.76744141 -232.24204102 413.18478516 -231.92993164 412.58447266 C-225.62062883 401.45486434 -225.62062883 401.45486434 -222.84790039 389.35009766 C-222.18790039 389.35009766 -221.52790039 389.35009766 -220.84790039 389.35009766 C-220.58308113 388.5198835 -220.58308113 388.5198835 -220.31291199 387.67289734 C-218.58107589 382.34755865 -216.61731007 377.19658335 -214.39868164 372.05712891 C-214.0693866 371.28596741 -213.74009155 370.51480591 -213.40081787 369.72027588 C-212.32384633 367.19968148 -211.24210862 364.68116247 -210.16040039 362.16259766 C-208.61198004 358.54346588 -207.06592869 354.92332342 -205.51977539 351.30322266 C-205.12722061 350.38505264 -204.73466583 349.46688263 -204.33021545 348.52088928 C-201.7979194 342.59308788 -199.2886062 336.65616939 -196.80102539 330.70947266 C-196.47785843 329.93712784 -196.15469147 329.16478302 -195.82173157 328.36903381 C-195.50012558 327.60038498 -195.17851959 326.83173615 -194.84716797 326.03979492 C-188.36154663 310.53968468 -181.73159913 295.10821031 -174.97290039 279.72509766 C-174.57773224 278.82526154 -174.18256409 277.92542542 -173.77542114 276.99832153 C-172.65801453 274.45598962 -171.53867941 271.9145198 -170.41821289 269.37353516 C-170.0856398 268.61808914 -169.75306671 267.86264313 -169.41041565 267.08430481 C-167.95930602 263.80204035 -166.49997301 260.53690524 -164.84790039 257.35009766 C-165.50790039 257.35009766 -166.16790039 257.35009766 -166.84790039 257.35009766 C-166.51790039 256.69009766 -166.18790039 256.03009766 -165.84790039 255.35009766 C-165.18790039 255.68009766 -164.52790039 256.01009766 -163.84790039 256.35009766 C-163.46891602 255.12806641 -163.08993164 253.90603516 -162.69946289 252.64697266 C-160.62613117 246.44387311 -157.92598914 240.54960957 -155.22290039 234.60009766 C-154.65502412 233.34190937 -154.08740449 232.08360523 -153.52001953 230.82519531 C-148.46600194 219.63633184 -143.32431899 208.48736256 -138.18487549 197.33755493 C-133.58254943 187.35212139 -129.03680941 177.34698505 -124.59790039 167.28759766 C-118.53371675 153.55439889 -112.20771796 139.94840386 -105.84790039 126.35009766 C-104.6769484 123.84376421 -103.50652177 121.33718561 -102.33618164 118.83056641 C-101.89699905 117.88995613 -101.89699905 117.88995613 -101.44894409 116.93034363 C-100.5610445 115.0286191 -99.67321765 113.12686062 -98.78540039 111.22509766 C-98.34804565 110.28837723 -98.34804565 110.28837723 -97.90185547 109.33273315 C-86.53467488 85.05020654 -86.53467488 85.05020654 -75.53540039 60.60009766 C-72.85998963 54.51919164 -69.98638957 48.58103473 -66.97290039 42.65869141 C-63.90227094 36.51588482 -61.04820994 30.26778402 -58.16040039 24.03759766 C-57.87822662 23.42950256 -57.59605286 22.82140747 -57.30532837 22.19488525 C-54.09453133 15.27157858 -50.93625575 8.32878068 -47.84790039 1.35009766 C-31.90059636 0.48026349 -15.97078292 0.07594871 0 0 Z " fill="#082744" transform="translate(430.847900390625,234.64990234375)"/>
<path d="M0 0 C26.11192311 -0.86320407 49.22142485 9.1369248 69.3984375 25.15625 C70.4503125 25.94 71.5021875 26.72375 72.5859375 27.53125 C80.94752229 35.3353958 90.24866977 45.98889168 93.3984375 57.15625 C94.0584375 57.48625 94.7184375 57.81625 95.3984375 58.15625 C99.79212943 69.53990637 102.95876318 81.93696774 103.3984375 94.15625 C103.45 95.02636719 103.5015625 95.89648438 103.5546875 96.79296875 C104.7777196 133.33105271 84.07520232 166.6513166 66.3984375 197.15625 C65.51623535 198.68572266 65.51623535 198.68572266 64.61621094 200.24609375 C55.13695057 216.6678381 45.52591945 233.02280556 35.4609375 249.09375 C34.87687134 250.02803833 34.87687134 250.02803833 34.28100586 250.98120117 C31.82402244 254.90375365 29.34259288 258.80991495 26.8515625 262.7109375 C25.63778723 264.63006061 24.42424356 266.54933021 23.2109375 268.46875 C22.62127197 269.38325928 22.03160645 270.29776855 21.42407227 271.23999023 C20.88580811 272.09536377 20.34754395 272.9507373 19.79296875 273.83203125 C19.30675049 274.59427002 18.82053223 275.35650879 18.31958008 276.1418457 C17.06251735 278.28533472 17.06251735 278.28533472 18.3984375 281.15625 C17.4084375 281.15625 16.4184375 281.15625 15.3984375 281.15625 C14.04899967 282.6487654 14.04899967 282.6487654 12.91796875 284.65625 C12.25571289 285.7390625 12.25571289 285.7390625 11.58007812 286.84375 C10.90235352 287.9884375 10.90235352 287.9884375 10.2109375 289.15625 C9.74751953 289.919375 9.28410156 290.6825 8.80664062 291.46875 C7.66071838 293.35893103 6.52529313 295.25466136 5.3984375 297.15625 C1.15313267 293.23986068 -1.84770788 289.0331723 -4.9140625 284.15625 C-5.38900146 283.41238037 -5.86394043 282.66851074 -6.35327148 281.90209961 C-9.99357805 276.18109301 -13.54569922 270.40704993 -17.04296875 264.59765625 C-18.51386856 262.10026619 -18.51386856 262.10026619 -20.6015625 260.15625 C-21.63116634 258.4655937 -22.62552789 256.75338798 -23.6015625 255.03125 C-26.38705607 250.19962227 -29.25873868 245.44034181 -32.2265625 240.71875 C-32.64518555 240.05222412 -33.06380859 239.38569824 -33.49511719 238.69897461 C-34.38959635 237.27486963 -35.28412946 235.85079852 -36.17871094 234.42675781 C-38.74973217 230.32406436 -41.30091198 226.20912724 -43.8515625 222.09375 C-44.38982666 221.22854736 -44.92809082 220.36334473 -45.48266602 219.47192383 C-48.51019263 214.59149933 -51.48334023 209.68447367 -54.40234375 204.73828125 C-55.3444873 203.15382202 -55.3444873 203.15382202 -56.30566406 201.53735352 C-57.52509475 199.48280826 -58.73445108 197.42224309 -59.93261719 195.35522461 C-60.4846582 194.42846924 -61.03669922 193.50171387 -61.60546875 192.546875 C-62.32972046 191.3098584 -62.32972046 191.3098584 -63.06860352 190.04785156 C-64.83792893 187.86458459 -65.85875305 187.4975774 -68.6015625 187.15625 C-68.6015625 186.49625 -68.6015625 185.83625 -68.6015625 185.15625 C-67.9415625 184.82625 -67.2815625 184.49625 -66.6015625 184.15625 C-69.0765625 179.70125 -69.0765625 179.70125 -71.6015625 175.15625 C-72.2615625 175.48625 -72.9215625 175.81625 -73.6015625 176.15625 C-75.0865625 175.16625 -75.0865625 175.16625 -76.6015625 174.15625 C-76.19808594 173.64320313 -75.79460937 173.13015625 -75.37890625 172.6015625 C-74.25601228 169.9801455 -74.25601228 169.9801455 -75.98046875 166.8359375 C-76.6923402 165.55866262 -77.42124041 164.29077666 -78.1640625 163.03125 C-78.92339919 161.69226947 -79.68120982 160.35242238 -80.4375 159.01171875 C-80.81100586 158.3573584 -81.18451172 157.70299805 -81.56933594 157.02880859 C-83.35509399 153.78927116 -84.82944087 150.40318672 -86.30078125 147.01171875 C-88.02366234 144.55415563 -89.78920422 144.03773543 -92.6015625 143.15625 C-91.9415625 142.82625 -91.2815625 142.49625 -90.6015625 142.15625 C-89.49817227 138.84607931 -89.65426855 138.29574341 -90.74609375 135.15625 C-91.14211792 133.96225586 -91.14211792 133.96225586 -91.54614258 132.74414062 C-91.83255615 131.89013672 -92.11896973 131.03613281 -92.4140625 130.15625 C-95.20645838 121.44148493 -96.58684258 113.1039467 -97.27734375 104 C-97.46153611 100.41167697 -97.46153611 100.41167697 -98.18432617 98.04101562 C-98.6015625 96.15625 -98.6015625 96.15625 -97.6015625 94.15625 C-97.40619698 92.64922155 -97.25815672 91.1358727 -97.13671875 89.62109375 C-97.05873047 88.72970703 -96.98074219 87.83832031 -96.90039062 86.91992188 C-96.7425409 85.03224786 -96.58891015 83.14421641 -96.43945312 81.25585938 C-96.36017578 80.36576172 -96.28089844 79.47566406 -96.19921875 78.55859375 C-96.09879272 77.32870728 -96.09879272 77.32870728 -95.99633789 76.07397461 C-95.86606201 75.44112549 -95.73578613 74.80827637 -95.6015625 74.15625 C-94.6115625 73.66125 -94.6115625 73.66125 -93.6015625 73.15625 C-93.3953125 71.980625 -93.1890625 70.805 -92.9765625 69.59375 C-90.7711356 58.70554004 -84.00175405 48.32237029 -77.94921875 39.1953125 C-76.57825409 37.20969587 -76.57825409 37.20969587 -75.6015625 35.15625 C-73.9983439 33.7576976 -72.39000837 32.36462278 -70.7578125 31 C-68.33267973 28.92633575 -66.00528892 26.76155224 -63.6640625 24.59375 C-60.04022471 21.3073994 -56.43947544 18.55538465 -52.1953125 16.12890625 C-50.41921639 15.13071652 -50.41921639 15.13071652 -48.6015625 13.15625 C-33.42267824 5.1453537 -17.04115104 1.02349255 0 0 Z M-24.4140625 72.03125 C-32.35610871 81.65015515 -33.30791755 90.99410037 -32.6015625 103.15625 C-30.70698531 112.62913597 -24.35338594 120.69253187 -16.6015625 126.15625 C-7.00352131 131.44398555 3.71270675 132.86310645 14.4765625 130.47265625 C25.62219917 126.72112212 32.47863034 120.04970397 38.2109375 109.96875 C41.22898181 100.27923932 41.16953349 90.6163877 37.3984375 81.15625 C31.69709218 70.65614701 23.84198081 63.62851599 12.3984375 60.15625 C-1.81534985 56.87614523 -14.56281573 61.36255935 -24.4140625 72.03125 Z " fill="#1A976F" transform="translate(508.6015625,398.84375)"/>
<path d="M0 0 C11.70369694 9.96323822 21.21557639 23.71569892 22.67041016 39.38647461 C23.49686341 57.39436346 20.87366278 72.60583677 9.04296875 86.9140625 C-2.84639814 99.62519445 -17.85671681 106.8318719 -35.35351562 107.42163086 C-53.62333788 107.57720861 -70.20248581 101.79408481 -83.55078125 89.00390625 C-94.61014689 77.46886897 -100.38553542 62.53361891 -100.98828125 46.62890625 C-100.52414638 30.57757531 -93.97880093 15.76941581 -82.93359375 4.21875 C-59.68628701 -17.38981217 -25.06656019 -19.61563899 0 0 Z M-66.36328125 22.87890625 C-74.30532746 32.4978114 -75.2571363 41.84175662 -74.55078125 54.00390625 C-72.65620406 63.47679222 -66.30260469 71.54018812 -58.55078125 77.00390625 C-48.95274006 82.2916418 -38.236512 83.7107627 -27.47265625 81.3203125 C-16.32701958 77.56877837 -9.47058841 70.89736022 -3.73828125 60.81640625 C-0.72023694 51.12689557 -0.77968526 41.46404395 -4.55078125 32.00390625 C-10.25212657 21.50380326 -18.10723794 14.47617224 -29.55078125 11.00390625 C-43.7645686 7.72380148 -56.51203448 12.2102156 -66.36328125 22.87890625 Z " fill="#072441" transform="translate(550.55078125,447.99609375)"/>
<path d="M0 0 C2.46075511 -0.25807182 4.19988011 -0.34308411 6.57128906 0.375 C8.07739258 2.06420898 8.07739258 2.06420898 9.45019531 4.30859375 C10.21674438 5.53497559 10.21674438 5.53497559 10.9987793 6.78613281 C11.51770752 7.64045898 12.03663574 8.49478516 12.57128906 9.375 C13.59286988 10.98425308 14.61629188 12.59233889 15.64160156 14.19921875 C16.66100477 15.81957448 17.67923176 17.44067078 18.69628906 19.0625 C19.71899121 20.69186804 20.74241272 22.32078481 21.76660156 23.94921875 C22.24387695 24.70895996 22.72115234 25.46870117 23.21289062 26.25146484 C24.42009384 28.13864197 25.66722525 29.98776648 26.93847656 31.83203125 C28.57128906 34.375 28.57128906 34.375 28.57128906 36.375 C24.35995353 37.39861309 20.40939042 37.48989283 16.08300781 37.47265625 C15.02820976 37.47053383 15.02820976 37.47053383 13.95210266 37.46836853 C11.72095363 37.46280109 9.48990742 37.45025475 7.25878906 37.4375 C5.73991031 37.43248079 4.22102997 37.42791862 2.70214844 37.42382812 C-1.00817106 37.41284236 -4.71843095 37.39560034 -8.42871094 37.375 C-8.75871094 38.035 -9.08871094 38.695 -9.42871094 39.375 C-9.75871094 39.045 -10.08871094 38.715 -10.42871094 38.375 C-11.81280849 38.37863656 -13.19679585 38.45695548 -14.57666016 38.56518555 C-15.46582123 38.63257935 -16.3549823 38.69997314 -17.27108765 38.76940918 C-18.73743149 38.88935242 -18.73743149 38.88935242 -20.23339844 39.01171875 C-21.75569565 39.13081604 -21.75569565 39.13081604 -23.30874634 39.25231934 C-26.64096412 39.51580776 -29.97234698 39.7884399 -33.30371094 40.0625 C-34.4293042 40.15359039 -35.55489746 40.24468079 -36.71459961 40.33853149 C-51.47639101 41.53705188 -66.21473944 42.87169482 -80.92871094 44.5625 C-81.6687738 44.64672211 -82.40883667 44.73094421 -83.17132568 44.81771851 C-90.5248839 45.30463086 -90.5248839 45.30463086 -97.42871094 47.375 C-99.01568837 47.5241145 -100.60672043 47.63048338 -102.19824219 47.71875 C-111.92618118 48.47005377 -121.50782941 50.22827052 -131.11621094 51.875 C-132.14393616 52.05040314 -133.17166138 52.22580627 -134.23052979 52.40652466 C-172.83209068 59.03152099 -211.73225826 67.00318763 -248.5144043 80.72070312 C-249.5031958 81.08357422 -250.4919873 81.44644531 -251.51074219 81.8203125 C-252.36901611 82.14531738 -253.22729004 82.47032227 -254.11157227 82.80517578 C-256.64096233 83.42719626 -257.99967254 83.23197792 -260.42871094 82.375 C-255.12344993 79.32405118 -249.78211367 76.34058034 -244.42871094 73.375 C-243.36652344 72.78525391 -242.30433594 72.19550781 -241.20996094 71.58789062 C-222.71554643 61.37222585 -203.96315522 52.43164969 -184.42871094 44.375 C-184.42871094 43.715 -184.42871094 43.055 -184.42871094 42.375 C-183.48382813 42.28992188 -182.53894531 42.20484375 -181.56542969 42.1171875 C-176.49876322 41.38596822 -171.97038731 39.38845205 -167.24121094 37.5 C-115.69876684 17.59131976 -59.69012901 4.90996394 -4.59960938 0.5625 C-3.06071305 0.42958588 -1.52653622 0.23570161 0 0 Z " fill="#082642" transform="translate(448.4287109375,629.625)"/>
<path d="M0 0 C2.34796773 0.06725949 4.65959554 0.19760524 7 0.375 C8.4478865 0.47569513 9.89580441 0.57593946 11.34375 0.67578125 C12.48070312 0.75626709 12.48070312 0.75626709 13.640625 0.83837891 C17.59201683 1.10905579 21.54594348 1.33470465 25.5 1.5625 C26.94792072 1.64706606 28.39583776 1.73169522 29.84375 1.81640625 C31.40609375 1.90728516 31.40609375 1.90728516 33 2 C33.495 2.99 33.495 2.99 34 4 C36.71832296 4.37556047 36.71832296 4.37556047 40.03125 4.4609375 C48.29962275 4.94374693 56.35074454 6.19900485 64.5 7.625 C65.6215448 7.81742279 65.6215448 7.81742279 66.76574707 8.01373291 C79.12775283 10.14191958 91.32861182 12.76086695 103.49414062 15.81494141 C109.12729648 17.21062118 114.18675904 18.42494451 120 18 C120.33 18.66 120.66 19.32 121 20 C123.01523574 20.7464044 125.06857942 21.39058868 127.1328125 21.98828125 C127.75748917 22.1719072 128.38216583 22.35553314 129.02577209 22.54472351 C130.3639763 22.93736355 131.70319615 23.32655525 133.04330444 23.71264648 C136.49038152 24.70594317 139.93031878 25.72341248 143.37109375 26.73828125 C144.04145157 26.93527618 144.71180939 27.13227112 145.40248108 27.3352356 C152.33285932 29.37800774 159.17554506 31.62995673 166 34 C166.99 34.33 167.98 34.66 169 35 C170.3895372 35.53571477 171.77597325 36.07950532 173.16015625 36.62890625 C173.95357422 36.94150391 174.74699219 37.25410156 175.56445312 37.57617188 C177.23453269 38.23558562 178.90380145 38.89705645 180.57226562 39.56054688 C181.36439453 39.87185547 182.15652344 40.18316406 182.97265625 40.50390625 C183.69718994 40.79080322 184.42172363 41.0777002 185.16821289 41.37329102 C186.99271413 42.10790282 186.99271413 42.10790282 189 42 C189 42.66 189 43.32 189 44 C189.83917969 44.21499146 189.83917969 44.21499146 190.6953125 44.43432617 C198.50586705 46.59180351 205.69142416 49.85517565 213 53.3125 C213.64674683 53.61624542 214.29349365 53.91999084 214.95983887 54.23294067 C224.51840341 58.72949535 233.9367775 63.45185955 243.25 68.4375 C244.28898437 68.99155518 245.32796875 69.54561035 246.3984375 70.11645508 C252.92026513 73.66844589 259.01085553 77.61032298 265 82 C261.34635163 83.21788279 260.60855401 82.64897183 257.1875 81.125 C253.44252198 79.5348922 250.0788411 78.42935169 246 78 C246 77.34 246 76.68 246 76 C245.24976563 75.90203125 244.49953125 75.8040625 243.7265625 75.703125 C242.70304687 75.55359375 241.67953125 75.4040625 240.625 75.25 C239.62726563 75.11078125 238.62953125 74.9715625 237.6015625 74.828125 C234.69016672 74.15869343 232.46924106 73.39580465 229.765625 72.2265625 C221.83639938 68.94591424 213.44053602 67.1554359 205.125 65.125 C204.23108551 64.90523499 203.33717102 64.68546997 202.41616821 64.45904541 C197.05966307 63.14313218 191.69926982 61.84429735 186.33514404 60.55981445 C184.29700914 60.07120332 182.2599796 59.577986 180.22314453 59.08398438 C149.12703569 51.62573003 117.04945456 47.23497378 85.3125 43.5 C84.62130066 43.41796326 83.93010132 43.33592651 83.21795654 43.25140381 C74.71550259 42.24679965 74.71550259 42.24679965 66.16796875 41.96875 C65.12253906 41.9790625 64.07710937 41.989375 63 42 C62.67 41.67 62.34 41.34 62 41 C59.13350738 40.70688612 56.28395878 40.47430267 53.41015625 40.28125 C52.52696213 40.21867508 51.64376801 40.15610016 50.73381042 40.09162903 C47.84372154 39.8889706 44.9531868 39.69393102 42.0625 39.5 C41.08381958 39.43307953 40.10513916 39.36615906 39.09680176 39.29721069 C18.75240367 37.90891472 -1.59856334 36.69700837 -22 37 C-22 32.91797015 -19.94513912 30.66269875 -17.6875 27.4375 C-13.05214843 20.67074839 -8.72654717 13.75235779 -4.49291992 6.72827148 C-3.82933472 5.62914429 -3.82933472 5.62914429 -3.15234375 4.5078125 C-2.76038818 3.85441895 -2.36843262 3.20102539 -1.96459961 2.52783203 C-1 1 -1 1 0 0 Z " fill="#082641" transform="translate(570,630)"/>
<path d="M0 0 C-0.76304913 4.22355884 -2.07201983 7.51312149 -4.00341797 11.36328125 C-4.31085938 11.98020844 -4.61830078 12.59713562 -4.93505859 13.23275757 C-5.94832521 15.2622878 -6.97010011 17.28739958 -7.9921875 19.3125 C-8.70148638 20.72803753 -9.41031105 22.14381277 -10.11868286 23.55981445 C-11.60298334 26.52381872 -13.09118336 29.48581871 -14.58251953 32.44628906 C-16.49002034 36.23302989 -18.39057961 40.02319858 -20.28857231 43.81471252 C-21.75209398 46.73758954 -23.21787686 49.65932736 -24.68448257 52.58065796 C-25.3857265 53.97746547 -26.08660501 55.3744565 -26.78710556 56.77163696 C-27.76859874 58.7277134 -28.75277689 60.68241443 -29.73779297 62.63671875 C-30.29659149 63.74748779 -30.85539001 64.85825684 -31.43112183 66.00268555 C-31.94885162 66.99179932 -32.46658142 67.98091309 -33 69 C-33.34804247 69.87321899 -33.69608494 70.74643799 -34.05467415 71.64611816 C-36 74 -36 74 -39.81547546 74.63923645 C-41.44137426 74.67152471 -43.06795813 74.67611937 -44.6940918 74.65942383 C-45.5821048 74.66990753 -46.4701178 74.68039124 -47.38504028 74.69119263 C-50.32345189 74.72001938 -53.26069065 74.71364222 -56.19921875 74.70703125 C-58.23518863 74.72014167 -60.27114548 74.73544386 -62.30708313 74.75285339 C-67.66817043 74.79279297 -73.02891818 74.80289962 -78.39013672 74.80688477 C-83.8598059 74.81619932 -89.32927416 74.8536023 -94.79882812 74.88867188 C-105.53254263 74.95333896 -116.26610776 74.98650425 -127 75 C-126.99962028 75.62356164 -126.99924056 76.24712328 -126.99884933 76.88958073 C-126.97641491 113.94202932 -126.95928508 150.9944769 -126.94893467 188.04693091 C-126.94768414 192.5073615 -126.9463898 196.96779208 -126.94506836 201.42822266 C-126.94467489 202.76007021 -126.94467489 202.76007021 -126.94427348 204.11882377 C-126.93993587 218.44860129 -126.93205893 232.77837476 -126.9228472 247.10814989 C-126.91345738 261.83910718 -126.90793316 276.57006237 -126.90591151 291.30102253 C-126.90454729 300.3725339 -126.90025698 309.44403378 -126.89208353 318.51554161 C-126.88675016 324.75727382 -126.8852105 330.9990002 -126.88649862 337.24073452 C-126.88713183 340.82843766 -126.88624241 344.41612092 -126.88079453 348.00382042 C-126.85665602 364.69597948 -127.12990631 381.32888066 -128 398 C-135.68790839 396.91562614 -135.68790839 396.91562614 -139.06420898 396.18383789 C-139.77862656 396.03020279 -140.49304413 395.87656769 -141.22911072 395.71827698 C-142.35126732 395.47294472 -142.35126732 395.47294472 -143.49609375 395.22265625 C-144.28846939 395.05124619 -145.08084503 394.87983612 -145.89723206 394.70323181 C-147.56398421 394.3421403 -149.23047973 393.97986231 -150.89672852 393.61645508 C-153.42598351 393.0650109 -155.95607608 392.51755216 -158.48632812 391.97070312 C-160.11463441 391.61742285 -161.74289128 391.26391471 -163.37109375 390.91015625 C-164.11717392 390.74862564 -164.86325409 390.58709503 -165.63194275 390.42066956 C-170.44576933 389.36886002 -175.22471296 388.21512948 -180 387 C-180 386.67 -180 386.34 -180 386 C-169.76932631 386.45980556 -159.95860953 388.78697566 -150 391 C-148.29309413 391.37297012 -146.58606362 391.74537026 -144.87890625 392.1171875 C-143.25249072 392.47344081 -141.62618444 392.8301933 -140 393.1875 C-138.86099243 393.43753784 -138.86099243 393.43753784 -137.69897461 393.69262695 C-134.74353649 394.35017901 -131.87469558 395.04176814 -129 396 C-129 289.41 -129 182.82 -129 73 C-98.64 73 -68.28 73 -37 73 C-36.34 71.02 -35.68 69.04 -35 67 C-34.4078683 65.72895327 -33.78006519 64.47359093 -33.109375 63.2421875 C-32.7366748 62.54843018 -32.36397461 61.85467285 -31.97998047 61.13989258 C-31.37114014 60.01877075 -31.37114014 60.01877075 -30.75 58.875 C-26.31902575 50.58952605 -22.06401882 42.22224819 -17.875 33.8125 C-17.57490021 33.21034668 -17.27480042 32.60819336 -16.96560669 31.98779297 C-15.50487631 29.05616116 -14.04568612 26.12376753 -12.58740234 23.19091797 C-10.46058512 18.9156948 -8.32476608 14.64500619 -6.1875 10.375 C-5.57676126 9.15367666 -4.96607688 7.93232614 -4.35546875 6.7109375 C-3.5703125 5.140625 -2.78515625 3.5703125 -2 2 C-3.80056713 2.04439618 -3.80056713 2.04439618 -5.63750935 2.08968925 C-39.07195712 2.89854953 -72.4894673 3.15196386 -105.93291612 3.13529945 C-110.73779303 3.13297319 -115.5426664 3.13274795 -120.34754372 3.13381577 C-121.04508665 3.133969 -121.74262958 3.13412223 -122.46131018 3.13428011 C-123.88040481 3.13459998 -125.29949943 3.1349242 -126.71859405 3.1352527 C-139.84242183 3.13806483 -152.96624248 3.13488682 -166.09006909 3.12945233 C-177.26195388 3.12496916 -188.43382828 3.12578101 -199.60571289 3.13037109 C-212.72891163 3.13576072 -225.85210426 3.13781008 -238.97530395 3.13475883 C-240.38185457 3.13444042 -241.7884052 3.13412605 -243.19495583 3.13381577 C-243.8862207 3.13366149 -244.57748558 3.13350721 -245.28969788 3.13334826 C-250.07822653 3.1324976 -254.86675113 3.13393164 -259.65527916 3.13629532 C-315.00082193 3.15968863 -315.00082193 3.15968863 -340 2 C-340 1.67 -340 1.34 -340 1 C-311.99410383 0.8697648 -283.9881966 0.74217497 -255.98227368 0.61781773 C-252.60390503 0.60281433 -249.22553647 0.58779048 -245.84716797 0.57275391 C-245.17516902 0.56976329 -244.50317007 0.56677268 -243.81080751 0.56369144 C-233.86458875 0.51938272 -223.91837692 0.47371222 -213.97216797 0.42724609 C-142.64762141 0.0945962 -71.32533199 -0.07517462 0 0 Z " fill="#10583F" transform="translate(844,235)"/>
<path d="M0 0 C0.33 0 0.66 0 1 0 C1.17982194 17.02071058 1.34493014 34.04154607 1.5 51.0625 C1.51187725 52.3653595 1.5237545 53.66821899 1.53599167 55.01055908 C1.96899538 103.00730911 2.08860556 151.00143337 2.0625 199 C2.06207577 199.80333346 2.06165154 200.60666692 2.06121445 201.43434381 C2.05019203 221.9562414 2.03020095 242.47812132 2 263 C3.32 263.33 4.64 263.66 6 264 C4.35 264 2.7 264 1 264 C1 263.01 1 262.02 1 261 C0.34 260.67 -0.32 260.34 -1 260 C-0.83177734 259.15695312 -0.66355469 258.31390625 -0.49023438 257.4453125 C0.02561978 253.81994705 0.00216914 250.53200089 -0.15625 246.875 C-0.21094242 245.45127521 -0.26503202 244.02752717 -0.31860352 242.60375977 C-0.36345383 241.48096115 -0.36345383 241.48096115 -0.40921021 240.33547974 C-0.95144595 226.38698918 -1.01054296 212.51355747 -0.5625 198.5625 C-0.51182479 196.95198746 -0.46120616 195.34147314 -0.41064453 193.73095703 C-0.3858905 192.94267517 -0.36113647 192.15439331 -0.33563232 191.34222412 C-0.31124084 190.56284485 -0.28684937 189.78346558 -0.26171875 188.98046875 C-0.2374884 188.21091858 -0.21325806 187.44136841 -0.18829346 186.64849854 C0.32481408 169.82207898 0.09624884 153.0119572 -0.42980957 136.19033813 C-1.84378179 90.80736277 -0.7181554 45.38811387 0 0 Z " fill="#1B7A5D" transform="translate(634,353)"/>
<path d="M0 0 C2.44865595 2.44865595 2.82874679 4.25747533 3.875 7.5625 C12.46879578 32.94999076 27.21533728 56.32180587 41.17675781 79.02685547 C42.98918686 81.98236711 44.78971603 84.94477039 46.5859375 87.91015625 C53.48502317 99.29858095 60.49675347 110.60534542 67.63574219 121.84472656 C69.73228519 125.15687431 71.80339417 128.48472117 73.875 131.8125 C78.61858934 139.42656401 83.43827881 146.99176177 88.26708984 154.55200195 C88.83766113 155.4462085 89.40823242 156.34041504 89.99609375 157.26171875 C90.50325928 158.05537842 91.0104248 158.84903809 91.53295898 159.66674805 C92.01708252 160.43672119 92.50120605 161.20669434 93 162 C93.57758057 162.88147705 94.15516113 163.7629541 94.75024414 164.67114258 C95.16266357 165.43966553 95.57508301 166.20818848 96 167 C95.67 167.66 95.34 168.32 95 169 C81.63550105 148.5769161 81.63550105 148.5769161 75.48828125 138.3359375 C74.07311907 135.92885075 74.07311907 135.92885075 72 134 C70.97039616 132.3093437 69.97603461 130.59713798 69 128.875 C66.21450643 124.04337227 63.34282382 119.28409181 60.375 114.5625 C59.95637695 113.89597412 59.53775391 113.22944824 59.10644531 112.54272461 C58.21196615 111.11861963 57.31743304 109.69454852 56.42285156 108.27050781 C53.85183033 104.16781436 51.30065052 100.05287724 48.75 95.9375 C48.21173584 95.07229736 47.67347168 94.20709473 47.11889648 93.31567383 C44.09136987 88.43524933 41.11822227 83.52822367 38.19921875 78.58203125 C37.2570752 76.99757202 37.2570752 76.99757202 36.29589844 75.38110352 C35.07646775 73.32655826 33.86711142 71.26599309 32.66894531 69.19897461 C32.1169043 68.27221924 31.56486328 67.34546387 30.99609375 66.390625 C30.27184204 65.1536084 30.27184204 65.1536084 29.53295898 63.89160156 C27.76363357 61.70833459 26.74280945 61.3413274 24 61 C24 60.34 24 59.68 24 59 C24.99 58.505 24.99 58.505 26 58 C23.525 53.545 23.525 53.545 21 49 C20.01 49.495 20.01 49.495 19 50 C18.01 49.34 17.02 48.68 16 48 C16.40347656 47.48695313 16.80695313 46.97390625 17.22265625 46.4453125 C18.34555022 43.8238955 18.34555022 43.8238955 16.62109375 40.6796875 C15.9092223 39.40241262 15.18032209 38.13452666 14.4375 36.875 C13.67816331 35.53601947 12.92035268 34.19617238 12.1640625 32.85546875 C11.79055664 32.2011084 11.41705078 31.54674805 11.03222656 30.87255859 C9.24646851 27.63302116 7.77212163 24.24693672 6.30078125 20.85546875 C4.57790016 18.39790563 2.81235828 17.88148543 0 17 C0.66 16.67 1.32 16.34 2 16 C3.152143 12.54357099 2.80875337 11.84707 1.5625 8.5625 C0.33348958 5.30534683 0 3.61614577 0 0 Z " fill="#11513F" transform="translate(416,525)"/>
<path d="M0 0 C0.66 0 1.32 0 2 0 C1.71715982 1.77226453 1.42339502 3.542788 1.125 5.3125 C0.96257812 6.29863281 0.80015625 7.28476562 0.6328125 8.30078125 C0 11 0 11 -2 14 C-2.66 14 -3.32 14 -4 14 C-4.13245117 14.52319824 -4.26490234 15.04639648 -4.40136719 15.58544922 C-6.84029536 24.44270652 -10.59175424 32.72193621 -14.25 41.125 C-14.9002376 42.62999326 -15.54997999 44.13520058 -16.19921875 45.640625 C-19.65361415 53.64033461 -23.14088137 61.62574524 -26.6416626 69.60525513 C-27.98770023 72.6751682 -29.32259268 75.74925932 -30.63769531 78.83251953 C-31.38599072 80.57237341 -32.15300088 82.30600176 -33 84 C-31.81446533 83.63648438 -30.62893066 83.27296875 -29.4074707 82.8984375 C-25.00203874 81.54962645 -20.59386628 80.20997295 -16.18481445 78.87304688 C-14.27813126 78.29350594 -12.37219694 77.71149517 -10.46704102 77.12695312 C-7.72606167 76.28643377 -4.98249843 75.45487801 -2.23828125 74.625 C-1.38913651 74.36251465 -0.53999176 74.1000293 0.33488464 73.82958984 C4.31774093 72.63416922 7.78983405 71.64073251 12 72 C11 74 11 74 8.67773438 74.88208008 C7.15116211 75.32136841 7.15116211 75.32136841 5.59375 75.76953125 C4.46461182 76.09896729 3.33547363 76.42840332 2.17211914 76.76782227 C0.96031982 77.11256592 -0.25147949 77.45730957 -1.5 77.8125 C-3.97010801 78.52584805 -6.44016011 79.23938971 -8.91015625 79.953125 C-10.12074707 80.30052734 -11.33133789 80.64792969 -12.57861328 81.00585938 C-15.54010828 81.86637084 -18.48893321 82.7557834 -21.43359375 83.671875 C-22.20832031 83.91059326 -22.98304688 84.14931152 -23.78125 84.39526367 C-25.18064451 84.82829641 -26.57794692 85.26817135 -27.97265625 85.71606445 C-31.31380412 86.73439809 -33.68605459 87.32059479 -37 86 C-36.54560547 85.12601563 -36.54560547 85.12601563 -36.08203125 84.234375 C-29.77272844 73.10476669 -29.77272844 73.10476669 -27 61 C-26.34 61 -25.68 61 -25 61 C-24.74191055 60.18569267 -24.74191055 60.18569267 -24.47860718 59.35493469 C-22.64608286 53.70132735 -20.51449044 48.24917293 -18.1640625 42.79296875 C-17.80283295 41.94632156 -17.44160339 41.09967438 -17.06942749 40.22737122 C-15.92460899 37.54597856 -14.77498356 34.86668097 -13.625 32.1875 C-12.48584963 29.52472391 -11.34770392 26.86152003 -10.20965576 24.19827271 C-9.47770066 22.48558648 -8.74532739 20.77307889 -8.01251221 19.0607605 C-5.30203856 12.72337911 -2.62976247 6.37136708 0 0 Z " fill="#071523" transform="translate(235,563)"/>
<path d="M0 0 C6.46730495 -0.25512051 11.53777681 0.35383759 17.625 2.5 C18.78733154 2.90158325 18.78733154 2.90158325 19.97314453 3.3112793 C32.71580579 7.88606939 43.46480204 14.54886768 54 23 C55.051875 23.78375 56.10375 24.5675 57.1875 25.375 C65.54908479 33.1791458 74.85023227 43.83264168 78 55 C78.66 55.33 79.32 55.66 80 56 C84.38872925 67.37079852 87.58395178 79.78988928 88 92 C88.05994141 93.44439453 88.05994141 93.44439453 88.12109375 94.91796875 C88.27983181 102.13588154 87.40445041 108.92758902 86 116 C85.67 116 85.34 116 85 116 C85.01571045 115.16976318 85.0314209 114.33952637 85.04760742 113.48413086 C85.75187552 92.00706294 85.75187552 92.00706294 82 71 C81.67128906 69.86691406 81.34257813 68.73382813 81.00390625 67.56640625 C75.94742552 51.87206987 67.72108776 39.43008144 56 28 C54.98486328 26.98873047 54.98486328 26.98873047 53.94921875 25.95703125 C39.07836447 12.0414781 19.75952258 4.57353068 0 1 C0 0.67 0 0.34 0 0 Z " fill="#135C45" transform="translate(524,401)"/>
<path d="M0 0 C4.60642406 4.15250636 7.58971743 8.81811039 10.75 14.125 C11.24371094 14.93582031 11.73742187 15.74664063 12.24609375 16.58203125 C15.85419324 22.56257972 15.85419324 22.56257972 17 26 C12.78866447 27.02361309 8.83810136 27.11489283 4.51171875 27.09765625 C3.80852005 27.0962413 3.10532135 27.09482635 2.3808136 27.09336853 C0.14966456 27.08780109 -2.08138164 27.07525475 -4.3125 27.0625 C-5.83137875 27.05748079 -7.35025909 27.05291862 -8.86914062 27.04882812 C-12.57946012 27.03784236 -16.28972001 27.02060034 -20 27 C-20.33 27.66 -20.66 28.32 -21 29 C-21.33 28.67 -21.66 28.34 -22 28 C-24.77573246 28.12722507 -27.51834402 28.31964433 -30.28515625 28.55859375 C-32.03189927 28.69858986 -33.77864412 28.83856301 -35.52539062 28.97851562 C-38.26977125 29.20492885 -41.01396567 29.43343386 -43.75805664 29.66333008 C-55.20795916 30.61443014 -66.5066059 31.22842626 -78 31 C-78 30.67 -78 30.34 -78 30 C-57.79557278 27.87695908 -37.60182658 25.85470276 -17.3125 24.75 C-16.58389771 24.70925354 -15.85529541 24.66850708 -15.10461426 24.62652588 C-5.72821144 24.11105525 3.60973788 23.90052493 13 24 C9.09086548 17.27594462 5.16386857 10.57250855 1.06640625 3.9609375 C0 2 0 2 0 0 Z " fill="#091A28" transform="translate(460,640)"/>
<path d="M0 0 C1 3 1 3 -0.02539062 5.66259766 C-0.56357422 6.73558105 -1.10175781 7.80856445 -1.65625 8.9140625 C-2.09612747 9.80412743 -2.09612747 9.80412743 -2.54489136 10.71217346 C-3.18445262 12.00490788 -3.82826917 13.2955436 -4.47576904 14.58432007 C-6.23823326 18.09585751 -7.96601202 21.62438635 -9.6953125 25.15234375 C-10.05517242 25.88505997 -10.41503235 26.61777618 -10.78579712 27.37269592 C-14.47208505 34.90764263 -17.93617551 42.53724762 -21.375 50.1875 C-28.42629711 65.84367422 -35.73845147 81.37023452 -43.10342407 96.88087463 C-46.43575505 103.90497986 -49.72176664 110.95051772 -53 118 C-54.26076438 115.08078653 -53.98463549 113.9581904 -52.86694336 110.91674805 C-52.28650136 109.69267897 -51.69315983 108.47467701 -51.08984375 107.26171875 C-50.77116333 106.59656754 -50.45248291 105.93141632 -50.12414551 105.24610901 C-49.43346016 103.80741309 -48.73747947 102.37125001 -48.03683472 100.93737793 C-46.16851081 97.11370106 -44.33720417 93.27229214 -42.5 89.43359375 C-41.9347184 88.25683578 -41.9347184 88.25683578 -41.35801697 87.05630493 C-37.28652344 78.56104367 -33.42733841 69.97308021 -29.59957886 61.36581421 C-26.167001 53.64928068 -22.56148387 46.05926293 -18.75170898 38.52197266 C-15.5049195 31.9940026 -12.50139101 25.35264494 -9.47143555 18.72192383 C-6.54572891 12.32751708 -3.64389176 6.01995744 0 0 Z " fill="#071421" transform="translate(383,238)"/>
<path d="M0 0 C-7.59 3.96 -15.18 7.92 -23 12 C-16.26647146 11.19216799 -16.26647146 11.19216799 -9.90625 9.625 C-9.02066406 9.36203125 -8.13507813 9.0990625 -7.22265625 8.828125 C-5.87494141 8.41820312 -5.87494141 8.41820312 -4.5 8 C1.68920163 6.11748817 7.5481167 4.60297975 14 4 C13 6 13 6 10.31396484 6.92626953 C8.53046631 7.3997583 8.53046631 7.3997583 6.7109375 7.8828125 C5.37335173 8.24552928 4.03578753 8.6083256 2.69824219 8.97119141 C1.99227905 9.15949524 1.28631592 9.34779907 0.55895996 9.54180908 C-11.51923254 12.76709357 -23.38720611 16.27385598 -35.09228516 20.69970703 C-35.9538623 21.01794434 -36.81543945 21.33618164 -37.703125 21.6640625 C-38.44208008 21.94717285 -39.18103516 22.2302832 -39.94238281 22.52197266 C-42.31202884 23.0724908 -43.71822651 22.76895638 -46 22 C-40.68569269 18.96554658 -35.34621166 15.97782677 -30 13 C-28.92911133 12.40058594 -27.85822266 11.80117188 -26.75488281 11.18359375 C-23.84436264 9.55980397 -20.92883165 7.94638044 -18.00701904 6.34307861 C-16.26265099 5.38197041 -14.52508466 4.40855117 -12.78759766 3.43505859 C-11.70784668 2.84547363 -10.6280957 2.25588867 -9.515625 1.6484375 C-8.54915039 1.11395996 -7.58267578 0.57948242 -6.58691406 0.02880859 C-4 -1 -4 -1 0 0 Z " fill="#071524" transform="translate(234,690)"/>
<path d="M0 0 C0.66 0 1.32 0 2 0 C3.85638226 3.80619129 5.7076563 7.61481041 7.55419922 11.42578125 C8.18332711 12.72236283 8.81385541 14.01826587 9.44580078 15.31347656 C10.35296172 17.17337011 11.25508803 19.03563141 12.15625 20.8984375 C12.70087891 22.01911621 13.24550781 23.13979492 13.80664062 24.29443359 C15 27 15 27 15 29 C15.66 29.33 16.32 29.66 17 30 C17.88461304 31.61521912 17.88461304 31.61521912 18.79052734 33.73217773 C19.13532135 34.52278091 19.48011536 35.31338409 19.83535767 36.12794495 C20.20679901 36.99193405 20.57824036 37.85592316 20.9609375 38.74609375 C24.20944715 46.13635958 27.62412193 53.40472189 31.2890625 60.59765625 C31.94705841 61.89320938 31.94705841 61.89320938 32.61834717 63.2149353 C34.41297577 66.74135377 36.2141796 70.26428758 38.02490234 73.7824707 C39.37167282 76.4040234 40.70617145 79.03152641 42.0390625 81.66015625 C42.45346588 82.45688248 42.86786926 83.2536087 43.29483032 84.07447815 C43.66627167 84.8105278 44.03771301 85.54657745 44.42041016 86.30493164 C44.75078278 86.94854141 45.0811554 87.59215118 45.42153931 88.25526428 C46 90 46 90 45 93 C37.54960098 79.04101312 30.41296682 64.93723814 23.37573242 50.76586914 C22.19280932 48.38763742 21.00224603 46.01347994 19.80859375 43.640625 C18.12124773 40.26811186 16.5181409 36.86154818 14.9375 33.4375 C12.70008231 28.59944332 10.42018338 23.78411581 8.1015625 18.984375 C7.34951538 17.42505249 7.34951538 17.42505249 6.58227539 15.83422852 C5.57683654 13.75244517 4.5682573 11.67217535 3.55639648 9.59350586 C2.86525757 8.16083374 2.86525757 8.16083374 2.16015625 6.69921875 C1.74386963 5.84158936 1.32758301 4.98395996 0.89868164 4.1003418 C0 2 0 2 0 0 Z " fill="#071724" transform="translate(463,240)"/>
<path d="M0 0 C-3.43237403 1.88992446 -6.94356744 2.93324899 -10.6875 4.0625 C-23.80558026 8.26932703 -35.68554657 14.8610909 -46 24 C-46.680625 24.53882813 -47.36125 25.07765625 -48.0625 25.6328125 C-54.15706065 30.56083615 -58.55067649 36.59164599 -63 43 C-63.5465625 43.76828125 -64.093125 44.5365625 -64.65625 45.328125 C-69.99872404 53.45550572 -72.84604464 62.86450219 -76 72 C-76.33 72 -76.66 72 -77 72 C-76.18441903 57.86326316 -67.7993702 45.39907952 -60 34 C-59.67 33.34 -59.34 32.68 -59 32 C-57.3967814 30.6014476 -55.78844587 29.20837278 -54.15625 27.84375 C-51.73111723 25.77008575 -49.40372642 23.60530224 -47.0625 21.4375 C-43.43866221 18.1511494 -39.83791294 15.39913465 -35.59375 12.97265625 C-33.81765389 11.97446652 -33.81765389 11.97446652 -32 10 C-30.65426742 9.32739865 -29.28111409 8.70876088 -27.89453125 8.125 C-27.07533203 7.77953125 -26.25613281 7.4340625 -25.41210938 7.078125 C-24.12530273 6.54445313 -24.12530273 6.54445313 -22.8125 6 C-21.97396484 5.64421875 -21.13542969 5.2884375 -20.27148438 4.921875 C-13.53493724 2.10314802 -7.42953978 -0.36241657 0 0 Z " fill="#145C47" transform="translate(492,402)"/>
<path d="M0 0 C1.31923631 3.95770892 0.33651239 5.06809431 -1.40234375 8.80859375 C-1.80564156 9.68819008 -1.80564156 9.68819008 -2.21708679 10.58555603 C-2.80536154 11.86578632 -3.39809906 13.14397296 -3.99468994 14.42034912 C-5.27765077 17.16525573 -6.53966103 19.91962277 -7.80303955 22.67358398 C-8.47605168 24.14007276 -9.15019039 25.60604497 -9.82537842 27.0715332 C-13.84349971 35.80153522 -17.7326076 44.58842075 -21.625 53.375 C-22.30578151 54.90948004 -22.98668689 56.44390513 -23.66772461 57.97827148 C-24.91084162 60.77922821 -26.15348179 63.58039526 -27.39550781 66.38183594 C-29.26119295 70.58899566 -31.1299568 74.79477596 -33 79 C-33.90202956 76.51129794 -34.08462506 75.27193663 -33.28735352 72.70996094 C-32.90506592 71.89301758 -32.52277832 71.07607422 -32.12890625 70.234375 C-31.71962891 69.34492188 -31.31035156 68.45546875 -30.88867188 67.5390625 C-30.45103516 66.61867188 -30.01339844 65.69828125 -29.5625 64.75 C-29.12873047 63.81414062 -28.69496094 62.87828125 -28.24804688 61.9140625 C-27.17566685 59.6043209 -26.09273597 57.30016329 -25 55 C-25.66 55 -26.32 55 -27 55 C-26.67 54.34 -26.34 53.68 -26 53 C-25.34 53.33 -24.68 53.66 -24 54 C-23.63261719 52.80503906 -23.26523437 51.61007812 -22.88671875 50.37890625 C-20.65785135 43.7027376 -17.71365538 37.34206159 -14.8125 30.9375 C-14.52508942 30.29914215 -14.23767883 29.6607843 -13.94155884 29.00308228 C-9.53345329 19.21328207 -4.96348036 9.52208467 0 0 Z " fill="#071624" transform="translate(291,437)"/>
<path d="M0 0 C1.35047376 4.05142129 -0.19355984 6.16001171 -1.98046875 9.78125 C-2.30466293 10.45879837 -2.62885712 11.13634674 -2.96287537 11.83442688 C-3.66364497 13.29694818 -4.3687573 14.75739482 -5.07769775 16.2159729 C-6.94811961 20.06539221 -8.78685767 23.92991348 -10.62890625 27.79296875 C-11.00106262 28.57137619 -11.37321899 29.34978363 -11.75665283 30.15177917 C-15.67033126 38.35862378 -19.36023507 46.65587783 -23.01635742 54.98046875 C-26.25922038 62.36155452 -29.59959388 69.69008741 -33 77 C-34.07589617 73.78808677 -33.98573255 72.19743939 -32.57568359 69.13476562 C-32.23673569 68.38363998 -31.89778778 67.63251434 -31.54856873 66.85862732 C-31.16902542 66.0493428 -30.78948212 65.24005829 -30.3984375 64.40625 C-30.01007217 63.55446671 -29.62170685 62.70268341 -29.22157288 61.8250885 C-27.95053082 59.04478931 -26.6630798 56.27244155 -25.375 53.5 C-24.50043798 51.59670695 -23.62682489 49.69297759 -22.75415039 47.78881836 C-20.58436554 43.06161183 -18.40107576 38.34078878 -16.21356201 33.62176514 C-14.75586528 30.47257422 -13.30678526 27.31948653 -11.859375 24.16555786 C-10.38921899 20.96277874 -8.91377619 17.76246334 -7.4375 14.5625 C-6.90882324 13.41652344 -6.38014648 12.27054687 -5.83544922 11.08984375 C-5.35221191 10.05085938 -4.86897461 9.011875 -4.37109375 7.94140625 C-3.95786865 7.05138916 -3.54464355 6.16137207 -3.11889648 5.24438477 C-2 3 -2 3 0 0 Z " fill="#071422" transform="translate(327,358)"/>
<path d="M0 0 C4.72723693 0.55254571 8.17640476 1.88751412 12.359375 4.1328125 C12.94865784 4.44773651 13.53794067 4.76266052 14.14508057 5.08712769 C15.38769254 5.75380545 16.62804283 6.4247142 17.86621094 7.09960938 C19.72528965 8.11154958 21.59225253 9.10749712 23.4609375 10.1015625 C30.64025524 13.95627301 37.4518463 18.1296448 44 23 C40.34635163 24.21788279 39.60855401 23.64897183 36.1875 22.125 C32.44252198 20.5348922 29.0788411 19.42935169 25 19 C25 18.34 25 17.68 25 17 C24.030625 16.87625 23.06125 16.7525 22.0625 16.625 C20.5465625 16.315625 20.5465625 16.315625 19 16 C18.67 15.34 18.34 14.68 18 14 C20.31 14 22.62 14 25 14 C16.75 9.71 8.5 5.42 0 1 C0 0.67 0 0.34 0 0 Z " fill="#071725" transform="translate(791,689)"/>
<path d="M0 0 C5.73736071 0.43030205 9.41083156 2.79426072 14 6 C14.86625 6.598125 15.7325 7.19625 16.625 7.8125 C23.92794602 14.53889765 28.73241131 22.54133215 29.3828125 32.546875 C29.69085216 41.19751364 29.58658381 48.40347057 25 56 C23.63161148 52.30535099 24.50284094 50.53539665 26 47 C27.95096426 36.07166639 26.99419533 26.10821468 20.875 16.6875 C15.26128853 9.33649256 8.80315948 4.72097657 0 2 C0 1.34 0 0.68 0 0 Z " fill="#071422" transform="translate(521,458)"/>
<path d="M0 0 C2.44865595 2.44865595 2.82874679 4.25747533 3.875 7.5625 C9.12633014 23.09383403 16.88956832 38.29689706 25.49707031 52.22998047 C28.05577645 56.49962866 28.05577645 56.49962866 27.73046875 59.41796875 C27.36888672 60.20107422 27.36888672 60.20107422 27 61 C26.01 61 25.02 61 24 61 C24 60.34 24 59.68 24 59 C24.99 58.505 24.99 58.505 26 58 C23.525 53.545 23.525 53.545 21 49 C20.01 49.495 20.01 49.495 19 50 C18.01 49.34 17.02 48.68 16 48 C16.40347656 47.48695313 16.80695313 46.97390625 17.22265625 46.4453125 C18.34555022 43.8238955 18.34555022 43.8238955 16.62109375 40.6796875 C15.9092223 39.40241262 15.18032209 38.13452666 14.4375 36.875 C13.67816331 35.53601947 12.92035268 34.19617238 12.1640625 32.85546875 C11.79055664 32.2011084 11.41705078 31.54674805 11.03222656 30.87255859 C9.24646851 27.63302116 7.77212163 24.24693672 6.30078125 20.85546875 C4.57790016 18.39790563 2.81235828 17.88148543 0 17 C0.66 16.67 1.32 16.34 2 16 C3.152143 12.54357099 2.80875337 11.84707 1.5625 8.5625 C0.33348958 5.30534683 0 3.61614577 0 0 Z " fill="#145D46" transform="translate(416,525)"/>
<path d="M0 0 C2.82857889 1.41428945 3.24791214 3.30158522 4.625 6.125 C7.51377923 11.56270208 10.79082069 15.64672263 16 19 C18.14300991 19.69607394 18.14300991 19.69607394 20 20 C20 20.66 20 21.32 20 22 C29.91282443 24.64341985 39.82407634 24.19255751 50 24 C46.44687827 27.55312173 42.80522516 27.19091936 38 27.25 C25.82866143 27.20320965 17.07911356 24.33423272 8 16 C3.56772156 10.91775847 0.80525022 6.77588598 0 0 Z " fill="#061423" transform="translate(476,505)"/>
<path d="M0 0 C1.15371094 0.00322266 2.30742187 0.00644531 3.49609375 0.00976562 C4.68589844 0.01814453 5.87570312 0.02652344 7.1015625 0.03515625 C8.92107422 0.04192383 8.92107422 0.04192383 10.77734375 0.04882812 C13.76046757 0.06057271 16.74348929 0.07699785 19.7265625 0.09765625 C19.7265625 0.42765625 19.7265625 0.75765625 19.7265625 1.09765625 C19.0466626 1.14776855 18.3667627 1.19788086 17.66625977 1.24951172 C14.53997933 1.48380345 11.41456102 1.72816308 8.2890625 1.97265625 C7.21978516 2.05128906 6.15050781 2.12992187 5.04882812 2.2109375 C-5.40918018 2.88502798 -5.40918018 2.88502798 -15.2734375 6.09765625 C-16.85469981 6.34070212 -18.43853381 6.56711477 -20.0234375 6.78515625 C-26.31512062 7.85041477 -31.57802418 10.24816345 -37.3046875 12.953125 C-40.2734375 14.09765625 -40.2734375 14.09765625 -43.2734375 13.09765625 C-36.1969982 9.11451078 -29.1278312 6.21062014 -21.3984375 3.78515625 C-20.59043701 3.5310498 -19.78243652 3.27694336 -18.94995117 3.01513672 C-12.59649811 1.07835722 -6.67761757 -0.03305751 0 0 Z " fill="#091721" transform="translate(499.2734375,377.90234375)"/>
<path d="M0 0 C1.15346346 3.36394894 0.87346297 5.10807681 -0.4753418 8.36621094 C-0.99664925 9.64839508 -0.99664925 9.64839508 -1.52848816 10.95648193 C-1.91482925 11.87318665 -2.30117035 12.78989136 -2.69921875 13.734375 C-3.09067581 14.6863678 -3.48213287 15.6383606 -3.88545227 16.61920166 C-4.7168141 18.63534823 -5.5535665 20.6492791 -6.39526367 22.66113281 C-7.67500595 25.72013514 -8.93957413 28.78503859 -10.20117188 31.8515625 C-11.0121353 33.81286639 -11.82395727 35.77381554 -12.63671875 37.734375 C-13.01293869 38.64298279 -13.38915863 39.55159058 -13.77677917 40.48773193 C-15.99030754 45.77266167 -18.37918822 50.90432694 -21 56 C-22.44810884 51.65567349 -20.51382623 48.69211928 -18.80859375 44.66796875 C-18.29511131 43.42567253 -18.29511131 43.42567253 -17.77125549 42.15827942 C-16.66888256 39.49756273 -15.55332126 36.84260091 -14.4375 34.1875 C-13.71203651 32.44110977 -12.98741781 30.69436835 -12.26367188 28.94726562 C-8.24571329 19.26824457 -4.15421818 9.62129311 0 0 Z " fill="#071421" transform="translate(352,505)"/>
<path d="M0 0 C0.66 0 1.32 0 2 0 C1.34 1.98 0.68 3.96 0 6 C1.05799805 6.02505615 2.11599609 6.0501123 3.20605469 6.07592773 C7.18710408 6.17115654 11.16802497 6.2710796 15.14892578 6.37231445 C16.86145999 6.41523229 18.57402525 6.45693082 20.28662109 6.49731445 C29.88921051 6.72461128 39.43727922 7.02335621 49 8 C49 8.33 49 8.66 49 9 C31.51 9 14.02 9 -4 9 C-4 4.9666466 -2.39120082 3.16482462 0 0 Z " fill="#08151F" transform="translate(552,658)"/>
<path d="M0 0 C1.83886719 0.22705078 1.83886719 0.22705078 4 1 C5.37207031 2.90185547 5.37207031 2.90185547 6.578125 5.3671875 C7.23554688 6.69556641 7.23554688 6.69556641 7.90625 8.05078125 C8.3496875 8.98277344 8.793125 9.91476562 9.25 10.875 C9.70890625 11.79925781 10.1678125 12.72351563 10.640625 13.67578125 C14 20.56449963 14 20.56449963 14 24 C13.34 24 12.68 24 12 24 C11.71125 22.865625 11.4225 21.73125 11.125 20.5625 C10.75375 19.386875 10.3825 18.21125 10 17 C9.34 16.67 8.68 16.34 8 16 C5.81906819 11.74548795 3.95033749 7.36706003 2 3 C-1.63 10.92 -5.26 18.84 -9 27 C-9.99 27 -10.98 27 -12 27 C-8.06781048 17.96842926 -4.11487907 8.95033604 0 0 Z " fill="#071422" transform="translate(424,339)"/>
<path d="M0 0 C4.60642406 4.15250636 7.58971743 8.81811039 10.75 14.125 C11.24371094 14.93582031 11.73742187 15.74664063 12.24609375 16.58203125 C15.85419324 22.56257972 15.85419324 22.56257972 17 26 C13.37749325 26.85319945 10.19270837 27.06555517 6.48046875 26.87890625 C5.45888672 26.83056641 4.43730469 26.78222656 3.38476562 26.73242188 C2.32966797 26.67634766 1.27457031 26.62027344 0.1875 26.5625 C-0.88693359 26.51029297 -1.96136719 26.45808594 -3.06835938 26.40429688 C-5.71256304 26.2750247 -8.35635027 26.14007564 -11 26 C-11 25.67 -11 25.34 -11 25 C-2.9874678 23.96612488 4.92905177 23.89533352 13 24 C11.95918979 22.20783567 10.91729399 20.4163018 9.875 18.625 C9.24207031 17.53703125 8.60914063 16.4490625 7.95703125 15.328125 C5.7104203 11.50754111 3.40113761 7.72820638 1.06640625 3.9609375 C0 2 0 2 0 0 Z " fill="#07131E" transform="translate(460,640)"/>
<path d="M0 0 C2.54508387 2.30070378 4.02363744 4.61991277 5.6015625 7.65625 C6.08786133 8.58816162 6.57416016 9.52007324 7.07519531 10.48022461 C7.58663086 11.47675049 8.09806641 12.47327637 8.625 13.5 C9.1519043 14.51779541 9.67880859 15.53559082 10.22167969 16.58422852 C15.039678 25.95134411 19.58199012 35.43880185 24 45 C21 44 21 44 19.16235352 40.87646484 C18.47438916 39.49295597 17.79730593 38.10400377 17.12890625 36.7109375 C16.58350441 35.6059642 16.58350441 35.6059642 16.02708435 34.47866821 C14.86272587 32.11530469 13.71218975 29.74552903 12.5625 27.375 C11.41373539 25.0272832 10.26213617 22.68099103 9.10862732 20.33560181 C8.3917768 18.87580071 7.67809273 17.41443881 6.96815491 15.95126343 C5.33953127 12.61408554 3.65209503 9.37238456 1.74975586 6.18212891 C0 3 0 3 0 0 Z " fill="#071723" transform="translate(510,335)"/>
<path d="M0 0 C1.4590439 0.08786213 2.91742577 0.18730211 4.375 0.296875 C5.48101563 0.35681641 5.48101563 0.35681641 6.609375 0.41796875 C12.11802838 0.78990338 12.11802838 0.78990338 14.375 3.046875 C13.26382813 2.86125 12.15265625 2.675625 11.0078125 2.484375 C6.35939782 1.94488288 1.8695173 1.51488845 -2.625 3.046875 C-6.90177692 6.66022516 -9.19728838 11.90860537 -11.54882812 16.88671875 C-13.31507835 20.43204135 -15.46667213 23.73014778 -17.625 27.046875 C-18.625 24.046875 -18.625 24.046875 -17.5769043 21.71850586 C-17.03976807 20.82526611 -16.50263184 19.93202637 -15.94921875 19.01171875 C-15.36849609 18.03783203 -14.78777344 17.06394531 -14.18945312 16.06054688 C-13.26036133 14.5378418 -13.26036133 14.5378418 -12.3125 12.984375 C-11.40081055 11.45586914 -11.40081055 11.45586914 -10.47070312 9.89648438 C-4.5577435 0.05893634 -4.5577435 0.05893634 0 0 Z " fill="#091B27" transform="translate(573.625,629.953125)"/>
<path d="M0 0 C3.63 0.66 7.26 1.32 11 2 C11 2.66 11 3.32 11 4 C11.8979126 4.24327026 11.8979126 4.24327026 12.81396484 4.49145508 C19.3736614 6.35268166 25.44746917 8.81838013 31.625 11.6875 C32.53378906 12.10322266 33.44257812 12.51894531 34.37890625 12.94726562 C36.58865825 13.95909944 38.79553786 14.976706 41 16 C41 16.66 41 17.32 41 18 C33.40149581 15.60982228 26.13460636 12.62797065 18.8125 9.5 C17.66330078 9.01402344 16.51410156 8.52804687 15.33007812 8.02734375 C10.13791097 5.82059755 5.02940917 3.56073235 0 1 C0 0.67 0 0.34 0 0 Z " fill="#071524" transform="translate(748,670)"/>
<path d="M0 0 C0.33 0 0.66 0 1 0 C0.9278125 1.06476563 0.855625 2.12953125 0.78125 3.2265625 C-0.05358436 16.02043612 -0.74216935 28.46847017 1.5625 41.16015625 C1.9736054 43.82867079 2.07909063 46.30597555 2 49 C-3.00610817 43.99389183 -2.31438827 33.365192 -2.75390625 26.62890625 C-2.92284469 24.04374713 -2.92284469 24.04374713 -3.58984375 21.77734375 C-4 20 -4 20 -3 18 C-2.63216833 15.33322036 -2.29923963 12.67445415 -2 10 C-1.13513514 2.27027027 -1.13513514 2.27027027 0 0 Z " fill="#135541" transform="translate(414,475)"/>
<path d="M0 0 C15.17373669 -0.53554365 29.95647265 1.1107661 45 3 C45 3.33 45 3.66 45 4 C42.68802845 4.19390729 40.3753971 4.37996367 38.0625 4.5625 C36.77472656 4.66691406 35.48695313 4.77132812 34.16015625 4.87890625 C33.11730469 4.91886719 32.07445312 4.95882812 31 5 C30.67 4.67 30.34 4.34 30 4 C28.12321734 3.79560538 26.23970939 3.65232077 24.35546875 3.53515625 C23.20369141 3.45716797 22.05191406 3.37917969 20.86523438 3.29882812 C18.42532998 3.14204192 15.98522367 2.988365 13.54492188 2.83789062 C12.38927734 2.75861328 11.23363281 2.67933594 10.04296875 2.59765625 C8.98102295 2.53070557 7.91907715 2.46375488 6.82495117 2.39477539 C4.10729221 2.01499365 2.34105375 1.38913092 0 0 Z " fill="#061421" transform="translate(602,667)"/>
<path d="M0 0 C3.97782062 3.5988428 5.88828563 8.26322824 8.25 13 C8.72179687 13.91523438 9.19359375 14.83046875 9.6796875 15.7734375 C10.34097656 17.09214844 10.34097656 17.09214844 11.015625 18.4375 C11.42071289 19.24058594 11.82580078 20.04367187 12.24316406 20.87109375 C13 23 13 23 12 26 C9 21.25 9 21.25 9 19 C7.68 18.67 6.36 18.34 5 18 C5.33 17.34 5.66 16.68 6 16 C5.60061233 13.90178785 5.60061233 13.90178785 5 12 C3.68 12.33 2.36 12.66 1 13 C1.66 12.01 2.32 11.02 3 10 C2.2575 8.63875 2.2575 8.63875 1.5 7.25 C0 4 0 4 0 0 Z " fill="#081B2A" transform="translate(439,365)"/>
<path d="M0 0 C0 0.66 0 1.32 0 2 C-13.37670177 2.10890351 -26.66119695 2.09848966 -40 1 C-40 0.67 -40 0.34 -40 0 C-26.55576297 -0.86952777 -13.43802009 -0.99825292 0 0 Z " fill="#060E1A" transform="translate(424,236)"/>
<path d="M0 0 C1.81933594 1.23583984 1.81933594 1.23583984 2.81933594 3.23583984 C0.0736863 4.26995461 -2.67615016 5.28835141 -5.43066406 6.29833984 C-6.20796875 6.59289062 -6.98527344 6.88744141 -7.78613281 7.19091797 C-8.91728516 7.60180664 -8.91728516 7.60180664 -10.07128906 8.02099609 C-10.76254883 8.2776001 -11.45380859 8.5342041 -12.16601562 8.79858398 C-14.50097878 9.3053604 -15.93442009 8.97798123 -18.18066406 8.23583984 C-15.60768624 6.67410214 -13.02474944 5.13677242 -10.43066406 3.61083984 C-9.33625 2.94181641 -9.33625 2.94181641 -8.21972656 2.25927734 C-7.15625 1.64052734 -7.15625 1.64052734 -6.07128906 1.00927734 C-5.42192383 0.62175293 -4.77255859 0.23422852 -4.10351562 -0.16503906 C-2.18066406 -0.76416016 -2.18066406 -0.76416016 0 0 Z " fill="#0A1C2B" transform="translate(206.1806640625,703.76416015625)"/>
<path d="M0 0 C-6.69001299 2.81553619 -13.39667082 5.58984722 -20.125 8.3125 C-20.77605713 8.57885254 -21.42711426 8.84520508 -22.09790039 9.11962891 C-26.76919654 11 -26.76919654 11 -29 11 C-29 10.34 -29 9.68 -29 9 C-26.69 8.01 -24.38 7.02 -22 6 C-22 5.34 -22 4.68 -22 4 C-21.071875 3.9175 -20.14375 3.835 -19.1875 3.75 C-14.70517606 3.14625841 -10.71489682 1.45024056 -6.55078125 -0.2578125 C-3.84711311 -1.0444847 -2.60162853 -0.96266348 0 0 Z " fill="#081726" transform="translate(286,668)"/>
<path d="M0 0 C1.20486411 3.61459233 0.72479555 4.28662841 -0.765625 7.67578125 C-1.16136719 8.58650391 -1.55710938 9.49722656 -1.96484375 10.43554688 C-2.38894531 11.38494141 -2.81304687 12.33433594 -3.25 13.3125 C-3.65863281 14.25029297 -4.06726563 15.18808594 -4.48828125 16.15429688 C-6.53988242 20.83471819 -8.6569105 25.45836223 -11 30 C-12.06787684 27.27914725 -12.03068035 26.09524861 -11.11962891 23.2668457 C-10.65991699 22.24679443 -10.20020508 21.22674316 -9.7265625 20.17578125 C-9.2315625 19.06525391 -8.7365625 17.95472656 -8.2265625 16.81054688 C-7.69804687 15.65619141 -7.16953125 14.50183594 -6.625 13.3125 C-6.10421875 12.14654297 -5.5834375 10.98058594 -5.046875 9.77929688 C-1.18081184 1.18081184 -1.18081184 1.18081184 0 0 Z " fill="#071320" transform="translate(255,518)"/>
<path d="M0 0 C-0.33 0.66 -0.66 1.32 -1 2 C-3.12963867 2.68603516 -3.12963867 2.68603516 -5.91796875 3.2890625 C-7.42907227 3.61777344 -7.42907227 3.61777344 -8.97070312 3.953125 C-10.56301758 4.28570313 -10.56301758 4.28570313 -12.1875 4.625 C-13.22970703 4.85445312 -14.27191406 5.08390625 -15.34570312 5.3203125 C-20.34543635 6.3882784 -24.8666561 7.12385451 -30 7 C-27.59955588 4.59955588 -26.23466893 4.42060623 -22.94921875 3.7109375 C-21.94052734 3.49179687 -20.93183594 3.27265625 -19.89257812 3.046875 C-18.83490234 2.82515625 -17.77722656 2.6034375 -16.6875 2.375 C-15.11838867 2.03082031 -15.11838867 2.03082031 -13.51757812 1.6796875 C-8.9225003 0.69690828 -4.71725782 -0.1397311 0 0 Z " fill="#071523" transform="translate(279,687)"/>
<path d="M0 0 C-0.33 0.66 -0.66 1.32 -1 2 C-3.09790039 2.59423828 -3.09790039 2.59423828 -5.84765625 3.0703125 C-6.84603516 3.24433594 -7.84441406 3.41835938 -8.87304688 3.59765625 C-10.45182617 3.85869141 -10.45182617 3.85869141 -12.0625 4.125 C-13.08794922 4.30675781 -14.11339844 4.48851562 -15.16992188 4.67578125 C-20.8641424 5.64485525 -26.22584156 6.20795289 -32 6 C-28.97245252 3.98163501 -27.39152535 3.53498135 -23.88671875 2.9296875 C-22.88576172 2.75566406 -21.88480469 2.58164062 -20.85351562 2.40234375 C-19.28633789 2.14130859 -19.28633789 2.14130859 -17.6875 1.875 C-16.65431641 1.69324219 -15.62113281 1.51148438 -14.55664062 1.32421875 C-9.6618608 0.48906068 -4.98612824 -0.25745929 0 0 Z " fill="#071523" transform="translate(321,679)"/>
<path d="M0 0 C0.33 0 0.66 0 1 0 C0.42594135 5.87427143 -1.25122229 10.84903207 -3.4375 16.3125 C-3.75009766 17.12267578 -4.06269531 17.93285156 -4.38476562 18.76757812 C-6.73494377 24.73494377 -6.73494377 24.73494377 -9 27 C-11.125 26.625 -11.125 26.625 -13 26 C-12.38866211 25.44731445 -11.77732422 24.89462891 -11.14746094 24.32519531 C-8.87364339 21.8631855 -7.86604859 19.89647583 -6.640625 16.796875 C-6.24746094 15.8171875 -5.85429687 14.8375 -5.44921875 13.828125 C-5.05347656 12.81234375 -4.65773438 11.7965625 -4.25 10.75 C-3.83878906 9.71875 -3.42757813 8.6875 -3.00390625 7.625 C-1.99334103 5.0868362 -0.99244726 2.54529047 0 0 Z " fill="#071421" transform="translate(316,593)"/>
<path d="M0 0 C1.1916143 3.57484289 0.74788456 4.28587882 -0.65234375 7.66796875 C-1.01650391 8.56064453 -1.38066406 9.45332031 -1.75585938 10.37304688 C-2.14580078 11.30181641 -2.53574219 12.23058594 -2.9375 13.1875 C-3.32357422 14.12787109 -3.70964844 15.06824219 -4.10742188 16.03710938 C-5.06321649 18.36169628 -6.02767007 20.68229199 -7 23 C-7.99 22.67 -8.98 22.34 -10 22 C-8.5247255 18.51917004 -7.04413293 15.04062769 -5.5625 11.5625 C-5.14162109 10.56927734 -4.72074219 9.57605469 -4.28710938 8.55273438 C-3.88427734 7.60849609 -3.48144531 6.66425781 -3.06640625 5.69140625 C-2.69459229 4.81685791 -2.32277832 3.94230957 -1.93969727 3.04125977 C-1 1 -1 1 0 0 Z " fill="#081724" transform="translate(363,480)"/>
<path d="M0 0 C-2.70482125 2.70482125 -5.82543681 3.5076736 -9.375 4.6875 C-10.04789062 4.92533203 -10.72078125 5.16316406 -11.4140625 5.40820312 C-17.53946634 7.46407193 -17.53946634 7.46407193 -21 6 C-7.21875 -0.4375 -7.21875 -0.4375 0 0 Z " fill="#061525" transform="translate(319,656)"/>
<path d="M0 0 C-2.57498808 2.57498808 -4.83827942 3.06266755 -8.3125 4.125 C-9.44300781 4.47820313 -10.57351563 4.83140625 -11.73828125 5.1953125 C-14.66386802 5.91707403 -17.01048079 6.16826562 -20 6 C-19 4 -19 4 -16.015625 2.9296875 C-14.77296875 2.58164062 -13.5303125 2.23359375 -12.25 1.875 C-11.01765625 1.52179687 -9.7853125 1.16859375 -8.515625 0.8046875 C-5.50163585 0.11481887 -3.065036 -0.17547916 0 0 Z " fill="#061424" transform="translate(340,650)"/>
<path d="M0 0 C0 3 0 3 -1.28515625 4.62573242 C-2.16494141 5.4819519 -2.16494141 5.4819519 -3.0625 6.35546875 C-3.69414062 6.97744141 -4.32578125 7.59941406 -4.9765625 8.24023438 C-5.64429688 8.88283203 -6.31203125 9.52542969 -7 10.1875 C-8.00160156 11.16879883 -8.00160156 11.16879883 -9.0234375 12.16992188 C-10.67578441 13.78686135 -12.33471601 15.39640491 -14 17 C-14 12.76251447 -12.09797742 11.56198728 -9.25 8.5 C-7.92742187 7.06140625 -7.92742187 7.06140625 -6.578125 5.59375 C-4.47126074 3.47411686 -2.44936235 1.69395153 0 0 Z " fill="#1EA277" transform="translate(447,424)"/>
<path d="M0 0 C0.77859375 0.10828125 1.5571875 0.2165625 2.359375 0.328125 C3.12765625 0.44671875 3.8959375 0.5653125 4.6875 0.6875 C6.04162532 0.8752984 7.39578735 1.0628324 8.75 1.25 C9.719375 1.394375 10.68875 1.53875 11.6875 1.6875 C12.0175 3.0075 12.3475 4.3275 12.6875 5.6875 C11.92566406 5.48253906 11.16382813 5.27757812 10.37890625 5.06640625 C4.12543676 3.43472695 -1.87183806 2.22422183 -8.3125 1.6875 C-5.27967109 -0.09933599 -3.47296159 -0.51199967 0 0 Z " fill="#0D2631" transform="translate(523.3125,378.3125)"/>
<path d="M0 0 C-5.36076281 3.26307302 -10.93607386 6.27199308 -17 8 C-17.99 7.67 -18.98 7.34 -20 7 C-17.42362412 5.63092584 -14.84031896 4.27971545 -12.25 2.9375 C-11.52039063 2.54755859 -10.79078125 2.15761719 -10.0390625 1.75585938 C-9.33007812 1.39169922 -8.62109375 1.02753906 -7.890625 0.65234375 C-7.24125977 0.31195068 -6.59189453 -0.02844238 -5.92285156 -0.37915039 C-3.58008982 -1.13558044 -2.29543427 -0.78821819 0 0 Z " fill="#081524" transform="translate(256,680)"/>
<path d="M0 0 C1.02577148 0.00676758 1.02577148 0.00676758 2.07226562 0.01367188 C3.73571604 0.0253044 5.3991205 0.04323306 7.0625 0.0625 C7.0625 0.3925 7.0625 0.7225 7.0625 1.0625 C-0.98677976 2.36151921 -8.77509432 3.40103295 -16.9375 3.0625 C-12.75059717 -1.12440283 -5.58954419 -0.04946499 0 0 Z " fill="#071422" transform="translate(433.9375,631.9375)"/>
<path d="M0 0 C0.66 0.33 1.32 0.66 2 1 C-2.02057116 6.62879962 -6.82081402 9.91587532 -13 13 C-13.66 13 -14.32 13 -15 13 C-15 12.34 -15 11.68 -15 11 C-12.98828125 9.66796875 -12.98828125 9.66796875 -10.3125 8.1875 C-6.21268179 5.82065459 -3.12140041 3.53758713 0 0 Z " fill="#071522" transform="translate(542,516)"/>
<path d="M0 0 C6.30367803 0.58367389 11.98660063 2.04071619 18 4 C18 4.99 18 5.98 18 7 C12.06 5.02 6.12 3.04 0 1 C0 0.67 0 0.34 0 0 Z " fill="#071625" transform="translate(700,654)"/>
<path d="M0 0 C2.44457392 2.25044599 4.09902934 4.55801293 5.75 7.4375 C6.19859375 8.19933594 6.6471875 8.96117187 7.109375 9.74609375 C8.13203743 12.33414736 7.95772637 13.43633001 7 16 C6.01 16 5.02 16 4 16 C4 15.34 4 14.68 4 14 C4.66 13.67 5.32 13.34 6 13 C4.35 10.03 2.7 7.06 1 4 C0.01 4.495 0.01 4.495 -1 5 C-1.99 4.34 -2.98 3.68 -4 3 C-2.68 2.01 -1.36 1.02 0 0 Z " fill="#196B53" transform="translate(436,570)"/>
<path d="M0 0 C2.421875 0.04296875 2.421875 0.04296875 4.625 0.5 C7.25 3.3125 7.25 3.3125 8.625 6.5 C8.295 7.49 7.965 8.48 7.625 9.5 C7.17125 8.530625 6.7175 7.56125 6.25 6.5625 C4.70092089 4.1597313 3.95399884 3.58199187 1.1328125 2.87890625 C-1.37942494 2.6476096 -3.8526379 2.50962734 -6.375 2.5 C-4.00531893 0.13031893 -3.25486199 0.12976194 0 0 Z " fill="#091A25" transform="translate(450.375,629.5)"/>
<path d="M0 0 C6.31121503 1.0992895 12.06338584 2.58137942 18 5 C16.3125 6.11328125 16.3125 6.11328125 14 7 C11.5625 6.35546875 11.5625 6.35546875 9 5.1875 C6.0052571 3.84990904 3.21183227 2.69143611 0 2 C0 1.34 0 0.68 0 0 Z " fill="#071624" transform="translate(790,697)"/>
<path d="M0 0 C-2.67031284 2.67733998 -4.03721441 3.00280229 -7.890625 3.29296875 C-9.34404009 3.27314945 -10.79731167 3.23754845 -12.25 3.1875 C-12.99507813 3.17396484 -13.74015625 3.16042969 -14.5078125 3.14648438 C-16.33885416 3.11127204 -18.16952169 3.05746851 -20 3 C-20 2.67 -20 2.34 -20 2 C-13.2168636 0.57997892 -6.93302093 -0.22731216 0 0 Z " fill="#071422" transform="translate(355,674)"/>
<path d="M0 0 C0.66 0 1.32 0 2 0 C1.74412595 1.77305664 1.46972261 3.54344608 1.1875 5.3125 C1.03667969 6.29863281 0.88585937 7.28476562 0.73046875 8.30078125 C-0.03436705 11.12699269 -0.75258762 12.1959128 -3 14 C-4.07010304 11.23556715 -4.16283213 9.46148633 -3.17578125 6.6640625 C-2.16488321 4.41525773 -1.11596524 2.19840363 0 0 Z " fill="#071D31" transform="translate(235,563)"/>
<path d="M0 0 C1.21940034 4.87760136 0.3649428 5.92704618 -1.9375 10.25 C-2.50339844 11.32765625 -3.06929688 12.4053125 -3.65234375 13.515625 C-4.09707031 14.33546875 -4.54179687 15.1553125 -5 16 C-5.66 15.67 -6.32 15.34 -7 15 C-3.535 7.575 -3.535 7.575 0 0 Z " fill="#071522" transform="translate(397,401)"/>
<path d="M0 0 C1.11346788 2.80033839 1.03510273 3.90143703 0.00390625 6.796875 C-0.47175781 7.77140625 -0.94742187 8.7459375 -1.4375 9.75 C-1.91058594 10.73484375 -2.38367188 11.7196875 -2.87109375 12.734375 C-3.24363281 13.48203125 -3.61617188 14.2296875 -4 15 C-4.66 15 -5.32 15 -6 15 C-4.36041242 9.76727367 -2.61047965 4.84803364 0 0 Z " fill="#07151F" transform="translate(404,385)"/>
<path d="M0 0 C0.97582031 0.00902344 1.95164062 0.01804687 2.95703125 0.02734375 C3.69308594 0.03894531 4.42914063 0.05054688 5.1875 0.0625 C5.1875 0.3925 5.1875 0.7225 5.1875 1.0625 C-0.57331841 2.3607126 -5.89989655 3.31956972 -11.8125 3.0625 C-11.4825 2.4025 -11.1525 1.7425 -10.8125 1.0625 C-7.19111734 0.03976493 -3.74515244 -0.04512232 0 0 Z " fill="#081522" transform="translate(397.8125,636.9375)"/>
<path d="M0 0 C3.33333333 1.66666667 6.66666667 3.33333333 10 5 C7.44855176 5.93045933 6.25993522 6.08564091 3.640625 5.22265625 C2.85171875 4.83980469 2.0628125 4.45695313 1.25 4.0625 C0.45078125 3.68222656 -0.3484375 3.30195312 -1.171875 2.91015625 C-1.77515625 2.60980469 -2.3784375 2.30945313 -3 2 C-2.01 1.34 -1.02 0.68 0 0 Z " fill="#061626" transform="translate(737,664)"/>
<path d="M0 0 C0.66 0 1.32 0 2 0 C1.39254603 4.85963179 -0.72758967 8.7405518 -3 13 C-3.93045933 10.44855176 -4.08564091 9.25993522 -3.22265625 6.640625 C-2.83980469 5.85171875 -2.45695313 5.0628125 -2.0625 4.25 C-1.68222656 3.45078125 -1.30195313 2.6515625 -0.91015625 1.828125 C-0.60980469 1.22484375 -0.30945313 0.6215625 0 0 Z " fill="#061320" transform="translate(241,549)"/>
<path d="M0 0 C0 0.66 0 1.32 0 2 C-1.828125 3.47265625 -1.828125 3.47265625 -4.25 5.0625 C-5.03890625 5.58972656 -5.8278125 6.11695313 -6.640625 6.66015625 C-8.81388284 7.89430764 -10.56017928 8.54673055 -13 9 C-4.5 0 -4.5 0 0 0 Z " fill="#061626" transform="translate(497,460)"/>
<path d="M0 0 C4.92127034 -0.16682272 8.50343896 -0.24828052 13 2 C13 2.33 13 2.66 13 3 C11.39504433 2.88557539 9.79101881 2.75805306 8.1875 2.625 C7.29417969 2.55539062 6.40085937 2.48578125 5.48046875 2.4140625 C3 2 3 2 0 0 Z " fill="#071523" transform="translate(659,644)"/>
<path d="M0 0 C-2.66374247 2.66374247 -4.26465097 2.65413435 -8 3 C-10.70281176 2.79583077 -13.31719462 2.41629739 -16 2 C-16 1.67 -16 1.34 -16 1 C-10.65097076 0.40801257 -5.39115154 -0.14187241 0 0 Z " fill="#091D2F" transform="translate(526,529)"/>
<path d="M0 0 C0.66 0 1.32 0 2 0 C0.55049545 3.7910119 -1.15172566 7.3874638 -3 11 C-3.66 11 -4.32 11 -5 11 C-4.46968862 6.4923533 -2.74778884 3.58045212 0 0 Z " fill="#071421" transform="translate(482,470)"/>
<path d="M0 0 C4.82360189 -0.19294408 8.49646738 0.24252386 13 2 C13 2.33 13 2.66 13 3 C8.17639811 3.19294408 4.50353262 2.75747614 0 1 C0 0.67 0 0.34 0 0 Z " fill="#06131F" transform="translate(752,688)"/>
<path d="M0 0 C2 1 2 1 2.703125 2.70703125 C2.88359375 3.40183594 3.0640625 4.09664063 3.25 4.8125 C3.44078125 5.49957031 3.6315625 6.18664062 3.828125 6.89453125 C4.04043638 9.49534564 3.32717683 10.7962922 2 13 C1.66127487 11.58461283 1.32925376 10.16762037 1 8.75 C0.814375 7.96109375 0.62875 7.1721875 0.4375 6.359375 C0 4 0 4 0 0 Z " fill="#0B1F2F" transform="translate(546,479)"/>
<path d="M0 0 C-2.90092502 1.93395001 -3.89674737 2.30131941 -7.1875 2.625 C-8.445625 2.74875 -9.70375 2.8725 -11 3 C-8.89427904 -1.21144191 -4.11694326 -0.07767817 0 0 Z " fill="#061524" transform="translate(352,647)"/>
<path d="M0 0 C0 3.15081975 -0.27898465 4.41847698 -2 7 C-4.125 7.75 -4.125 7.75 -6 8 C-4.26440562 4.942048 -2.61527381 2.36620011 0 0 Z " fill="#041638" transform="translate(466,455)"/>
<path d="M0 0 C5.875 2.75 5.875 2.75 7 5 C3.58978257 4.21302675 0.31114834 3.12880057 -3 2 C-2.01 1.34 -1.02 0.68 0 0 Z " fill="#0D202D" transform="translate(828,708)"/>
<path d="M0 0 C1.4800841 0.11362262 2.95910074 0.24122908 4.4375 0.375 C5.26121094 0.44460938 6.08492187 0.51421875 6.93359375 0.5859375 C7.95646484 0.79089844 7.95646484 0.79089844 9 1 C9.33 1.66 9.66 2.32 10 3 C2.25 2.25 2.25 2.25 0 0 Z " fill="#061522" transform="translate(689,651)"/>
<path d="M0 0 C0.66 0.99 1.32 1.98 2 3 C1.01 4.98 0.02 6.96 -1 9 C-1.66 8.67 -2.32 8.34 -3 8 C-1.125 2.25 -1.125 2.25 0 0 Z " fill="#091B2A" transform="translate(349,309)"/>
<path d="M0 0 C2.31 0 4.62 0 7 0 C7.33 1.32 7.66 2.64 8 4 C5.64828869 3.40138258 3.3140622 2.73075648 1 2 C0.67 1.34 0.34 0.68 0 0 Z " fill="#102F37" transform="translate(528,380)"/>
<path d="M0 0 C0 0.33 0 0.66 0 1 C-3.3 1.33 -6.6 1.66 -10 2 C-10 1.34 -10 0.68 -10 0 C-6.7169902 -1.6415049 -3.57454967 -0.51888624 0 0 Z " fill="#0C2536" transform="translate(495,380)"/>
<path d="M0 0 C1.32 0 2.64 0 4 0 C3.46930939 3.82097239 2.50298434 6.06171403 0 9 C0.875 4.25 0.875 4.25 2 2 C1.34 2 0.68 2 0 2 C0 1.34 0 0.68 0 0 Z " fill="#145B45" transform="translate(840,235)"/>
<path d="M0 0 C0.66 0 1.32 0 2 0 C2 1.65 2 3.3 2 5 C0 1.125 0 1.125 0 0 Z " fill="#238B71" transform="translate(409,504)"/>
<path d="M0 0 C1.65 0 3.3 0 5 0 C4.67 0.66 4.34 1.32 4 2 C2.68 1.34 1.36 0.68 0 0 Z " fill="#184B59" transform="translate(497,381)"/>
<path d="M0 0 C1.65 0 3.3 0 5 0 C5 0.33 5 0.66 5 1 C3.35 1 1.7 1 0 1 C0 0.67 0 0.34 0 0 Z " fill="#21836D" transform="translate(656,622)"/>
<path d="M0 0 C1.65 0 3.3 0 5 0 C5 0.33 5 0.66 5 1 C3.35 1 1.7 1 0 1 C0 0.67 0 0.34 0 0 Z " fill="#23856F" transform="translate(486,400)"/>
<path d="M0 0 C4 1 4 1 4 1 Z " fill="#0F2C47" transform="translate(404,671)"/>
<path d="M0 0 C4 1 4 1 4 1 Z " fill="#10334C" transform="translate(268,631)"/>
<path d="M0 0 C0.33 0.99 0.66 1.98 1 3 C0.34 2.67 -0.32 2.34 -1 2 C-0.67 1.34 -0.34 0.68 0 0 Z " fill="#248C72" transform="translate(417,536)"/>
<path d="M0 0 C0.66 0 1.32 0 2 0 C2 0.66 2 1.32 2 2 C1.34 2 0.68 2 0 2 C0 1.34 0 0.68 0 0 Z " fill="#238C71" transform="translate(416,458)"/>
<path d="M0 0 C3 1 3 1 3 1 Z " fill="#0F2D44" transform="translate(290,687)"/>
<path d="M0 0 C3 1 3 1 3 1 Z " fill="#112E47" transform="translate(728,685)"/>
<path d="M0 0 C0.99 0.495 0.99 0.495 2 1 C1.01 1.495 1.01 1.495 0 2 C0 1.34 0 0.68 0 0 Z " fill="#0D2A43" transform="translate(342,678)"/>
<path d="M0 0 C3 1 3 1 3 1 Z " fill="#103148" transform="translate(419,670)"/>
<path d="M0 0 C0.33 0.66 0.66 1.32 1 2 C0.34 1.67 -0.32 1.34 -1 1 C-0.67 0.67 -0.34 0.34 0 0 Z " fill="#1B5B59" transform="translate(545,664)"/>
<path d="M0 0 C3 1 3 1 3 1 Z " fill="#0F3049" transform="translate(213,647)"/>
<path d="M0 0 C3 1 3 1 3 1 Z " fill="#164656" transform="translate(653,640)"/>
<path d="M0 0 C3 1 3 1 3 1 Z " fill="#133F54" transform="translate(413,632)"/>
<path d="M0 0 C3 1 3 1 3 1 Z " fill="#23806C" transform="translate(681,627)"/>
<path d="M0 0 C3 1 3 1 3 1 Z " fill="#20826C" transform="translate(662,623)"/>
<path d="M0 0 C0.66 0.66 1.32 1.32 2 2 C1.34 2 0.68 2 0 2 C0 1.34 0 0.68 0 0 Z " fill="#238169" transform="translate(464,622)"/>
<path d="M0 0 C0.33 0.66 0.66 1.32 1 2 C0.34 1.67 -0.32 1.34 -1 1 C-0.67 0.67 -0.34 0.34 0 0 Z " fill="#21816A" transform="translate(458,612)"/>
<path d="M0 0 C0.66 0 1.32 0 2 0 C1.67 0.66 1.34 1.32 1 2 C0.67 1.34 0.34 0.68 0 0 Z " fill="#22886F" transform="translate(442,587)"/>
<path d="" fill="#228C70" transform="translate(0,0)"/>
<path d="M0 0 C0.66 0 1.32 0 2 0 C1.67 0.66 1.34 1.32 1 2 C0.67 1.34 0.34 0.68 0 0 Z " fill="#258E72" transform="translate(411,518)"/>
<path d="" fill="#24896F" transform="translate(0,0)"/>
<path d="M0 0 C3 1 3 1 3 1 Z " fill="#0E324C" transform="translate(499,461)"/>
<path d="M0 0 C0.99 0.495 0.99 0.495 2 1 C1.01 1.495 1.01 1.495 0 2 C0 1.34 0 0.68 0 0 Z " fill="#218A71" transform="translate(441,424)"/>
<path d="M0 0 C3 1 3 1 3 1 Z " fill="#23896F" transform="translate(464,408)"/>
<path d="M0 0 C0.99 0.495 0.99 0.495 2 1 C1.01 1.495 1.01 1.495 0 2 C0 1.34 0 0.68 0 0 Z " fill="#1A545D" transform="translate(526,382)"/>
<path d="M0 0 C0.66 0 1.32 0 2 0 C1.67 0.66 1.34 1.32 1 2 C0.67 1.34 0.34 0.68 0 0 Z " fill="#1A545C" transform="translate(515,382)"/>
<path d="M0 0 C0.33 0.66 0.66 1.32 1 2 C0.34 1.67 -0.32 1.34 -1 1 C-0.67 0.67 -0.34 0.34 0 0 Z " fill="#249A76" transform="translate(720,310)"/>
<path d="M0 0 C2 1 2 1 2 1 Z " fill="#0C263E" transform="translate(230,703)"/>
<path d="M0 0 C2 1 2 1 2 1 Z " fill="#0E2A41" transform="translate(227,702)"/>
<path d="M0 0 C2 1 2 1 2 1 Z " fill="#0E2D45" transform="translate(253,695)"/>
<path d="M0 0 C2 1 2 1 2 1 Z " fill="#103148" transform="translate(243,681)"/>
<path d="" fill="#1F7C65" transform="translate(0,0)"/>
<path d="M0 0 C2 1 2 1 2 1 Z " fill="#217F66" transform="translate(497,676)"/>
<path d="M0 0 C2 1 2 1 2 1 Z " fill="#113347" transform="translate(433,669)"/>
<path d="M0 0 C2 1 2 1 2 1 Z " fill="#13374B" transform="translate(574,668)"/>
<path d="M0 0 C2 1 2 1 2 1 Z " fill="#194A58" transform="translate(697,650)"/>
<path d="M0 0 C2 1 2 1 2 1 Z " fill="#113249" transform="translate(336,648)"/>
<path d="M0 0 C2 1 2 1 2 1 Z " fill="#10354B" transform="translate(369,640)"/>
<path d="M0 0 C2 1 2 1 2 1 Z " fill="#143D52" transform="translate(400,634)"/>
<path d="M0 0 C2 1 2 1 2 1 Z " fill="#174556" transform="translate(605,632)"/>
<path d="M0 0 C2 1 2 1 2 1 Z " fill="#23806C" transform="translate(696,630)"/>
<path d="M0 0 C2 1 2 1 2 1 Z " fill="#1E7C67" transform="translate(558,625)"/>
<path d="M0 0 C2 1 2 1 2 1 Z " fill="#13364E" transform="translate(326,583)"/>
<path d="" fill="#268E71" transform="translate(0,0)"/>
<path d="" fill="#228B70" transform="translate(0,0)"/>
<path d="" fill="#0E2E47" transform="translate(0,0)"/>
<path d="" fill="#249878" transform="translate(0,0)"/>
<path d="M0 0 C2 1 2 1 2 1 Z " fill="#228B71" transform="translate(408,499)"/>
<path d="" fill="#13344D" transform="translate(0,0)"/>
<path d="" fill="#268A70" transform="translate(0,0)"/>
<path d="" fill="#249978" transform="translate(0,0)"/>
<path d="" fill="#269A79" transform="translate(0,0)"/>
<path d="M0 0 C2 1 2 1 2 1 Z " fill="#10324C" transform="translate(522,461)"/>
<path d="" fill="#239775" transform="translate(0,0)"/>
<path d="M0 0 C2 1 2 1 2 1 Z " fill="#21836C" transform="translate(483,401)"/>
<path d="M0 0 C2 1 2 1 2 1 Z " fill="#174656" transform="translate(491,382)"/>
<path d="M0 0 C2 1 2 1 2 1 Z " fill="#19505B" transform="translate(519,381)"/>
<path d="M0 0 C2 1 2 1 2 1 Z " fill="#194F5A" transform="translate(505,381)"/>
<path d="" fill="#10324A" transform="translate(0,0)"/>
<path d="" fill="#259974" transform="translate(0,0)"/>
<path d="" fill="#259673" transform="translate(0,0)"/>
<path d="M0 0 C2 1 2 1 2 1 Z " fill="#154553" transform="translate(501,311)"/>
<path d="M0 0 C2 1 2 1 2 1 Z " fill="#269773" transform="translate(603,310)"/>
<path d="M0 0 C2 1 2 1 2 1 Z " fill="#22896C" transform="translate(529,292)"/>
<path d="" fill="#144053" transform="translate(0,0)"/>
<path d="" fill="#143F4F" transform="translate(0,0)"/>
<path d="" fill="#12394E" transform="translate(0,0)"/>
<path d="" fill="#208167" transform="translate(0,0)"/>
<path d="" fill="#0D2538" transform="translate(0,0)"/>
<path d="" fill="#0D2538" transform="translate(0,0)"/>
<path d="" fill="#0B2839" transform="translate(0,0)"/>
<path d="" fill="#0E2739" transform="translate(0,0)"/>
<path d="" fill="#0A2539" transform="translate(0,0)"/>
<path d="" fill="#0A243A" transform="translate(0,0)"/>
<path d="" fill="#0C2235" transform="translate(0,0)"/>
<path d="" fill="#0D2237" transform="translate(0,0)"/>
<path d="" fill="#0A2233" transform="translate(0,0)"/>
<path d="" fill="#0A2437" transform="translate(0,0)"/>
<path d="" fill="#0D2436" transform="translate(0,0)"/>
<path d="" fill="#092739" transform="translate(0,0)"/>
<path d="" fill="#0D2C43" transform="translate(0,0)"/>
<path d="" fill="#0E283F" transform="translate(0,0)"/>
<path d="" fill="#0F2B41" transform="translate(0,0)"/>
<path d="" fill="#0F2B45" transform="translate(0,0)"/>
<path d="" fill="#0D2940" transform="translate(0,0)"/>
<path d="" fill="#0E2942" transform="translate(0,0)"/>
<path d="" fill="#0C283D" transform="translate(0,0)"/>
<path d="" fill="#0D283C" transform="translate(0,0)"/>
<path d="" fill="#0E2B3F" transform="translate(0,0)"/>
<path d="" fill="#102C44" transform="translate(0,0)"/>
<path d="" fill="#1D7059" transform="translate(0,0)"/>
<path d="" fill="#1B6C59" transform="translate(0,0)"/>
<path d="" fill="#0F2E44" transform="translate(0,0)"/>
<path d="" fill="#1B715B" transform="translate(0,0)"/>
<path d="" fill="#102E45" transform="translate(0,0)"/>
<path d="" fill="#102E45" transform="translate(0,0)"/>
<path d="" fill="#102D44" transform="translate(0,0)"/>
<path d="" fill="#0B2B42" transform="translate(0,0)"/>
<path d="" fill="#237E64" transform="translate(0,0)"/>
<path d="" fill="#122F48" transform="translate(0,0)"/>
<path d="" fill="#0D2C45" transform="translate(0,0)"/>
<path d="" fill="#102E43" transform="translate(0,0)"/>
<path d="" fill="#0E2940" transform="translate(0,0)"/>
<path d="" fill="#0E2F45" transform="translate(0,0)"/>
<path d="" fill="#0D2B43" transform="translate(0,0)"/>
<path d="" fill="#102F45" transform="translate(0,0)"/>
<path d="" fill="#102E46" transform="translate(0,0)"/>
<path d="" fill="#0F2E4A" transform="translate(0,0)"/>
<path d="" fill="#102F49" transform="translate(0,0)"/>
<path d="" fill="#102D45" transform="translate(0,0)"/>
<path d="" fill="#0F2C47" transform="translate(0,0)"/>
<path d="" fill="#0F2F45" transform="translate(0,0)"/>
<path d="" fill="#132E47" transform="translate(0,0)"/>
<path d="" fill="#0E2C44" transform="translate(0,0)"/>
<path d="" fill="#0E2C45" transform="translate(0,0)"/>
<path d="" fill="#0D2D44" transform="translate(0,0)"/>
<path d="" fill="#0F2F45" transform="translate(0,0)"/>
<path d="" fill="#208169" transform="translate(0,0)"/>
<path d="" fill="#1F8066" transform="translate(0,0)"/>
<path d="" fill="#0F3447" transform="translate(0,0)"/>
<path d="" fill="#0F2D46" transform="translate(0,0)"/>
<path d="" fill="#0F2E45" transform="translate(0,0)"/>
<path d="" fill="#102E46" transform="translate(0,0)"/>
<path d="" fill="#0F3047" transform="translate(0,0)"/>
<path d="" fill="#113147" transform="translate(0,0)"/>
<path d="" fill="#184D53" transform="translate(0,0)"/>
<path d="" fill="#113048" transform="translate(0,0)"/>
<path d="" fill="#103144" transform="translate(0,0)"/>
<path d="" fill="#112F47" transform="translate(0,0)"/>
<path d="" fill="#123249" transform="translate(0,0)"/>
<path d="" fill="#133248" transform="translate(0,0)"/>
<path d="" fill="#184B53" transform="translate(0,0)"/>
<path d="" fill="#10324B" transform="translate(0,0)"/>
<path d="" fill="#12334B" transform="translate(0,0)"/>
<path d="" fill="#143549" transform="translate(0,0)"/>
<path d="" fill="#143A4C" transform="translate(0,0)"/>
<path d="" fill="#10324C" transform="translate(0,0)"/>
<path d="" fill="#217A64" transform="translate(0,0)"/>
<path d="" fill="#12334A" transform="translate(0,0)"/>
<path d="" fill="#0F3047" transform="translate(0,0)"/>
<path d="" fill="#22846A" transform="translate(0,0)"/>
<path d="" fill="#217D6A" transform="translate(0,0)"/>
<path d="" fill="#11314B" transform="translate(0,0)"/>
<path d="" fill="#133B50" transform="translate(0,0)"/>
<path d="" fill="#133B51" transform="translate(0,0)"/>
<path d="" fill="#123B50" transform="translate(0,0)"/>
<path d="" fill="#0F314B" transform="translate(0,0)"/>
<path d="" fill="#1E7B65" transform="translate(0,0)"/>
<path d="" fill="#1E7568" transform="translate(0,0)"/>
<path d="" fill="#1E7A68" transform="translate(0,0)"/>
<path d="" fill="#0F3249" transform="translate(0,0)"/>
<path d="" fill="#227D67" transform="translate(0,0)"/>
<path d="" fill="#1F7C66" transform="translate(0,0)"/>
<path d="" fill="#1A555A" transform="translate(0,0)"/>
<path d="" fill="#17485B" transform="translate(0,0)"/>
<path d="" fill="#184656" transform="translate(0,0)"/>
<path d="" fill="#1E7B65" transform="translate(0,0)"/>
<path d="" fill="#17495B" transform="translate(0,0)"/>
<path d="" fill="#1B535A" transform="translate(0,0)"/>
<path d="" fill="#102F49" transform="translate(0,0)"/>
<path d="" fill="#174C57" transform="translate(0,0)"/>
<path d="" fill="#1B585C" transform="translate(0,0)"/>
<path d="" fill="#11364D" transform="translate(0,0)"/>
<path d="" fill="#0E2A41" transform="translate(0,0)"/>
<path d="" fill="#1C525C" transform="translate(0,0)"/>
<path d="" fill="#20846A" transform="translate(0,0)"/>
<path d="" fill="#207A67" transform="translate(0,0)"/>
<path d="" fill="#185359" transform="translate(0,0)"/>
<path d="" fill="#13304B" transform="translate(0,0)"/>
<path d="" fill="#20806A" transform="translate(0,0)"/>
<path d="" fill="#195358" transform="translate(0,0)"/>
<path d="" fill="#12304A" transform="translate(0,0)"/>
<path d="" fill="#1C4E5A" transform="translate(0,0)"/>
<path d="" fill="#228068" transform="translate(0,0)"/>
<path d="" fill="#0E324B" transform="translate(0,0)"/>
<path d="" fill="#1D7E68" transform="translate(0,0)"/>
<path d="" fill="#164858" transform="translate(0,0)"/>
<path d="" fill="#21806D" transform="translate(0,0)"/>
<path d="" fill="#217B69" transform="translate(0,0)"/>
<path d="" fill="#207B66" transform="translate(0,0)"/>
<path d="" fill="#1C7365" transform="translate(0,0)"/>
<path d="" fill="#217F65" transform="translate(0,0)"/>
<path d="" fill="#1D7967" transform="translate(0,0)"/>
<path d="" fill="#21836C" transform="translate(0,0)"/>
<path d="" fill="#1F7566" transform="translate(0,0)"/>
<path d="" fill="#22816A" transform="translate(0,0)"/>
<path d="" fill="#1B575B" transform="translate(0,0)"/>
<path d="" fill="#1A585B" transform="translate(0,0)"/>
<path d="" fill="#10304A" transform="translate(0,0)"/>
<path d="" fill="#24816F" transform="translate(0,0)"/>
<path d="" fill="#1C505B" transform="translate(0,0)"/>
<path d="" fill="#12344C" transform="translate(0,0)"/>
<path d="" fill="#227066" transform="translate(0,0)"/>
<path d="" fill="#12314B" transform="translate(0,0)"/>
<path d="" fill="#22816B" transform="translate(0,0)"/>
<path d="" fill="#207C6A" transform="translate(0,0)"/>
<path d="" fill="#237E6A" transform="translate(0,0)"/>
<path d="" fill="#12354B" transform="translate(0,0)"/>
<path d="" fill="#20866C" transform="translate(0,0)"/>
<path d="" fill="#218169" transform="translate(0,0)"/>
<path d="" fill="#1D846C" transform="translate(0,0)"/>
<path d="" fill="#0E2C45" transform="translate(0,0)"/>
<path d="" fill="#23816C" transform="translate(0,0)"/>
<path d="" fill="#21826E" transform="translate(0,0)"/>
<path d="" fill="#248F72" transform="translate(0,0)"/>
<path d="" fill="#24846C" transform="translate(0,0)"/>
<path d="" fill="#25876F" transform="translate(0,0)"/>
<path d="" fill="#0F2C44" transform="translate(0,0)"/>
<path d="" fill="#24896F" transform="translate(0,0)"/>
<path d="" fill="#22846D" transform="translate(0,0)"/>
<path d="" fill="#238A6D" transform="translate(0,0)"/>
<path d="" fill="#23896F" transform="translate(0,0)"/>
<path d="" fill="#0F2C48" transform="translate(0,0)"/>
<path d="" fill="#258B71" transform="translate(0,0)"/>
<path d="" fill="#238E6F" transform="translate(0,0)"/>
<path d="" fill="#23886E" transform="translate(0,0)"/>
<path d="" fill="#248F72" transform="translate(0,0)"/>
<path d="" fill="#0F3047" transform="translate(0,0)"/>
<path d="" fill="#238F71" transform="translate(0,0)"/>
<path d="" fill="#269676" transform="translate(0,0)"/>
<path d="" fill="#248C6F" transform="translate(0,0)"/>
<path d="" fill="#248E73" transform="translate(0,0)"/>
<path d="" fill="#163B4F" transform="translate(0,0)"/>
<path d="" fill="#0F2F47" transform="translate(0,0)"/>
<path d="" fill="#15374E" transform="translate(0,0)"/>
<path d="" fill="#278B6F" transform="translate(0,0)"/>
<path d="" fill="#239270" transform="translate(0,0)"/>
<path d="" fill="#0E344E" transform="translate(0,0)"/>
<path d="" fill="#10344E" transform="translate(0,0)"/>
<path d="" fill="#0F324A" transform="translate(0,0)"/>
<path d="" fill="#102D47" transform="translate(0,0)"/>
<path d="" fill="#279777" transform="translate(0,0)"/>
<path d="" fill="#153D52" transform="translate(0,0)"/>
<path d="" fill="#0E2F4C" transform="translate(0,0)"/>
<path d="" fill="#14324B" transform="translate(0,0)"/>
<path d="" fill="#0F354B" transform="translate(0,0)"/>
<path d="" fill="#0F364F" transform="translate(0,0)"/>
<path d="" fill="#268B71" transform="translate(0,0)"/>
<path d="" fill="#113249" transform="translate(0,0)"/>
<path d="" fill="#0E3149" transform="translate(0,0)"/>
<path d="" fill="#249A77" transform="translate(0,0)"/>
<path d="" fill="#103048" transform="translate(0,0)"/>
<path d="" fill="#228B70" transform="translate(0,0)"/>
<path d="" fill="#163C55" transform="translate(0,0)"/>
<path d="" fill="#0E324C" transform="translate(0,0)"/>
<path d="" fill="#11334D" transform="translate(0,0)"/>
<path d="" fill="#278B70" transform="translate(0,0)"/>
<path d="" fill="#122F49" transform="translate(0,0)"/>
<path d="" fill="#238971" transform="translate(0,0)"/>
<path d="" fill="#0F344E" transform="translate(0,0)"/>
<path d="" fill="#238C73" transform="translate(0,0)"/>
<path d="" fill="#102E4B" transform="translate(0,0)"/>
<path d="" fill="#13364F" transform="translate(0,0)"/>
<path d="" fill="#174757" transform="translate(0,0)"/>
<path d="" fill="#184B59" transform="translate(0,0)"/>
<path d="" fill="#0F2D47" transform="translate(0,0)"/>
<path d="" fill="#13364E" transform="translate(0,0)"/>
<path d="" fill="#248D70" transform="translate(0,0)"/>
<path d="" fill="#0F334A" transform="translate(0,0)"/>
<path d="" fill="#10304C" transform="translate(0,0)"/>
<path d="" fill="#299B7B" transform="translate(0,0)"/>
<path d="" fill="#248C72" transform="translate(0,0)"/>
<path d="" fill="#113048" transform="translate(0,0)"/>
<path d="" fill="#278A71" transform="translate(0,0)"/>
<path d="" fill="#238B71" transform="translate(0,0)"/>
<path d="" fill="#268470" transform="translate(0,0)"/>
<path d="" fill="#0F2F47" transform="translate(0,0)"/>
<path d="" fill="#248570" transform="translate(0,0)"/>
<path d="" fill="#248772" transform="translate(0,0)"/>
<path d="" fill="#249876" transform="translate(0,0)"/>
<path d="" fill="#144353" transform="translate(0,0)"/>
<path d="" fill="#218B72" transform="translate(0,0)"/>
<path d="" fill="#154154" transform="translate(0,0)"/>
<path d="" fill="#249C79" transform="translate(0,0)"/>
<path d="" fill="#133A54" transform="translate(0,0)"/>
<path d="" fill="#239674" transform="translate(0,0)"/>
<path d="" fill="#238E74" transform="translate(0,0)"/>
<path d="" fill="#248D71" transform="translate(0,0)"/>
<path d="" fill="#174556" transform="translate(0,0)"/>
<path d="" fill="#238B6F" transform="translate(0,0)"/>
<path d="" fill="#268A6F" transform="translate(0,0)"/>
<path d="" fill="#279875" transform="translate(0,0)"/>
<path d="" fill="#24836E" transform="translate(0,0)"/>
<path d="" fill="#112F47" transform="translate(0,0)"/>
<path d="" fill="#279373" transform="translate(0,0)"/>
<path d="" fill="#143E51" transform="translate(0,0)"/>
<path d="" fill="#217F6D" transform="translate(0,0)"/>
<path d="" fill="#219074" transform="translate(0,0)"/>
<path d="" fill="#208E72" transform="translate(0,0)"/>
<path d="" fill="#25906F" transform="translate(0,0)"/>
<path d="" fill="#258D72" transform="translate(0,0)"/>
<path d="" fill="#22846B" transform="translate(0,0)"/>
<path d="" fill="#22796A" transform="translate(0,0)"/>
<path d="" fill="#248D71" transform="translate(0,0)"/>
<path d="" fill="#217A6A" transform="translate(0,0)"/>
<path d="" fill="#123C4F" transform="translate(0,0)"/>
<path d="" fill="#133E53" transform="translate(0,0)"/>
<path d="" fill="#154052" transform="translate(0,0)"/>
<path d="" fill="#1A4C58" transform="translate(0,0)"/>
<path d="" fill="#133B50" transform="translate(0,0)"/>
<path d="" fill="#1D5B5E" transform="translate(0,0)"/>
<path d="" fill="#164356" transform="translate(0,0)"/>
<path d="" fill="#1A545C" transform="translate(0,0)"/>
<path d="" fill="#1A515A" transform="translate(0,0)"/>
<path d="" fill="#0F2D48" transform="translate(0,0)"/>
<path d="" fill="#1A585B" transform="translate(0,0)"/>
<path d="" fill="#18505A" transform="translate(0,0)"/>
<path d="" fill="#249673" transform="translate(0,0)"/>
<path d="" fill="#112D47" transform="translate(0,0)"/>
<path d="" fill="#13334C" transform="translate(0,0)"/>
<path d="" fill="#0F2D45" transform="translate(0,0)"/>
<path d="" fill="#239773" transform="translate(0,0)"/>
<path d="" fill="#174453" transform="translate(0,0)"/>
<path d="" fill="#10324A" transform="translate(0,0)"/>
<path d="" fill="#113049" transform="translate(0,0)"/>
<path d="" fill="#11324C" transform="translate(0,0)"/>
<path d="" fill="#10304A" transform="translate(0,0)"/>
<path d="" fill="#102F48" transform="translate(0,0)"/>
<path d="" fill="#249874" transform="translate(0,0)"/>
<path d="" fill="#163E52" transform="translate(0,0)"/>
<path d="" fill="#249C76" transform="translate(0,0)"/>
<path d="" fill="#29A77E" transform="translate(0,0)"/>
<path d="" fill="#249573" transform="translate(0,0)"/>
<path d="" fill="#249473" transform="translate(0,0)"/>
<path d="" fill="#259571" transform="translate(0,0)"/>
<path d="" fill="#259772" transform="translate(0,0)"/>
<path d="" fill="#259973" transform="translate(0,0)"/>
<path d="" fill="#259672" transform="translate(0,0)"/>
<path d="" fill="#269471" transform="translate(0,0)"/>
<path d="" fill="#248268" transform="translate(0,0)"/>
<path d="" fill="#24836C" transform="translate(0,0)"/>
<path d="" fill="#228368" transform="translate(0,0)"/>
<path d="" fill="#22826A" transform="translate(0,0)"/>
<path d="" fill="#154451" transform="translate(0,0)"/>
<path d="" fill="#218A67" transform="translate(0,0)"/>
<path d="" fill="#154051" transform="translate(0,0)"/>
<path d="" fill="#0E2E49" transform="translate(0,0)"/>
<path d="" fill="#21866B" transform="translate(0,0)"/>
<path d="" fill="#164354" transform="translate(0,0)"/>
<path d="" fill="#134255" transform="translate(0,0)"/>
<path d="" fill="#208968" transform="translate(0,0)"/>
<path d="" fill="#248B6C" transform="translate(0,0)"/>
<path d="" fill="#238A6C" transform="translate(0,0)"/>
<path d="" fill="#102F47" transform="translate(0,0)"/>
<path d="" fill="#21896A" transform="translate(0,0)"/>
<path d="" fill="#228B6D" transform="translate(0,0)"/>
<path d="" fill="#238766" transform="translate(0,0)"/>
<path d="" fill="#24866B" transform="translate(0,0)"/>
<path d="" fill="#238666" transform="translate(0,0)"/>
<path d="" fill="#194054" transform="translate(0,0)"/>
<path d="" fill="#218369" transform="translate(0,0)"/>
<path d="" fill="#1F7E66" transform="translate(0,0)"/>
<path d="" fill="#163C51" transform="translate(0,0)"/>
<path d="" fill="#102E42" transform="translate(0,0)"/>
<path d="" fill="#228266" transform="translate(0,0)"/>
<path d="" fill="#0F2F45" transform="translate(0,0)"/>
<path d="" fill="#228065" transform="translate(0,0)"/>
<path d="" fill="#153C4E" transform="translate(0,0)"/>
<path d="" fill="#227060" transform="translate(0,0)"/>
<path d="" fill="#1B6C56" transform="translate(0,0)"/>
<path d="" fill="#1F695D" transform="translate(0,0)"/>
<path d="" fill="#1D7055" transform="translate(0,0)"/>
<path d="" fill="#000102" transform="translate(0,0)"/>
</svg>
